Lora Devanagari-Regular.ufo
<glyph name="exclam" format="1">
  <advance width="266"/>
  <unicode hex="0021"/>
  <outline>
    <contour>
      <point x="89.2625" y="722"/>
      <point x="66.8525" y="679.421"/>
      <point x="70.0183" y="642.488" type="curve"/>
      <point x="109.535" y="224" type="line"/>
      <point x="155.465" y="224" type="line"/>
      <point x="194.978" y="642.436" type="line"/>
      <point x="198.128" y="679.19"/>
      <point x="178.976" y="722"/>
      <point x="133" y="722" type="curve"/>
    </contour>
    <contour>
      <point x="100.172" y="119"/>
      <point x="69" y="86.7145"/>
      <point x="69" y="48" type="curve"/>
      <point x="69" y="9.28785"/>
      <point x="99.1704" y="-22"/>
      <point x="132" y="-22" type="curve"/>
      <point x="164.778" y="-22"/>
      <point x="196" y="9.22183"/>
      <point x="196" y="48" type="curve"/>
      <point x="196" y="86.5106"/>
      <point x="167.992" y="119"/>
      <point x="133" y="119" type="curve"/>
    </contour>
  </outline>
</glyph>
<glyph name="parenright" format="1">
  <advance width="305"/>
  <unicode hex="0029"/>
  <outline>
    <contour>
      <point x="10.6736" y="737.79" type="line"/>
      <point x="115.592" y="600.345"/>
      <point x="164" y="439.002"/>
      <point x="164" y="250" type="curve"/>
      <point x="164" y="60.9347"/>
      <point x="115.555" y="-111.633"/>
      <point x="10.6719" y="-248.788" type="curve"/>
      <point x="42.9791" y="-278.511" type="line"/>
      <point x="142.606" y="-189.05"/>
      <point x="275" y="23.4899"/>
      <point x="275" y="250" type="curve"/>
      <point x="275" y="476.598"/>
      <point x="142.551" y="677.845"/>
      <point x="42.9815" y="767.513" type="curve"/>
    </contour>
  </outline>
</glyph>
<glyph name="asterisk" format="1">
  <advance width="520"/>
  <unicode hex="002A"/>
  <outline>
    <contour>
      <point x="218.68" y="722"/>
      <point x="212.945" y="674.975"/>
      <point x="217.041" y="643.232" type="curve"/>
      <point x="221.462" y="603.458"/>
      <point x="226.721" y="557.703"/>
      <point x="236.238" y="520.456" type="curve"/>
      <point x="203.255" y="540.945"/>
      <point x="162.673" y="559.499"/>
      <point x="126.102" y="576.444" type="curve"/>
      <point x="95.2909" y="590.821"/>
      <point x="50.9419" y="599.691"/>
      <point x="37.285" y="560.997" type="curve"/>
      <point x="23.4469" y="519.468"/>
      <point x="65.7355" y="501.181"/>
      <point x="97.9315" y="494.139" type="curve"/>
      <point x="135.995" y="487.048"/>
      <point x="181.238" y="478.377"/>
      <point x="220.363" y="475.044" type="curve"/>
      <point x="191.31" y="451.357"/>
      <point x="161.682" y="419.197"/>
      <point x="134.356" y="390.108" type="curve"/>
      <point x="113.104" y="365.799"/>
      <point x="90.1689" y="322.222"/>
      <point x="121.911" y="297.282" type="curve"/>
      <point x="156.777" y="273.607"/>
      <point x="185.801" y="307.096"/>
      <point x="202.301" y="334.941" type="curve"/>
      <point x="221.171" y="370.012"/>
      <point x="244.323" y="412.774"/>
      <point x="259.884" y="449.215" type="curve"/>
      <point x="274.895" y="412.704"/>
      <point x="298.867" y="369.941"/>
      <point x="317.598" y="335.155" type="curve"/>
      <point x="335.253" y="307.034"/>
      <point x="364.305" y="273.513"/>
      <point x="396.933" y="297.14" type="curve"/>
      <point x="430.959" y="322.097"/>
      <point x="406.814" y="366.938"/>
      <point x="384.613" y="390.147" type="curve"/>
      <point x="357.137" y="419.39"/>
      <point x="326.62" y="450.9"/>
      <point x="298.016" y="475.02" type="curve"/>
      <point x="336.317" y="478.33"/>
      <point x="380.884" y="487.004"/>
      <point x="419.894" y="494.097" type="curve"/>
      <point x="453.28" y="502.194"/>
      <point x="494.576" y="519.4"/>
      <point x="480.743" y="560.897" type="curve"/>
      <point x="468.181" y="598.585"/>
      <point x="421.743" y="590.846"/>
      <point x="391.826" y="576.403" type="curve"/>
      <point x="355.378" y="558.622"/>
      <point x="315.234" y="539.809"/>
      <point x="281.634" y="519.956" type="curve"/>
      <point x="291.232" y="557.294"/>
      <point x="296.519" y="603.28"/>
      <point x="300.969" y="643.337" type="curve"/>
      <point x="305.033" y="674.806"/>
      <point x="301.58" y="722"/>
      <point x="260" y="722" type="curve"/>
    </contour>
  </outline>
</glyph>
<glyph name="comma" format="1">
  <advance width="253"/>
  <unicode hex="002C"/>
  <outline>
    <contour>
      <point x="89.4576" y="107"/>
      <point x="61" y="83.0956"/>
      <point x="61" y="43" type="curve"/>
      <point x="61" y="3.73035"/>
      <point x="93.1571" y="-21.767"/>
      <point x="132.686" y="-8.00499" type="curve"/>
      <point x="136.637" y="-69.2049"/>
      <point x="104.091" y="-137.078"/>
      <point x="83.0071" y="-160.105" type="curve"/>
      <point x="118.407" y="-186.328" type="line"/>
      <point x="164.745" y="-142.055"/>
      <point x="197" y="-43.3171"/>
      <point x="197" y="10" type="curve"/>
      <point x="197" y="62.964"/>
      <point x="169.477" y="107"/>
      <point x="121" y="107" type="curve"/>
    </contour>
  </outline>
</glyph>
<glyph name="period" format="1">
  <advance width="246"/>
  <unicode hex="002E"/>
  <outline>
    <contour>
      <point x="90.1722" y="119"/>
      <point x="59" y="86.7145"/>
      <point x="59" y="48" type="curve"/>
      <point x="59" y="9.28785"/>
      <point x="89.1704" y="-22"/>
      <point x="122" y="-22" type="curve"/>
      <point x="154.778" y="-22"/>
      <point x="186" y="9.22183"/>
      <point x="186" y="48" type="curve"/>
      <point x="186" y="86.5106"/>
      <point x="157.992" y="119"/>
      <point x="123" y="119" type="curve"/>
    </contour>
  </outline>
</glyph>
<glyph name="slash" format="1">
  <advance width="690"/>
  <unicode hex="002F"/>
  <outline>
    <contour>
      <point x="13.6355" y="-237.163" type="line"/>
      <point x="80.5387" y="-278.69" type="line"/>
      <point x="677.383" y="721.1" type="line"/>
      <point x="603.447" y="767.737" type="line"/>
    </contour>
  </outline>
</glyph>
<glyph name="A" format="1">
  <advance width="626"/>
  <unicode hex="0041"/>
  <outline>
    <contour>
      <point x="290.91" y="721" type="line"/>
      <point x="84" y="161" type="line"/>
      <point x="55" y="84"/>
      <point x="47" y="35"/>
      <point x="-10" y="37" type="curve"/>
      <point x="-13" y="37" type="line"/>
      <point x="-13" y="0" type="line"/>
      <point x="188" y="0" type="line"/>
      <point x="188" y="48" type="line"/>
      <point x="108" y="44" type="line"/>
      <point x="111" y="44" type="line"/>
      <point x="120" y="66"/>
      <point x="126" y="81"/>
      <point x="135" y="110" type="curve"/>
      <point x="145" y="143"/>
      <point x="155" y="177"/>
      <point x="169.122" y="214.075" type="curve"/>
      <point x="166.373" y="214.075" type="line"/>
      <point x="416.978" y="219.858" type="line"/>
      <point x="451" y="129" type="line"/>
      <point x="465" y="93"/>
      <point x="477" y="37"/>
      <point x="405" y="37" type="curve"/>
      <point x="402" y="37" type="line"/>
      <point x="402" y="0" type="line"/>
      <point x="645" y="0" type="line"/>
      <point x="645" y="48" type="line"/>
      <point x="574" y="44" type="line"/>
      <point x="577" y="44" type="line"/>
      <point x="578" y="74"/>
      <point x="562" y="124"/>
      <point x="551" y="153" type="curve"/>
      <point x="327.02" y="721" type="line"/>
    </contour>
    <contour>
      <point x="331.426" y="449.313" type="line"/>
      <point x="401.436" y="261" type="line"/>
      <point x="182.712" y="261" type="line"/>
      <point x="185.542" y="261" type="line"/>
      <point x="203.879" y="313.01"/>
      <point x="225.651" y="376.278"/>
      <point x="255.585" y="459.322" type="curve"/>
      <point x="297.077" y="571" type="line"/>
      <point x="286.906" y="571" type="line"/>
    </contour>
    <contour>
      <point x="563" y="-0" type="move" name="ogonek"/>
    </contour>
    <contour>
      <point x="313" y="700" type="move" name="top"/>
    </contour>
  </outline>
</glyph>
<glyph name="D" format="1">
  <advance width="745"/>
  <unicode hex="0044"/>
  <outline>
    <contour>
      <point x="48" y="700" type="line"/>
      <point x="48" y="652" type="line"/>
      <point x="123" y="656" type="line"/>
      <point x="120" y="656" type="line"/>
      <point x="118" y="636"/>
      <point x="117" y="612"/>
      <point x="117" y="586" type="curve"/>
      <point x="117" y="158" type="line"/>
      <point x="117" y="86"/>
      <point x="123" y="38"/>
      <point x="51" y="37" type="curve"/>
      <point x="48" y="37" type="line"/>
      <point x="48" y="0" type="line"/>
      <point x="318" y="0" type="line"/>
      <point x="574" y="0"/>
      <point x="706" y="166"/>
      <point x="706" y="347" type="curve"/>
      <point x="706" y="588"/>
      <point x="535" y="702"/>
      <point x="291" y="701" type="curve"/>
    </contour>
    <contour>
      <point x="495" y="660"/>
      <point x="594" y="541"/>
      <point x="594" y="351" type="curve"/>
      <point x="594" y="173"/>
      <point x="482" y="42"/>
      <point x="315" y="42" type="curve"/>
      <point x="307" y="42"/>
      <point x="263" y="41"/>
      <point x="212" y="44" type="curve"/>
      <point x="215" y="44" type="line"/>
      <point x="217" y="61"/>
      <point x="218" y="85"/>
      <point x="218" y="120" type="curve"/>
      <point x="218" y="542" type="line"/>
      <point x="218" y="613"/>
      <point x="212" y="660"/>
      <point x="280" y="660" type="curve"/>
    </contour>
    <contour>
      <point x="373" y="350" type="move" name="center"/>
    </contour>
    <contour>
      <point x="346" y="700" type="move" name="top"/>
    </contour>
  </outline>
</glyph>
<glyph name="G" format="1">
  <advance width="761"/>
  <unicode hex="0047"/>
  <outline>
    <contour>
      <point x="157" y="715"/>
      <point x="40" y="519"/>
      <point x="40" y="335" type="curve"/>
      <point x="40" y="120"/>
      <point x="182" y="-15"/>
      <point x="387" y="-15" type="curve"/>
      <point x="432" y="-15"/>
      <point x="495" y="-5"/>
      <point x="536" y="11" type="curve"/>
      <point x="584" y="30"/>
      <point x="620" y="37"/>
      <point x="641" y="37" type="curve"/>
      <point x="675" y="37" type="line"/>
      <point x="675" y="192" type="line"/>
      <point x="675" y="219"/>
      <point x="671.959" y="309.197"/>
      <point x="743.863" y="305.907" type="curve"/>
      <point x="747" y="305.907" type="line"/>
      <point x="747" y="343" type="line"/>
      <point x="507" y="343" type="line"/>
      <point x="507" y="294.58" type="line"/>
      <point x="577" y="298.58" type="line"/>
      <point x="577" y="85" type="line"/>
      <point x="578" y="85" type="line"/>
      <point x="526" y="51"/>
      <point x="464" y="37"/>
      <point x="413" y="37" type="curve"/>
      <point x="260" y="37"/>
      <point x="152" y="171"/>
      <point x="152" y="358" type="curve"/>
      <point x="152" y="542"/>
      <point x="265" y="671"/>
      <point x="402" y="671" type="curve"/>
      <point x="515" y="671"/>
      <point x="602" y="602"/>
      <point x="610" y="475" type="curve"/>
      <point x="613" y="475" type="line"/>
      <point x="660" y="475" type="line"/>
      <point x="660" y="708" type="line"/>
      <point x="591" y="708" type="line"/>
      <point x="595" y="664" type="line"/>
      <point x="599" y="664" type="line"/>
      <point x="544" y="695"/>
      <point x="466" y="715"/>
      <point x="395" y="715" type="curve"/>
    </contour>
    <contour>
      <point x="396" y="700" type="move" name="top"/>
    </contour>
    <contour>
      <point x="427" y="0" type="move" name="bottom"/>
    </contour>
  </outline>
</glyph>
<glyph name="H" format="1">
  <advance width="780"/>
  <unicode hex="0048"/>
  <outline>
    <contour>
      <point x="496" y="700" type="line"/>
      <point x="496" y="652" type="line"/>
      <point x="568" y="656" type="line"/>
      <point x="566" y="636"/>
      <point x="565" y="612"/>
      <point x="565" y="586" type="curve"/>
      <point x="565" y="380" type="line"/>
      <point x="215" y="380" type="line"/>
      <point x="215" y="542" type="line"/>
      <point x="215" y="614"/>
      <point x="209" y="662"/>
      <point x="284" y="663" type="curve"/>
      <point x="284" y="700" type="line"/>
      <point x="51" y="700" type="line"/>
      <point x="51" y="652" type="line"/>
      <point x="123" y="656" type="line"/>
      <point x="121" y="636"/>
      <point x="120" y="612"/>
      <point x="120" y="586" type="curve"/>
      <point x="120" y="158" type="line"/>
      <point x="120" y="86"/>
      <point x="126" y="38"/>
      <point x="51" y="37" type="curve"/>
      <point x="51" y="0" type="line"/>
      <point x="284" y="0" type="line"/>
      <point x="284" y="48" type="line"/>
      <point x="212" y="44" type="line"/>
      <point x="214" y="61"/>
      <point x="215" y="87"/>
      <point x="215" y="121" type="curve"/>
      <point x="215" y="332.044" type="line"/>
      <point x="565" y="335.955" type="line"/>
      <point x="565" y="158" type="line"/>
      <point x="565" y="86"/>
      <point x="571" y="38"/>
      <point x="496" y="37" type="curve"/>
      <point x="496" y="0" type="line"/>
      <point x="729" y="0" type="line"/>
      <point x="729" y="48" type="line"/>
      <point x="657" y="44" type="line"/>
      <point x="659" y="61"/>
      <point x="660" y="87"/>
      <point x="660" y="121" type="curve"/>
      <point x="660" y="542" type="line"/>
      <point x="660" y="614"/>
      <point x="654" y="662"/>
      <point x="729" y="663" type="curve"/>
      <point x="729" y="700" type="line"/>
    </contour>
    <contour>
      <point x="390" y="350" type="move" name="center"/>
    </contour>
    <contour>
      <point x="390" y="700" type="move" name="top"/>
    </contour>
  </outline>
</glyph>
<glyph name="I" format="1">
  <advance width="335"/>
  <unicode hex="0049"/>
  <outline>
    <contour>
      <point x="48" y="700" type="line"/>
      <point x="48" y="652" type="line"/>
      <point x="123" y="656" type="line"/>
      <point x="120" y="656" type="line"/>
      <point x="118" y="636"/>
      <point x="117" y="612"/>
      <point x="117" y="586" type="curve"/>
      <point x="117" y="158" type="line"/>
      <point x="117" y="86"/>
      <point x="123" y="38"/>
      <point x="51" y="37" type="curve"/>
      <point x="48" y="37" type="line"/>
      <point x="48" y="0" type="line"/>
      <point x="287" y="0" type="line"/>
      <point x="287" y="48" type="line"/>
      <point x="212" y="44" type="line"/>
      <point x="215" y="44" type="line"/>
      <point x="217" y="62"/>
      <point x="218" y="87"/>
      <point x="218" y="121" type="curve"/>
      <point x="218" y="542" type="line"/>
      <point x="218" y="614"/>
      <point x="212" y="662"/>
      <point x="284" y="663" type="curve"/>
      <point x="287" y="663" type="line"/>
      <point x="287" y="700" type="line"/>
    </contour>
    <contour>
      <point x="274" y="-0" type="move" name="ogonek"/>
    </contour>
    <contour>
      <point x="171" y="700" type="move" name="top"/>
    </contour>
  </outline>
</glyph>
<glyph name="K" format="1">
  <advance width="683"/>
  <unicode hex="004B"/>
  <outline>
    <contour>
      <point x="414" y="700" type="line"/>
      <point x="414" y="655" type="line"/>
      <point x="484" y="657" type="line"/>
      <point x="478" y="661" type="line"/>
      <point x="448" y="637"/>
      <point x="421" y="600"/>
      <point x="405" y="576" type="curve"/>
      <point x="280.679" y="382" type="line"/>
      <point x="218" y="382" type="line"/>
      <point x="218" y="542" type="line"/>
      <point x="218" y="614"/>
      <point x="212" y="662"/>
      <point x="284" y="663" type="curve"/>
      <point x="287" y="663" type="line"/>
      <point x="287" y="700" type="line"/>
      <point x="48" y="700" type="line"/>
      <point x="48" y="652" type="line"/>
      <point x="123" y="656" type="line"/>
      <point x="120" y="656" type="line"/>
      <point x="118" y="636"/>
      <point x="117" y="612"/>
      <point x="117" y="586" type="curve"/>
      <point x="117" y="158" type="line"/>
      <point x="117" y="86"/>
      <point x="123" y="38"/>
      <point x="51" y="37" type="curve"/>
      <point x="48" y="37" type="line"/>
      <point x="48" y="0" type="line"/>
      <point x="287" y="0" type="line"/>
      <point x="287" y="48" type="line"/>
      <point x="212" y="44" type="line"/>
      <point x="219" y="69"/>
      <point x="218" y="75"/>
      <point x="218" y="121" type="curve"/>
      <point x="218" y="338.14" type="line"/>
      <point x="256.805" y="338.966" type="line"/>
      <point x="277.874" y="325.558"/>
      <point x="303.183" y="293.426"/>
      <point x="329.42" y="258.792" type="curve"/>
      <point x="449" y="99" type="line"/>
      <point x="487" y="50"/>
      <point x="531" y="0"/>
      <point x="556" y="0" type="curve"/>
      <point x="685" y="0" type="line"/>
      <point x="685" y="37" type="line"/>
      <point x="682" y="37" type="line"/>
      <point x="638" y="37"/>
      <point x="615" y="41"/>
      <point x="537" y="145" type="curve"/>
      <point x="424.595" y="292.202" type="line"/>
      <point x="402.502" y="320.684"/>
      <point x="381.438" y="351.698"/>
      <point x="341.865" y="376.355" type="curve"/>
      <point x="440" y="529" type="line"/>
      <point x="509" y="640"/>
      <point x="556" y="657"/>
      <point x="643" y="663" type="curve"/>
      <point x="643" y="700" type="line"/>
    </contour>
    <contour>
      <point x="347" y="700" type="move" name="top"/>
    </contour>
    <contour>
      <point x="378" y="0" type="move" name="bottom"/>
    </contour>
  </outline>
</glyph>
<glyph name="L" format="1">
  <advance width="578"/>
  <unicode hex="004C"/>
  <outline>
    <contour>
      <point x="48" y="700" type="line"/>
      <point x="48" y="652" type="line"/>
      <point x="123" y="656" type="line"/>
      <point x="120" y="656" type="line"/>
      <point x="118" y="636"/>
      <point x="117" y="612"/>
      <point x="117" y="586" type="curve"/>
      <point x="117" y="158" type="line"/>
      <point x="117" y="86"/>
      <point x="123" y="38"/>
      <point x="51" y="37" type="curve"/>
      <point x="48" y="37" type="line"/>
      <point x="48" y="0" type="line"/>
      <point x="558" y="0" type="line"/>
      <point x="564" y="211" type="line"/>
      <point x="519" y="211" type="line"/>
      <point x="516" y="211" type="line"/>
      <point x="516" y="91"/>
      <point x="475" y="45"/>
      <point x="395" y="44" type="curve"/>
      <point x="212" y="41" type="line"/>
      <point x="215" y="41" type="line"/>
      <point x="217" y="58"/>
      <point x="218" y="83"/>
      <point x="218" y="117" type="curve"/>
      <point x="218" y="542" type="line"/>
      <point x="218" y="614"/>
      <point x="212" y="662"/>
      <point x="284" y="663" type="curve"/>
      <point x="287" y="663" type="line"/>
      <point x="287" y="700" type="line"/>
    </contour>
    <contour>
      <point x="181" y="700" type="move" name="top"/>
    </contour>
    <contour>
      <point x="319" y="0" type="move" name="bottom"/>
    </contour>
  </outline>
</glyph>
<glyph name="P" format="1">
  <advance width="606"/>
  <unicode hex="0050"/>
  <outline>
    <contour>
      <point x="198" y="702"/>
      <point x="122" y="701"/>
      <point x="48" y="700" type="curve"/>
      <point x="48" y="652" type="line"/>
      <point x="123" y="656" type="line"/>
      <point x="120" y="656" type="line"/>
      <point x="118" y="636"/>
      <point x="117" y="612"/>
      <point x="117" y="586" type="curve"/>
      <point x="117" y="158" type="line"/>
      <point x="117" y="86"/>
      <point x="123" y="38"/>
      <point x="51" y="37" type="curve"/>
      <point x="48" y="37" type="line"/>
      <point x="48" y="0" type="line"/>
      <point x="307" y="0" type="line"/>
      <point x="307" y="49" type="line"/>
      <point x="212" y="44" type="line"/>
      <point x="215" y="44" type="line"/>
      <point x="217" y="62"/>
      <point x="218" y="87"/>
      <point x="218" y="121" type="curve"/>
      <point x="218" y="261.717" type="line"/>
      <point x="214.826" y="261.717" type="line"/>
      <point x="227.143" y="261"/>
      <point x="241.64" y="261"/>
      <point x="247" y="261" type="curve"/>
      <point x="526.842" y="261"/>
      <point x="592" y="402"/>
      <point x="587" y="506" type="curve"/>
      <point x="581" y="634"/>
      <point x="474" y="702"/>
      <point x="278" y="702" type="curve"/>
    </contour>
    <contour>
      <point x="395" y="659"/>
      <point x="476" y="613"/>
      <point x="476" y="487" type="curve"/>
      <point x="476" y="369"/>
      <point x="386.325" y="304"/>
      <point x="276" y="304" type="curve"/>
      <point x="252.203" y="304"/>
      <point x="238.128" y="304"/>
      <point x="215.337" y="306.575" type="curve"/>
      <point x="218" y="306.575" type="line"/>
      <point x="218" y="542" type="line"/>
      <point x="218" y="613"/>
      <point x="212" y="659"/>
      <point x="276" y="659" type="curve"/>
    </contour>
  </outline>
</glyph>
<glyph name="Q" format="1">
  <advance width="796"/>
  <unicode hex="0051"/>
  <outline>
    <contour>
      <point x="401" y="-3" type="curve"/>
      <point x="392" y="-16" type="line"/>
      <point x="454" y="-12"/>
      <point x="485.011" y="-77.7105"/>
      <point x="580.317" y="-163.487" type="curve"/>
      <point x="642.879" y="-220"/>
      <point x="682" y="-220"/>
      <point x="754" y="-220" type="curve"/>
      <point x="793" y="-220" type="line"/>
      <point x="793" y="-182.898" type="line"/>
      <point x="751" y="-183"/>
      <point x="733" y="-164"/>
      <point x="630.753" y="-69.5316" type="curve"/>
      <point x="542.015" y="13.0249"/>
      <point x="504" y="-7"/>
    </contour>
    <component base="O"/>
  </outline>
</glyph>
<glyph name="T" format="1">
  <advance width="640"/>
  <unicode hex="0054"/>
  <outline>
    <contour>
      <point x="21" y="700" type="line"/>
      <point x="15" y="485" type="line"/>
      <point x="63" y="485" type="line"/>
      <point x="66" y="485" type="line"/>
      <point x="66" y="605"/>
      <point x="95" y="658"/>
      <point x="174" y="658" type="curve"/>
      <point x="270" y="659" type="line"/>
      <point x="269" y="158" type="line"/>
      <point x="269" y="89"/>
      <point x="276" y="38"/>
      <point x="204" y="37" type="curve"/>
      <point x="201" y="37" type="line"/>
      <point x="201" y="0" type="line"/>
      <point x="450" y="0" type="line"/>
      <point x="450" y="48" type="line"/>
      <point x="364" y="44" type="line"/>
      <point x="367" y="44" type="line"/>
      <point x="369" y="62"/>
      <point x="370" y="87"/>
      <point x="370" y="121" type="curve"/>
      <point x="371" y="660" type="line"/>
      <point x="449" y="660" type="line"/>
      <point x="547" y="661"/>
      <point x="570" y="605"/>
      <point x="572" y="485" type="curve"/>
      <point x="575" y="485" type="line"/>
      <point x="624" y="485" type="line"/>
      <point x="618" y="700" type="line"/>
    </contour>
    <contour>
      <point x="320" y="350" type="move" name="center"/>
    </contour>
    <contour>
      <point x="321" y="0" type="move" name="bottom"/>
    </contour>
    <contour>
      <point x="320" y="700" type="move" name="top"/>
    </contour>
  </outline>
</glyph>
<glyph name="U" format="1">
  <advance width="752"/>
  <unicode hex="0055"/>
  <outline>
    <contour>
      <point x="529" y="700" type="line"/>
      <point x="529" y="652" type="line"/>
      <point x="603" y="656" type="line"/>
      <point x="600" y="656" type="line"/>
      <point x="598" y="636"/>
      <point x="597" y="612"/>
      <point x="597" y="586" type="curve"/>
      <point x="594" y="310" type="line"/>
      <point x="592" y="153"/>
      <point x="532" y="46"/>
      <point x="394" y="46" type="curve"/>
      <point x="221" y="46"/>
      <point x="194" y="190"/>
      <point x="194" y="339" type="curve"/>
      <point x="194" y="586" type="line"/>
      <point x="194" y="614"/>
      <point x="195" y="665"/>
      <point x="259" y="663" type="curve"/>
      <point x="262" y="663" type="line"/>
      <point x="262" y="700" type="line"/>
      <point x="24" y="700" type="line"/>
      <point x="24" y="653" type="line"/>
      <point x="99" y="656" type="line"/>
      <point x="96" y="656" type="line"/>
      <point x="94" y="629"/>
      <point x="92" y="576"/>
      <point x="92" y="542" type="curve"/>
      <point x="92" y="344" type="line"/>
      <point x="92" y="98"/>
      <point x="162" y="-15"/>
      <point x="381" y="-15" type="curve"/>
      <point x="588" y="-15"/>
      <point x="656" y="142"/>
      <point x="657" y="315" type="curve"/>
      <point x="659" y="542" type="line"/>
      <point x="659" y="614"/>
      <point x="653" y="662"/>
      <point x="726" y="663" type="curve"/>
      <point x="729" y="663" type="line"/>
      <point x="729" y="700" type="line"/>
    </contour>
    <contour>
      <point x="497" y="5" type="move" name="ogonek"/>
    </contour>
    <contour>
      <point x="388" y="700" type="move" name="top"/>
    </contour>
  </outline>
</glyph>
<glyph name="V" format="1">
  <advance width="653"/>
  <unicode hex="0056"/>
  <outline>
    <contour>
      <point x="461" y="700" type="line"/>
      <point x="461" y="652" type="line"/>
      <point x="540" y="656" type="line"/>
      <point x="537" y="656" type="line"/>
      <point x="529" y="638"/>
      <point x="520" y="615"/>
      <point x="509" y="585" type="curve"/>
      <point x="488" y="524"/>
      <point x="457" y="439"/>
      <point x="398.4" y="275.666" type="curve"/>
      <point x="377" y="219"/>
      <point x="363" y="181"/>
      <point x="349" y="137" type="curve"/>
      <point x="352" y="137" type="line"/>
      <point x="356" y="137" type="line"/>
      <point x="359" y="137" type="line"/>
      <point x="343" y="181"/>
      <point x="311" y="253"/>
      <point x="278.438" y="325.785" type="curve"/>
      <point x="243" y="407"/>
      <point x="216" y="476"/>
      <point x="183" y="557" type="curve"/>
      <point x="157" y="622"/>
      <point x="164" y="658"/>
      <point x="235" y="662" type="curve"/>
      <point x="235" y="700" type="line"/>
      <point x="-11" y="700" type="line"/>
      <point x="-11" y="652" type="line"/>
      <point x="45" y="654" type="line"/>
      <point x="49" y="625"/>
      <point x="59" y="587"/>
      <point x="89" y="519" type="curve"/>
      <point x="316" y="-9" type="line"/>
      <point x="353" y="-9" type="line"/>
      <point x="356" y="-9" type="line"/>
      <point x="553" y="529"/>
      <point x="560" y="546"/>
      <point x="568" y="566" type="curve"/>
      <point x="594" y="641"/>
      <point x="617" y="661"/>
      <point x="675" y="663" type="curve"/>
      <point x="678" y="663" type="line"/>
      <point x="678" y="700" type="line"/>
    </contour>
  </outline>
</glyph>
<glyph name="W" format="1">
  <advance width="995"/>
  <unicode hex="0057"/>
  <outline>
    <contour>
      <point x="489" y="702" type="line"/>
      <point x="472" y="642"/>
      <point x="411" y="466"/>
      <point x="355.323" y="289.6" type="curve"/>
      <point x="345.988" y="261.518"/>
      <point x="327.307" y="202.542"/>
      <point x="314.694" y="159" type="curve"/>
      <point x="325.227" y="159" type="line"/>
      <point x="305.844" y="219.844"/>
      <point x="286.984" y="264.624"/>
      <point x="267.673" y="325.604" type="curve"/>
      <point x="242" y="403"/>
      <point x="215" y="467"/>
      <point x="192" y="557" type="curve"/>
      <point x="169" y="637"/>
      <point x="178" y="660"/>
      <point x="254" y="663" type="curve"/>
      <point x="257" y="663" type="line"/>
      <point x="257" y="700" type="line"/>
      <point x="0" y="700" type="line"/>
      <point x="0" y="652" type="line"/>
      <point x="60" y="654" type="line"/>
      <point x="56" y="654" type="line"/>
      <point x="62" y="625"/>
      <point x="75" y="589"/>
      <point x="98" y="519" type="curve"/>
      <point x="277.824" y="-12" type="line"/>
      <point x="319.197" y="-12" type="line"/>
      <point x="489" y="503" type="line"/>
      <point x="669.86" y="-12" type="line"/>
      <point x="712.098" y="-12" type="line"/>
      <point x="775.835" y="162.917"/>
      <point x="832" y="336"/>
      <point x="893" y="516" type="curve"/>
      <point x="936" y="643"/>
      <point x="948" y="656"/>
      <point x="1017" y="663" type="curve"/>
      <point x="1017" y="700" type="line"/>
      <point x="800" y="700" type="line"/>
      <point x="800" y="652" type="line"/>
      <point x="879" y="655" type="line"/>
      <point x="866" y="631"/>
      <point x="857" y="604"/>
      <point x="849" y="585" type="curve"/>
      <point x="828" y="521"/>
      <point x="815" y="469"/>
      <point x="746.39" y="274.658" type="curve"/>
      <point x="731.075" y="228.78"/>
      <point x="717.237" y="184.341"/>
      <point x="705.744" y="147" type="curve"/>
      <point x="715.314" y="147" type="line"/>
      <point x="697.773" y="208.091"/>
      <point x="675.977" y="264.669"/>
      <point x="657.705" y="325.575" type="curve"/>
      <point x="632" y="404"/>
      <point x="558" y="614"/>
      <point x="533" y="702" type="curve"/>
    </contour>
    <contour>
      <point x="513" y="700" type="move" name="top"/>
    </contour>
  </outline>
</glyph>
<glyph name="Z" format="1">
  <advance width="624"/>
  <unicode hex="005A"/>
  <outline>
    <contour>
      <point x="61" y="700" type="line"/>
      <point x="55" y="489" type="line"/>
      <point x="100" y="489" type="line"/>
      <point x="103" y="489" type="line"/>
      <point x="103" y="605"/>
      <point x="140" y="652"/>
      <point x="214" y="655" type="curve"/>
      <point x="463" y="659" type="line"/>
      <point x="461" y="659" type="line"/>
      <point x="435" y="629"/>
      <point x="416" y="599"/>
      <point x="399" y="572" type="curve"/>
      <point x="232" y="306"/>
      <point x="116" y="151"/>
      <point x="43" y="48" type="curve"/>
      <point x="43" y="0" type="line"/>
      <point x="570" y="0" type="line"/>
      <point x="576" y="209" type="line"/>
      <point x="531" y="209" type="line"/>
      <point x="528" y="209" type="line"/>
      <point x="529" y="95"/>
      <point x="465" y="46"/>
      <point x="380" y="45" type="curve"/>
      <point x="135" y="41" type="line"/>
      <point x="142" y="38" type="line"/>
      <point x="165" y="58"/>
      <point x="183" y="80"/>
      <point x="211" y="121" type="curve"/>
      <point x="571" y="663" type="line"/>
      <point x="571" y="700" type="line"/>
    </contour>
    <contour>
      <point x="312" y="700" type="move" name="top"/>
    </contour>
  </outline>
</glyph>
<glyph name="underscore" format="1">
  <advance width="729"/>
  <unicode hex="005F"/>
  <outline>
    <contour>
      <point x="52" y="-117" type="line"/>
      <point x="677" y="-117" type="line"/>
      <point x="677" y="-48.0324" type="line"/>
      <point x="52" y="-43.9674" type="line"/>
    </contour>
  </outline>
</glyph>
<glyph name="a" format="1">
  <advance width="481"/>
  <unicode hex="0061"/>
  <outline>
    <contour>
      <point x="128" y="476"/>
      <point x="58" y="426"/>
      <point x="58" y="360" type="curve"/>
      <point x="58" y="332"/>
      <point x="75" y="308"/>
      <point x="101" y="308" type="curve"/>
      <point x="133" y="308"/>
      <point x="146" y="337"/>
      <point x="146" y="354" type="curve"/>
      <point x="146" y="369"/>
      <point x="145" y="378"/>
      <point x="135" y="388" type="curve"/>
      <point x="151" y="417"/>
      <point x="192" y="434"/>
      <point x="227" y="433" type="curve" smooth="yes"/>
      <point x="306" y="432"/>
      <point x="313" y="373"/>
      <point x="313" y="310" type="curve"/>
      <point x="313" y="268" type="line"/>
      <point x="190" y="268"/>
      <point x="30" y="217"/>
      <point x="30" y="101" type="curve"/>
      <point x="30" y="36"/>
      <point x="79" y="-15"/>
      <point x="173" y="-15" type="curve"/>
      <point x="225" y="-15"/>
      <point x="274" y="10"/>
      <point x="315" y="50" type="curve"/>
      <point x="317" y="34"/>
      <point x="318" y="24"/>
      <point x="323" y="0" type="curve"/>
      <point x="460" y="0" type="line"/>
      <point x="460" y="52" type="line"/>
      <point x="395" y="49" type="line"/>
      <point x="397" y="70"/>
      <point x="398" y="83"/>
      <point x="398" y="103" type="curve"/>
      <point x="399" y="301" type="line"/>
      <point x="400" y="421"/>
      <point x="328" y="476"/>
      <point x="235" y="476" type="curve" smooth="yes"/>
    </contour>
    <contour>
      <point x="313" y="181"/>
      <point x="312" y="152"/>
      <point x="312" y="144" type="curve"/>
      <point x="312" y="124"/>
      <point x="312" y="116"/>
      <point x="313" y="102" type="curve"/>
      <point x="278" y="70"/>
      <point x="244" y="51"/>
      <point x="194" y="51" type="curve"/>
      <point x="155" y="51"/>
      <point x="117" y="71"/>
      <point x="115" y="112" type="curve"/>
      <point x="111" y="190"/>
      <point x="229" y="219"/>
      <point x="313" y="223" type="curve"/>
    </contour>
    <contour>
      <point x="437" y="0" type="move" name="ogonek"/>
    </contour>
    <contour>
      <point x="235" y="455" type="move" name="top"/>
    </contour>
  </outline>
</glyph>
<glyph name="b" format="1">
  <advance width="543"/>
  <unicode hex="0062"/>
  <outline>
    <contour>
      <point x="122" y="692" type="line"/>
      <point x="121" y="692" type="line"/>
      <point x="109" y="680"/>
      <point x="92" y="668"/>
      <point x="4" y="668" type="curve"/>
      <point x="3" y="668" type="line"/>
      <point x="3" y="618" type="line"/>
      <point x="69" y="621" type="line"/>
      <point x="67" y="621" type="line"/>
      <point x="66" y="600"/>
      <point x="66" y="585"/>
      <point x="66" y="568" type="curve"/>
      <point x="64" y="-6" type="line"/>
      <point x="65" y="-6" type="line"/>
      <point x="104" y="-6" type="line"/>
      <point x="105" y="-6" type="line"/>
      <point x="125" y="33" type="line"/>
      <point x="123" y="33" type="line"/>
      <point x="164" y="-9"/>
      <point x="219" y="-21"/>
      <point x="260" y="-21" type="curve"/>
      <point x="387" y="-21"/>
      <point x="506" y="80"/>
      <point x="506" y="238" type="curve"/>
      <point x="506" y="383"/>
      <point x="410" y="475"/>
      <point x="290" y="475" type="curve"/>
      <point x="236" y="475"/>
      <point x="188" y="457"/>
      <point x="154" y="426" type="curve"/>
      <point x="156" y="426" type="line"/>
      <point x="156" y="692" type="line"/>
    </contour>
    <contour>
      <point x="356" y="419"/>
      <point x="401" y="336"/>
      <point x="401" y="215" type="curve"/>
      <point x="401" y="103"/>
      <point x="346" y="29"/>
      <point x="260" y="29" type="curve"/>
      <point x="205" y="29"/>
      <point x="156" y="50"/>
      <point x="156" y="143" type="curve"/>
      <point x="156" y="370" type="line"/>
      <point x="182" y="399"/>
      <point x="224" y="419"/>
      <point x="263" y="419" type="curve"/>
    </contour>
  </outline>
</glyph>
<glyph name="c" format="1">
  <advance width="503"/>
  <unicode hex="0063"/>
  <outline>
    <contour>
      <point x="139" y="475"/>
      <point x="37" y="347"/>
      <point x="37" y="219" type="curve"/>
      <point x="37" y="69"/>
      <point x="144" y="-21"/>
      <point x="271" y="-21" type="curve"/>
      <point x="337" y="-21"/>
      <point x="424" y="13"/>
      <point x="474" y="95" type="curve"/>
      <point x="441" y="118" type="line"/>
      <point x="440" y="118" type="line"/>
      <point x="412" y="74"/>
      <point x="355" y="39"/>
      <point x="297" y="39" type="curve"/>
      <point x="203" y="39"/>
      <point x="142" y="122"/>
      <point x="142" y="242" type="curve"/>
      <point x="142" y="364"/>
      <point x="204" y="429"/>
      <point x="287" y="429" type="curve"/>
      <point x="311" y="429"/>
      <point x="361" y="424"/>
      <point x="377" y="388" type="curve"/>
      <point x="367" y="376"/>
      <point x="364" y="362"/>
      <point x="364" y="350" type="curve"/>
      <point x="364" y="334"/>
      <point x="377" y="302"/>
      <point x="412" y="303" type="curve"/>
      <point x="442" y="303"/>
      <point x="461" y="329"/>
      <point x="461" y="357" type="curve"/>
      <point x="461" y="419"/>
      <point x="389" y="475"/>
      <point x="285" y="475" type="curve"/>
    </contour>
    <contour>
      <point x="275" y="455" type="move" name="top"/>
    </contour>
    <contour>
      <point x="321" y="0" type="move" name="bottom"/>
    </contour>
  </outline>
</glyph>
<glyph name="e" format="1">
  <advance width="512"/>
  <unicode hex="0065"/>
  <outline>
    <contour>
      <point x="135" y="475"/>
      <point x="38" y="356"/>
      <point x="38" y="226" type="curve"/>
      <point x="38" y="76"/>
      <point x="139" y="-21"/>
      <point x="269" y="-21" type="curve"/>
      <point x="333" y="-21"/>
      <point x="426" y="10"/>
      <point x="478" y="90" type="curve"/>
      <point x="448" y="114" type="line"/>
      <point x="446" y="114" type="line"/>
      <point x="417" y="72"/>
      <point x="350" y="38"/>
      <point x="291" y="38" type="curve"/>
      <point x="187" y="38"/>
      <point x="144" y="123"/>
      <point x="143" y="257" type="curve"/>
      <point x="142" y="257" type="line"/>
      <point x="468" y="262" type="line"/>
      <point x="469" y="262" type="line"/>
      <point x="472" y="405"/>
      <point x="382" y="475"/>
      <point x="276" y="475" type="curve"/>
    </contour>
    <contour>
      <point x="344" y="428"/>
      <point x="371" y="368"/>
      <point x="372" y="307" type="curve"/>
      <point x="373" y="307" type="line"/>
      <point x="146" y="307" type="line"/>
      <point x="147" y="307" type="line"/>
      <point x="163" y="393"/>
      <point x="208" y="428"/>
      <point x="277" y="428" type="curve"/>
    </contour>
    <contour>
      <point x="364" y="5" type="move" name="ogonek"/>
    </contour>
    <contour>
      <point x="305" y="0" type="move" name="bottom"/>
    </contour>
    <contour>
      <point x="263" y="455" type="move" name="top"/>
    </contour>
  </outline>
</glyph>
<glyph name="f" format="1">
  <advance width="315"/>
  <unicode hex="0066"/>
  <outline>
    <contour>
      <point x="145" y="697"/>
      <point x="99" y="610"/>
      <point x="99" y="474" type="curve"/>
      <point x="99" y="461" type="line"/>
      <point x="22" y="461" type="line"/>
      <point x="22" y="408" type="line"/>
      <point x="99" y="409" type="line"/>
      <point x="100" y="138" type="line"/>
      <point x="100" y="71"/>
      <point x="101" y="31"/>
      <point x="46" y="33" type="curve"/>
      <point x="45" y="33" type="line"/>
      <point x="45" y="-6" type="line"/>
      <point x="244" y="-6" type="line"/>
      <point x="244" y="43" type="line"/>
      <point x="186" y="41" type="line"/>
      <point x="187" y="41" type="line"/>
      <point x="190" y="59"/>
      <point x="190" y="75"/>
      <point x="190" y="96" type="curve"/>
      <point x="189" y="410" type="line"/>
      <point x="188" y="410" type="line"/>
      <point x="313" y="413" type="line"/>
      <point x="314" y="413" type="line"/>
      <point x="314" y="461" type="line"/>
      <point x="189" y="461" type="line"/>
      <point x="189" y="550" type="line"/>
      <point x="189" y="601"/>
      <point x="203" y="652"/>
      <point x="257" y="652" type="curve"/>
      <point x="268" y="652"/>
      <point x="282" y="649"/>
      <point x="291" y="642" type="curve"/>
      <point x="287" y="634"/>
      <point x="287" y="626"/>
      <point x="287" y="620" type="curve"/>
      <point x="287" y="605"/>
      <point x="299" y="576"/>
      <point x="332" y="577" type="curve"/>
      <point x="358" y="577"/>
      <point x="375" y="599"/>
      <point x="375" y="624" type="curve"/>
      <point x="375" y="676"/>
      <point x="311" y="697"/>
      <point x="270" y="697" type="curve"/>
    </contour>
  </outline>
</glyph>
<glyph name="g" format="1">
  <advance width="514"/>
  <unicode hex="0067"/>
  <outline>
    <contour>
      <point x="433" y="530"/>
      <point x="387" y="493"/>
      <point x="367" y="442" type="curve"/>
      <point x="368" y="442" type="line"/>
      <point x="333" y="464"/>
      <point x="292" y="475"/>
      <point x="252" y="475" type="curve"/>
      <point x="154" y="475"/>
      <point x="51" y="401"/>
      <point x="51" y="289" type="curve"/>
      <point x="51" y="230"/>
      <point x="83" y="181"/>
      <point x="133" y="153" type="curve"/>
      <point x="85" y="139"/>
      <point x="52" y="98"/>
      <point x="52" y="57" type="curve"/>
      <point x="52" y="21"/>
      <point x="73" y="-2"/>
      <point x="106" y="-16" type="curve"/>
      <point x="70" y="-34"/>
      <point x="31" y="-72"/>
      <point x="31" y="-124" type="curve"/>
      <point x="31" y="-189"/>
      <point x="96" y="-252"/>
      <point x="267" y="-252" type="curve"/>
      <point x="378" y="-252"/>
      <point x="500" y="-197"/>
      <point x="500" y="-95" type="curve"/>
      <point x="500" y="8"/>
      <point x="410" y="41"/>
      <point x="266" y="48" type="curve"/>
      <point x="182" y="51"/>
      <point x="132" y="55"/>
      <point x="124" y="80" type="curve"/>
      <point x="116" y="105"/>
      <point x="145" y="128"/>
      <point x="190" y="128" type="curve"/>
      <point x="213" y="128"/>
      <point x="228" y="123"/>
      <point x="252" y="123" type="curve"/>
      <point x="357" y="123"/>
      <point x="453" y="199"/>
      <point x="453" y="305" type="curve"/>
      <point x="453" y="347"/>
      <point x="433" y="387"/>
      <point x="403" y="415" type="curve"/>
      <point x="411" y="439"/>
      <point x="424" y="461"/>
      <point x="450" y="466" type="curve"/>
      <point x="448" y="466" type="line"/>
      <point x="454" y="449"/>
      <point x="469" y="435"/>
      <point x="491" y="435" type="curve"/>
      <point x="523" y="434"/>
      <point x="535" y="464"/>
      <point x="535" y="478" type="curve"/>
      <point x="535" y="509"/>
      <point x="515" y="530"/>
      <point x="481" y="530" type="curve"/>
    </contour>
    <contour>
      <point x="163" y="-29" type="line"/>
      <point x="192" y="-33"/>
      <point x="225" y="-35"/>
      <point x="257" y="-36" type="curve"/>
      <point x="360" y="-39"/>
      <point x="430" y="-51"/>
      <point x="430" y="-114" type="curve"/>
      <point x="430" y="-162"/>
      <point x="371" y="-205"/>
      <point x="266" y="-205" type="curve"/>
      <point x="173" y="-205"/>
      <point x="114" y="-169"/>
      <point x="114" y="-113" type="curve"/>
      <point x="114" y="-79"/>
      <point x="131" y="-51"/>
      <point x="163" y="-29" type="curve"/>
    </contour>
    <contour>
      <point x="318" y="431"/>
      <point x="352" y="364"/>
      <point x="352" y="286" type="curve"/>
      <point x="352" y="217"/>
      <point x="321" y="168"/>
      <point x="255" y="168" type="curve"/>
      <point x="187" y="168"/>
      <point x="150" y="224"/>
      <point x="150" y="309" type="curve"/>
      <point x="150" y="380"/>
      <point x="186" y="431"/>
      <point x="250" y="431" type="curve"/>
    </contour>
    <contour>
      <point x="248" y="455" type="move" name="top"/>
    </contour>
  </outline>
</glyph>
<glyph name="h" format="1">
  <advance width="560"/>
  <unicode hex="0068"/>
  <outline>
    <contour>
      <point x="141" y="692" type="line"/>
      <point x="141" y="692" type="line"/>
      <point x="127" y="680"/>
      <point x="109" y="668"/>
      <point x="22" y="668" type="curve"/>
      <point x="21" y="668" type="line"/>
      <point x="21" y="618" type="line"/>
      <point x="87" y="621" type="line"/>
      <point x="86" y="621" type="line"/>
      <point x="84" y="600"/>
      <point x="84" y="585"/>
      <point x="84" y="568" type="curve"/>
      <point x="84" y="138" type="line"/>
      <point x="84" y="71"/>
      <point x="85" y="31"/>
      <point x="29" y="33" type="curve"/>
      <point x="28" y="33" type="line"/>
      <point x="28" y="-6" type="line"/>
      <point x="228" y="-6" type="line"/>
      <point x="228" y="43" type="line"/>
      <point x="169" y="41" type="line"/>
      <point x="170" y="41" type="line"/>
      <point x="173" y="59"/>
      <point x="174" y="75"/>
      <point x="174" y="96" type="curve"/>
      <point x="174" y="362" type="line"/>
      <point x="199" y="392"/>
      <point x="246" y="414"/>
      <point x="289" y="415" type="curve"/>
      <point x="360" y="416"/>
      <point x="390" y="367"/>
      <point x="390" y="265" type="curve"/>
      <point x="390" y="138" type="line"/>
      <point x="390" y="71"/>
      <point x="392" y="31"/>
      <point x="336" y="33" type="curve"/>
      <point x="335" y="33" type="line"/>
      <point x="335" y="-6" type="line"/>
      <point x="535" y="-6" type="line"/>
      <point x="535" y="43" type="line"/>
      <point x="476" y="41" type="line"/>
      <point x="477" y="41" type="line"/>
      <point x="480" y="59"/>
      <point x="480" y="75"/>
      <point x="480" y="96" type="curve"/>
      <point x="479" y="265" type="line"/>
      <point x="478" y="407"/>
      <point x="430" y="475"/>
      <point x="321" y="475" type="curve"/>
      <point x="270" y="475"/>
      <point x="213" y="451"/>
      <point x="172" y="419" type="curve"/>
      <point x="174" y="419" type="line"/>
      <point x="174" y="692" type="line"/>
    </contour>
    <contour>
      <point x="280" y="227" type="move" name="center"/>
    </contour>
    <contour>
      <point x="140" y="639" type="move" name="top"/>
    </contour>
  </outline>
</glyph>
<glyph name="i" format="1">
  <advance width="271"/>
  <unicode hex="0069"/>
  <outline>
    <contour>
      <point x="152" y="470" type="line"/>
      <point x="151" y="470" type="line"/>
      <point x="139" y="457"/>
      <point x="123" y="445"/>
      <point x="35" y="445" type="curve"/>
      <point x="34" y="445" type="line"/>
      <point x="34" y="395" type="line"/>
      <point x="100" y="399" type="line"/>
      <point x="98" y="399" type="line"/>
      <point x="96" y="378"/>
      <point x="95" y="363"/>
      <point x="95" y="345" type="curve"/>
      <point x="95" y="138" type="line"/>
      <point x="95" y="71"/>
      <point x="97" y="31"/>
      <point x="42" y="33" type="curve"/>
      <point x="41" y="33" type="line"/>
      <point x="41" y="-6" type="line"/>
      <point x="240" y="-6" type="line"/>
      <point x="240" y="43" type="line"/>
      <point x="182" y="41" type="line"/>
      <point x="183" y="41" type="line"/>
      <point x="186" y="59"/>
      <point x="186" y="75"/>
      <point x="186" y="96" type="curve"/>
      <point x="186" y="470" type="line"/>
    </contour>
    <component base="period" xOffset="26" yOffset="624" xScale="0.92" yScale="0.92"/>
  </outline>
</glyph>
<glyph name="l" format="1">
  <advance width="263"/>
  <unicode hex="006C"/>
  <outline>
    <contour>
      <point x="175" y="692" type="line"/>
      <point x="143" y="692" type="line"/>
      <point x="143" y="692" type="line"/>
      <point x="129" y="680"/>
      <point x="111" y="668"/>
      <point x="24" y="668" type="curve"/>
      <point x="23" y="668" type="line"/>
      <point x="23" y="618" type="line"/>
      <point x="89" y="621" type="line"/>
      <point x="88" y="621" type="line"/>
      <point x="86" y="600"/>
      <point x="86" y="585"/>
      <point x="86" y="568" type="curve"/>
      <point x="86" y="138" type="line"/>
      <point x="86" y="71"/>
      <point x="88" y="31"/>
      <point x="32" y="33" type="curve"/>
      <point x="31" y="33" type="line"/>
      <point x="31" y="-6" type="line"/>
      <point x="231" y="-6" type="line"/>
      <point x="231" y="43" type="line"/>
      <point x="172" y="41" type="line"/>
      <point x="173" y="41" type="line"/>
      <point x="176" y="59"/>
      <point x="177" y="75"/>
      <point x="177" y="96" type="curve"/>
      <point x="176" y="692" type="line"/>
    </contour>
    <contour>
      <point x="131" y="638" type="move" name="top"/>
    </contour>
    <contour>
      <point x="131" y="0" type="move" name="bottom"/>
    </contour>
    <contour>
      <point x="248" y="455" type="move" name="topright"/>
    </contour>
  </outline>
</glyph>
<glyph name="m" format="1">
  <advance width="829"/>
  <unicode hex="006D"/>
  <outline>
    <contour>
      <point x="539" y="475"/>
      <point x="480" y="449"/>
      <point x="438" y="415" type="curve"/>
      <point x="439" y="415" type="line"/>
      <point x="414" y="452"/>
      <point x="371" y="475"/>
      <point x="310" y="475" type="curve"/>
      <point x="264" y="475"/>
      <point x="214" y="454"/>
      <point x="177" y="425" type="curve"/>
      <point x="179" y="425" type="line"/>
      <point x="178" y="444"/>
      <point x="177" y="459"/>
      <point x="174" y="470" type="curve"/>
      <point x="173" y="470" type="line"/>
      <point x="143" y="470" type="line"/>
      <point x="142" y="470" type="line"/>
      <point x="127" y="457"/>
      <point x="117" y="445"/>
      <point x="29" y="445" type="curve"/>
      <point x="28" y="445" type="line"/>
      <point x="28" y="395" type="line"/>
      <point x="95" y="399" type="line"/>
      <point x="94" y="399" type="line"/>
      <point x="91" y="380"/>
      <point x="91" y="363"/>
      <point x="91" y="345" type="curve"/>
      <point x="91" y="138" type="line"/>
      <point x="91" y="71"/>
      <point x="93" y="31"/>
      <point x="38" y="33" type="curve"/>
      <point x="37" y="33" type="line"/>
      <point x="37" y="-6" type="line"/>
      <point x="235" y="-6" type="line"/>
      <point x="235" y="43" type="line"/>
      <point x="177" y="41" type="line"/>
      <point x="178" y="41" type="line"/>
      <point x="180" y="59"/>
      <point x="180" y="75"/>
      <point x="180" y="96" type="curve"/>
      <point x="180" y="330" type="line"/>
      <point x="180" y="347"/>
      <point x="180" y="363"/>
      <point x="180" y="376" type="curve"/>
      <point x="205" y="400"/>
      <point x="241" y="417"/>
      <point x="278" y="417" type="curve"/>
      <point x="349" y="418"/>
      <point x="376" y="367"/>
      <point x="375" y="265" type="curve"/>
      <point x="374" y="138" type="line"/>
      <point x="374" y="71"/>
      <point x="376" y="31"/>
      <point x="321" y="33" type="curve"/>
      <point x="320" y="33" type="line"/>
      <point x="320" y="-6" type="line"/>
      <point x="519" y="-6" type="line"/>
      <point x="519" y="43" type="line"/>
      <point x="461" y="41" type="line"/>
      <point x="462" y="41" type="line"/>
      <point x="465" y="59"/>
      <point x="465" y="75"/>
      <point x="465" y="96" type="curve"/>
      <point x="466" y="310" type="line"/>
      <point x="466" y="333"/>
      <point x="464" y="354"/>
      <point x="458" y="374" type="curve"/>
      <point x="485" y="398"/>
      <point x="523" y="415"/>
      <point x="560" y="415" type="curve"/>
      <point x="631" y="416"/>
      <point x="660" y="367"/>
      <point x="660" y="265" type="curve"/>
      <point x="660" y="138" type="line"/>
      <point x="660" y="71"/>
      <point x="662" y="31"/>
      <point x="607" y="33" type="curve"/>
      <point x="606" y="33" type="line"/>
      <point x="606" y="-6" type="line"/>
      <point x="805" y="-6" type="line"/>
      <point x="805" y="43" type="line"/>
      <point x="747" y="41" type="line"/>
      <point x="748" y="41" type="line"/>
      <point x="751" y="59"/>
      <point x="751" y="75"/>
      <point x="751" y="96" type="curve"/>
      <point x="752" y="265" type="line"/>
      <point x="754" y="411"/>
      <point x="701" y="475"/>
      <point x="591" y="475" type="curve"/>
    </contour>
  </outline>
</glyph>
<glyph name="n" format="1">
  <advance width="564"/>
  <unicode hex="006E"/>
  <outline>
    <contour>
      <point x="275" y="476"/>
      <point x="220" y="452"/>
      <point x="179" y="417" type="curve"/>
      <point x="179" y="415" type="line"/>
      <point x="178" y="439"/>
      <point x="177" y="455"/>
      <point x="174" y="469" type="curve"/>
      <point x="174" y="471" type="line"/>
      <point x="144" y="471" type="line"/>
      <point x="144" y="470" type="line"/>
      <point x="131" y="458"/>
      <point x="119" y="446"/>
      <point x="32" y="446" type="curve"/>
      <point x="32" y="443" type="line"/>
      <point x="32" y="394" type="line"/>
      <point x="97" y="398" type="line"/>
      <point x="97" y="401" type="line"/>
      <point x="94" y="381"/>
      <point x="94" y="363"/>
      <point x="94" y="345" type="curve"/>
      <point x="93" y="145" type="line"/>
      <point x="92" y="79"/>
      <point x="95" y="39"/>
      <point x="39" y="41" type="curve"/>
      <point x="39" y="38" type="line"/>
      <point x="39" y="0" type="line"/>
      <point x="234" y="0" type="line"/>
      <point x="234" y="51" type="line"/>
      <point x="177" y="49" type="line"/>
      <point x="177" y="46" type="line"/>
      <point x="179" y="64"/>
      <point x="179" y="81"/>
      <point x="179" y="103" type="curve"/>
      <point x="180" y="328" type="line"/>
      <point x="180" y="340"/>
      <point x="180" y="353"/>
      <point x="179" y="362" type="curve"/>
      <point x="179" y="360" type="line"/>
      <point x="206" y="391"/>
      <point x="251" y="415"/>
      <point x="295" y="416" type="curve"/>
      <point x="369" y="417"/>
      <point x="397" y="367"/>
      <point x="398" y="265" type="curve"/>
      <point x="398" y="145" type="line"/>
      <point x="398" y="79"/>
      <point x="400" y="39"/>
      <point x="344" y="41" type="curve"/>
      <point x="344" y="38" type="line"/>
      <point x="344" y="0" type="line"/>
      <point x="539" y="0" type="line"/>
      <point x="539" y="51" type="line"/>
      <point x="482" y="49" type="line"/>
      <point x="482" y="46" type="line"/>
      <point x="485" y="64"/>
      <point x="485" y="81"/>
      <point x="485" y="103" type="curve"/>
      <point x="485" y="265" type="line"/>
      <point x="485" y="409"/>
      <point x="434" y="476"/>
      <point x="327" y="476" type="curve"/>
    </contour>
    <contour>
      <point x="297" y="455" type="move" name="top"/>
    </contour>
    <contour>
      <point x="283" y="0" type="move" name="bottom"/>
    </contour>
  </outline>
</glyph>
<glyph name="q" format="1">
  <advance width="539"/>
  <unicode hex="0071"/>
  <outline>
    <contour>
      <point x="148" y="475"/>
      <point x="37" y="372"/>
      <point x="37" y="217" type="curve"/>
      <point x="37" y="73"/>
      <point x="133" y="-21"/>
      <point x="251" y="-21" type="curve"/>
      <point x="306" y="-21"/>
      <point x="353" y="-2"/>
      <point x="386" y="31" type="curve"/>
      <point x="384" y="31" type="line"/>
      <point x="384" y="-94" type="line"/>
      <point x="384" y="-161"/>
      <point x="386" y="-201"/>
      <point x="331" y="-199" type="curve"/>
      <point x="330" y="-199" type="line"/>
      <point x="330" y="-238" type="line"/>
      <point x="529" y="-238" type="line"/>
      <point x="529" y="-189" type="line"/>
      <point x="471" y="-191" type="line"/>
      <point x="472" y="-191" type="line"/>
      <point x="475" y="-173"/>
      <point x="475" y="-157"/>
      <point x="475" y="-135" type="curve"/>
      <point x="474" y="470" type="line"/>
      <point x="473" y="470" type="line"/>
      <point x="442" y="470" type="line"/>
      <point x="442" y="470" type="line"/>
      <point x="439" y="468" type="line"/>
      <point x="409" y="435"/>
      <point x="358" y="475"/>
      <point x="281" y="475" type="curve"/>
    </contour>
    <contour>
      <point x="361" y="429"/>
      <point x="384" y="397"/>
      <point x="384" y="326" type="curve"/>
      <point x="384" y="90" type="line"/>
      <point x="361" y="58"/>
      <point x="323" y="36"/>
      <point x="284" y="36" type="curve"/>
      <point x="195" y="36"/>
      <point x="144" y="125"/>
      <point x="144" y="239" type="curve"/>
      <point x="144" y="354"/>
      <point x="196" y="429"/>
      <point x="283" y="429" type="curve"/>
    </contour>
  </outline>
</glyph>
<glyph name="s" format="1">
  <advance width="440"/>
  <unicode hex="0073"/>
  <outline>
    <contour>
      <point x="84" y="475"/>
      <point x="49" y="389"/>
      <point x="49" y="337" type="curve"/>
      <point x="49" y="167"/>
      <point x="317" y="202"/>
      <point x="317" y="93" type="curve"/>
      <point x="317" y="48"/>
      <point x="266" y="27"/>
      <point x="220" y="27" type="curve"/>
      <point x="149" y="27"/>
      <point x="88" y="81"/>
      <point x="89" y="156" type="curve"/>
      <point x="88" y="156" type="line"/>
      <point x="50" y="156" type="line"/>
      <point x="49" y="156" type="line"/>
      <point x="55" y="-12" type="line"/>
      <point x="56" y="-12" type="line"/>
      <point x="104" y="-12" type="line"/>
      <point x="105" y="-12" type="line"/>
      <point x="101" y="15" type="line"/>
      <point x="100" y="15" type="line"/>
      <point x="131" y="-4"/>
      <point x="179" y="-21"/>
      <point x="237" y="-21" type="curve"/>
      <point x="317" y="-21"/>
      <point x="403" y="23"/>
      <point x="403" y="119" type="curve"/>
      <point x="403" y="282"/>
      <point x="132" y="255"/>
      <point x="132" y="366" type="curve"/>
      <point x="132" y="400"/>
      <point x="162" y="429"/>
      <point x="217" y="429" type="curve"/>
      <point x="296" y="429"/>
      <point x="328" y="362"/>
      <point x="331" y="299" type="curve"/>
      <point x="332" y="299" type="line"/>
      <point x="370" y="299" type="line"/>
      <point x="370" y="471" type="line"/>
      <point x="322" y="471" type="line"/>
      <point x="321" y="471" type="line"/>
      <point x="323" y="440" type="line"/>
      <point x="324" y="440" type="line"/>
      <point x="286" y="467"/>
      <point x="245" y="475"/>
      <point x="213" y="475" type="curve"/>
    </contour>
    <contour>
      <point x="228" y="455" type="move" name="top"/>
    </contour>
    <contour>
      <point x="264" y="0" type="move" name="bottom"/>
    </contour>
  </outline>
</glyph>
<glyph name="t" format="1">
  <advance width="366"/>
  <unicode hex="0074"/>
  <outline>
    <contour>
      <point x="141" y="588" type="line"/>
      <point x="125" y="536"/>
      <point x="86" y="458"/>
      <point x="18" y="461" type="curve"/>
      <point x="18" y="409" type="line"/>
      <point x="89" y="410" type="line"/>
      <point x="87" y="153" type="line"/>
      <point x="86" y="2"/>
      <point x="162" y="-21"/>
      <point x="219" y="-21" type="curve"/>
      <point x="250" y="-21"/>
      <point x="308" y="-13"/>
      <point x="366" y="73" type="curve"/>
      <point x="333" y="99" type="line"/>
      <point x="331" y="99" type="line"/>
      <point x="309" y="63"/>
      <point x="276" y="43"/>
      <point x="244" y="43" type="curve"/>
      <point x="193" y="43"/>
      <point x="179" y="83"/>
      <point x="179" y="165" type="curve"/>
      <point x="181" y="411" type="line"/>
      <point x="336" y="413" type="line"/>
      <point x="336" y="461" type="line"/>
      <point x="180" y="461" type="line"/>
      <point x="182" y="527"/>
      <point x="181" y="507"/>
      <point x="181" y="588" type="curve"/>
    </contour>
    <contour>
      <point x="183" y="227" type="move" name="center"/>
    </contour>
    <contour>
      <point x="238" y="0" type="move" name="bottom"/>
    </contour>
  </outline>
</glyph>
<glyph name="u" format="1">
  <advance width="558"/>
  <unicode hex="0075"/>
  <outline>
    <contour>
      <point x="471" y="470" type="line"/>
      <point x="438" y="470" type="line"/>
      <point x="437" y="470" type="line"/>
      <point x="425" y="457"/>
      <point x="408" y="445"/>
      <point x="353" y="445" type="curve"/>
      <point x="320" y="445" type="line"/>
      <point x="320" y="396" type="line"/>
      <point x="386" y="399" type="line"/>
      <point x="385" y="399" type="line"/>
      <point x="382" y="380"/>
      <point x="381" y="362"/>
      <point x="381" y="335" type="curve"/>
      <point x="381" y="104" type="line"/>
      <point x="356" y="69"/>
      <point x="313" y="39"/>
      <point x="268" y="38" type="curve"/>
      <point x="197" y="37"/>
      <point x="173" y="84"/>
      <point x="173" y="186" type="curve"/>
      <point x="173" y="470" type="line"/>
      <point x="139" y="470" type="line"/>
      <point x="138" y="470" type="line"/>
      <point x="126" y="457"/>
      <point x="109" y="445"/>
      <point x="55" y="445" type="curve"/>
      <point x="21" y="445" type="line"/>
      <point x="21" y="396" type="line"/>
      <point x="84" y="399" type="line"/>
      <point x="83" y="399" type="line"/>
      <point x="81" y="380"/>
      <point x="81" y="363"/>
      <point x="81" y="345" type="curve"/>
      <point x="81" y="184" type="line"/>
      <point x="81" y="31"/>
      <point x="135" y="-21"/>
      <point x="238" y="-21" type="curve"/>
      <point x="290" y="-21"/>
      <point x="348" y="9"/>
      <point x="387" y="45" type="curve"/>
      <point x="385" y="45" type="line"/>
      <point x="386" y="29"/>
      <point x="388" y="13"/>
      <point x="392" y="-6" type="curve"/>
      <point x="393" y="-6" type="line"/>
      <point x="533" y="-6" type="line"/>
      <point x="534" y="-6" type="line"/>
      <point x="534" y="44" type="line"/>
      <point x="466" y="41" type="line"/>
      <point x="467" y="41" type="line"/>
      <point x="470" y="66"/>
      <point x="471" y="103"/>
      <point x="471" y="120" type="curve"/>
      <point x="472" y="470" type="line"/>
    </contour>
    <contour>
      <point x="527" y="0" type="move" name="ogonek"/>
    </contour>
    <contour>
      <point x="267" y="455" type="move" name="top"/>
    </contour>
  </outline>
</glyph>
<glyph name="v" format="1">
  <advance width="470"/>
  <unicode hex="0076"/>
  <outline>
    <contour>
      <point x="316" y="461" type="line"/>
      <point x="316" y="411" type="line"/>
      <point x="371" y="414" type="line"/>
      <point x="370" y="414" type="line"/>
      <point x="364" y="401"/>
      <point x="355" y="382"/>
      <point x="347" y="359" type="curve"/>
      <point x="273" y="160" type="line"/>
      <point x="267" y="142"/>
      <point x="259" y="122"/>
      <point x="253" y="105" type="curve"/>
      <point x="254" y="105" type="line"/>
      <point x="258" y="105" type="line"/>
      <point x="259" y="105" type="line"/>
      <point x="250" y="128"/>
      <point x="241" y="149"/>
      <point x="233" y="168" type="curve"/>
      <point x="161" y="328" type="line"/>
      <point x="137" y="383"/>
      <point x="127" y="423"/>
      <point x="182" y="421" type="curve"/>
      <point x="183" y="421" type="line"/>
      <point x="183" y="461" type="line"/>
      <point x="1" y="461" type="line"/>
      <point x="1" y="411" type="line"/>
      <point x="44" y="414" type="line"/>
      <point x="42" y="414" type="line"/>
      <point x="44" y="391"/>
      <point x="53" y="355"/>
      <point x="81" y="292" type="curve"/>
      <point x="216" y="-9" type="line"/>
      <point x="217" y="-9" type="line"/>
      <point x="258" y="-9" type="line"/>
      <point x="259" y="-9" type="line"/>
      <point x="382" y="303" type="line"/>
      <point x="415" y="386"/>
      <point x="430" y="423"/>
      <point x="471" y="421" type="curve"/>
      <point x="472" y="421" type="line"/>
      <point x="472" y="461" type="line"/>
    </contour>
  </outline>
</glyph>
<glyph name="x" format="1">
  <advance width="495"/>
  <unicode hex="0078"/>
  <outline>
    <contour>
      <point x="307" y="461" type="line"/>
      <point x="307" y="411" type="line"/>
      <point x="363" y="414" type="line"/>
      <point x="362" y="414" type="line"/>
      <point x="353" y="404"/>
      <point x="344" y="393"/>
      <point x="331" y="377" type="curve"/>
      <point x="250" y="282" type="line"/>
      <point x="200" y="349" type="line"/>
      <point x="156" y="407"/>
      <point x="164" y="420"/>
      <point x="217" y="421" type="curve"/>
      <point x="218" y="421" type="line"/>
      <point x="218" y="461" type="line"/>
      <point x="17" y="461" type="line"/>
      <point x="17" y="411" type="line"/>
      <point x="64" y="413" type="line"/>
      <point x="63" y="413" type="line"/>
      <point x="70" y="396"/>
      <point x="82" y="372"/>
      <point x="109" y="336" type="curve"/>
      <point x="126" y="314"/>
      <point x="171" y="255"/>
      <point x="198" y="219" type="curve"/>
      <point x="108" y="105" type="line"/>
      <point x="74" y="60"/>
      <point x="59" y="40"/>
      <point x="20" y="32" type="curve"/>
      <point x="20" y="32" type="line"/>
      <point x="20" y="-6" type="line"/>
      <point x="186" y="-6" type="line"/>
      <point x="186" y="43" type="line"/>
      <point x="122" y="41" type="line"/>
      <point x="123" y="41" type="line"/>
      <point x="134" y="54"/>
      <point x="141" y="62"/>
      <point x="155" y="81" type="curve"/>
      <point x="230" y="181" type="line"/>
      <point x="323" y="68" type="line"/>
      <point x="346" y="40"/>
      <point x="332" y="32"/>
      <point x="300" y="33" type="curve"/>
      <point x="299" y="33" type="line"/>
      <point x="299" y="-6" type="line"/>
      <point x="489" y="-6" type="line"/>
      <point x="489" y="43" type="line"/>
      <point x="443" y="41" type="line"/>
      <point x="444" y="41" type="line"/>
      <point x="430" y="62"/>
      <point x="418" y="78"/>
      <point x="405" y="95" type="curve"/>
      <point x="281" y="246" type="line"/>
      <point x="349" y="326" type="line"/>
      <point x="400" y="386"/>
      <point x="417" y="408"/>
      <point x="469" y="422" type="curve"/>
      <point x="469" y="422" type="line"/>
      <point x="469" y="461" type="line"/>
    </contour>
  </outline>
</glyph>
<glyph name="y" format="1">
  <advance width="490"/>
  <unicode hex="0079"/>
  <outline>
    <contour>
      <point x="336" y="461" type="line"/>
      <point x="336" y="411" type="line"/>
      <point x="393" y="414" type="line"/>
      <point x="392" y="414" type="line"/>
      <point x="380" y="394"/>
      <point x="365" y="354"/>
      <point x="354" y="322" type="curve"/>
      <point x="329" y="250"/>
      <point x="305" y="177"/>
      <point x="278" y="103" type="curve"/>
      <point x="280" y="103" type="line"/>
      <point x="175" y="323" type="line"/>
      <point x="143" y="391"/>
      <point x="145" y="418"/>
      <point x="192" y="421" type="curve"/>
      <point x="201" y="421" type="line"/>
      <point x="201" y="461" type="line"/>
      <point x="-1" y="461" type="line"/>
      <point x="-1" y="411" type="line"/>
      <point x="45" y="413" type="line"/>
      <point x="44" y="413" type="line"/>
      <point x="50" y="392"/>
      <point x="63" y="355"/>
      <point x="92" y="292" type="curve"/>
      <point x="236" y="-10" type="line"/>
      <point x="210" y="-83"/>
      <point x="188" y="-136"/>
      <point x="173" y="-162" type="curve"/>
      <point x="157" y="-188"/>
      <point x="139" y="-198"/>
      <point x="125" y="-195" type="curve"/>
      <point x="125" y="-195" type="line"/>
      <point x="126" y="-191"/>
      <point x="126" y="-188"/>
      <point x="126" y="-186" type="curve"/>
      <point x="126" y="-171"/>
      <point x="116" y="-140"/>
      <point x="83" y="-141" type="curve"/>
      <point x="56" y="-141"/>
      <point x="38" y="-167"/>
      <point x="38" y="-191" type="curve"/>
      <point x="38" y="-232"/>
      <point x="74" y="-252"/>
      <point x="112" y="-252" type="curve"/>
      <point x="198" y="-252"/>
      <point x="233" y="-163"/>
      <point x="289" y="-10" type="curve"/>
      <point x="405" y="307" type="line"/>
      <point x="429" y="370"/>
      <point x="444" y="406"/>
      <point x="490" y="422" type="curve"/>
      <point x="491" y="422" type="line"/>
      <point x="491" y="461" type="line"/>
    </contour>
    <contour>
      <point x="266" y="455" type="move" name="top"/>
    </contour>
  </outline>
</glyph>
<glyph name="z" format="1">
  <advance width="482"/>
  <unicode hex="007A"/>
  <outline>
    <contour>
      <point x="62" y="461" type="line"/>
      <point x="61" y="461" type="line"/>
      <point x="49" y="286" type="line"/>
      <point x="50" y="286" type="line"/>
      <point x="86" y="286" type="line"/>
      <point x="87" y="286" type="line"/>
      <point x="97" y="358"/>
      <point x="111" y="413"/>
      <point x="178" y="414" type="curve"/>
      <point x="337" y="417" type="line"/>
      <point x="337" y="417" type="line"/>
      <point x="324" y="404"/>
      <point x="309" y="385"/>
      <point x="295" y="368" type="curve"/>
      <point x="36" y="40" type="line"/>
      <point x="36" y="-6" type="line"/>
      <point x="429" y="-6" type="line"/>
      <point x="430" y="-6" type="line"/>
      <point x="442" y="171" type="line"/>
      <point x="441" y="171" type="line"/>
      <point x="406" y="171" type="line"/>
      <point x="405" y="171" type="line"/>
      <point x="395" y="97"/>
      <point x="374" y="40"/>
      <point x="298" y="41" type="curve"/>
      <point x="134" y="43" type="line"/>
      <point x="135" y="43" type="line"/>
      <point x="151" y="57"/>
      <point x="159" y="68"/>
      <point x="172" y="84" type="curve"/>
      <point x="435" y="422" type="line"/>
      <point x="435" y="461" type="line"/>
    </contour>
    <contour>
      <point x="250" y="455" type="move" name="top"/>
    </contour>
  </outline>
</glyph>
<glyph name="braceleft" format="1">
  <advance width="334"/>
  <unicode hex="007B"/>
  <outline>
    <contour>
      <point x="294" y="766" type="line"/>
      <point x="154.537" y="766"/>
      <point x="111" y="696.979"/>
      <point x="111" y="554" type="curve"/>
      <point x="111" y="494.392"/>
      <point x="121" y="437.392"/>
      <point x="121" y="386" type="curve"/>
      <point x="121" y="320.286"/>
      <point x="101.817" y="295"/>
      <point x="30" y="295" type="curve"/>
      <point x="2" y="295" type="line"/>
      <point x="2" y="231" type="line"/>
      <point x="30" y="231" type="line"/>
      <point x="101.621" y="231"/>
      <point x="121" y="201.931"/>
      <point x="121" y="136" type="curve"/>
      <point x="121" y="84.4248"/>
      <point x="111" y="2.42481"/>
      <point x="111" y="-57" type="curve"/>
      <point x="111" y="-199.798"/>
      <point x="154.36" y="-277"/>
      <point x="294" y="-277" type="curve"/>
      <point x="327" y="-277" type="line"/>
      <point x="327" y="-236.803" type="line"/>
      <point x="222.828" y="-241.805"/>
      <point x="198" y="-185.496"/>
      <point x="198" y="-71" type="curve"/>
      <point x="198" y="-26.4353"/>
      <point x="211" y="77.5647"/>
      <point x="211" y="125" type="curve"/>
      <point x="211" y="209.212"/>
      <point x="155.487" y="254.579"/>
      <point x="99" y="267.053" type="curve"/>
      <point x="99" y="258.941" type="line"/>
      <point x="155.384" y="271.211"/>
      <point x="211" y="312.622"/>
      <point x="211" y="397" type="curve"/>
      <point x="211" y="444.571"/>
      <point x="198" y="523.571"/>
      <point x="198" y="568" type="curve"/>
      <point x="198" y="682.121"/>
      <point x="222.424" y="724.345"/>
      <point x="327" y="719.816" type="curve"/>
      <point x="327" y="766" type="line"/>
    </contour>
  </outline>
</glyph>
<glyph name="bar" format="1">
  <advance width="231"/>
  <unicode hex="007C"/>
  <outline>
    <contour>
      <point x="79" y="760" type="line"/>
      <point x="82" y="-271" type="line"/>
      <point x="150" y="-271" type="line"/>
      <point x="154" y="760" type="line"/>
    </contour>
  </outline>
</glyph>
<glyph name="sterling" format="1">
  <advance width="548"/>
  <unicode hex="00A3"/>
  <outline>
    <contour>
      <point x="188" y="716"/>
      <point x="111" y="630"/>
      <point x="111" y="497" type="curve" smooth="yes"/>
      <point x="111" y="441"/>
      <point x="119" y="398"/>
      <point x="129" y="360" type="curve"/>
      <point x="63" y="360" type="line"/>
      <point x="63" y="312" type="line"/>
      <point x="142" y="312" type="line"/>
      <point x="152" y="276"/>
      <point x="160" y="242"/>
      <point x="160" y="199" type="curve" smooth="yes"/>
      <point x="160" y="162"/>
      <point x="148" y="131"/>
      <point x="134" y="108" type="curve"/>
      <point x="83" y="93"/>
      <point x="47" y="57"/>
      <point x="47" y="21" type="curve" smooth="yes"/>
      <point x="47" y="2"/>
      <point x="61" y="-16"/>
      <point x="84" y="-16" type="curve" smooth="yes"/>
      <point x="117" y="-16"/>
      <point x="148" y="28"/>
      <point x="155" y="79" type="curve"/>
      <point x="160" y="80"/>
      <point x="166" y="80"/>
      <point x="171" y="80" type="curve" smooth="yes"/>
      <point x="261" y="80"/>
      <point x="328" y="-16"/>
      <point x="412" y="-16" type="curve" smooth="yes"/>
      <point x="477" y="-16"/>
      <point x="511" y="44"/>
      <point x="514" y="124" type="curve"/>
      <point x="482" y="124" type="line"/>
      <point x="479" y="81"/>
      <point x="458" y="61"/>
      <point x="429" y="61" type="curve" smooth="yes"/>
      <point x="384" y="61"/>
      <point x="315" y="121"/>
      <point x="229" y="121" type="curve" smooth="yes"/>
      <point x="211" y="121"/>
      <point x="193" y="120"/>
      <point x="177" y="117" type="curve"/>
      <point x="207" y="154"/>
      <point x="229" y="195"/>
      <point x="229" y="238" type="curve" smooth="yes"/>
      <point x="229" y="264"/>
      <point x="226" y="288"/>
      <point x="223" y="312" type="curve"/>
      <point x="366" y="312" type="line"/>
      <point x="366" y="360" type="line"/>
      <point x="214" y="360" type="line"/>
      <point x="204" y="415"/>
      <point x="190" y="469"/>
      <point x="190" y="537" type="curve" smooth="yes"/>
      <point x="190" y="611"/>
      <point x="229" y="678"/>
      <point x="304" y="678" type="curve" smooth="yes"/>
      <point x="351" y="678"/>
      <point x="377" y="655"/>
      <point x="385" y="629" type="curve"/>
      <point x="374" y="617"/>
      <point x="372" y="603"/>
      <point x="372" y="595" type="curve" smooth="yes"/>
      <point x="372" y="580"/>
      <point x="382" y="555"/>
      <point x="412" y="556" type="curve" smooth="yes"/>
      <point x="438" y="557"/>
      <point x="452" y="576"/>
      <point x="452" y="600" type="curve" smooth="yes"/>
      <point x="452" y="646"/>
      <point x="414" y="716"/>
      <point x="296" y="716" type="curve" smooth="yes"/>
    </contour>
  </outline>
</glyph>
<glyph name="section" format="1">
  <advance width="533"/>
  <unicode hex="00A7"/>
  <outline>
    <contour>
      <point x="130" y="760"/>
      <point x="82" y="651"/>
      <point x="84" y="582" type="curve" smooth="yes"/>
      <point x="86" y="535"/>
      <point x="101" y="499"/>
      <point x="126" y="470" type="curve"/>
      <point x="71" y="423"/>
      <point x="38" y="360"/>
      <point x="38" y="304" type="curve" smooth="yes"/>
      <point x="38" y="83"/>
      <point x="380" y="67"/>
      <point x="380" y="-84" type="curve" smooth="yes"/>
      <point x="380" y="-128"/>
      <point x="349" y="-189"/>
      <point x="257" y="-189" type="curve" smooth="yes"/>
      <point x="205" y="-189"/>
      <point x="160" y="-158"/>
      <point x="157" y="-125" type="curve"/>
      <point x="164" y="-116"/>
      <point x="168" y="-101"/>
      <point x="168" y="-94" type="curve" smooth="yes"/>
      <point x="168" y="-72"/>
      <point x="157" y="-48"/>
      <point x="125" y="-49" type="curve" smooth="yes"/>
      <point x="99" y="-49"/>
      <point x="83" y="-75"/>
      <point x="83" y="-100" type="curve" smooth="yes"/>
      <point x="83" y="-160"/>
      <point x="144" y="-228"/>
      <point x="261" y="-228" type="curve" smooth="yes"/>
      <point x="403" y="-228"/>
      <point x="449" y="-117"/>
      <point x="449" y="-53" type="curve" smooth="yes"/>
      <point x="449" y="-6"/>
      <point x="433" y="29"/>
      <point x="408" y="58" type="curve"/>
      <point x="463" y="104"/>
      <point x="496" y="168"/>
      <point x="496" y="225" type="curve" smooth="yes"/>
      <point x="496" y="446"/>
      <point x="153" y="462"/>
      <point x="153" y="613" type="curve" smooth="yes"/>
      <point x="153" y="657"/>
      <point x="184" y="722"/>
      <point x="276" y="722" type="curve" smooth="yes"/>
      <point x="327" y="722"/>
      <point x="367" y="697"/>
      <point x="380" y="664" type="curve"/>
      <point x="371" y="656"/>
      <point x="368" y="638"/>
      <point x="368" y="630" type="curve" smooth="yes"/>
      <point x="368" y="615"/>
      <point x="378" y="588"/>
      <point x="410" y="589" type="curve" smooth="yes"/>
      <point x="436" y="590"/>
      <point x="451" y="611"/>
      <point x="451" y="636" type="curve" smooth="yes"/>
      <point x="451" y="696"/>
      <point x="379" y="760"/>
      <point x="272" y="760" type="curve" smooth="yes"/>
    </contour>
    <contour>
      <point x="247" y="362"/>
      <point x="420" y="331"/>
      <point x="420" y="188" type="curve" smooth="yes"/>
      <point x="420" y="151"/>
      <point x="409" y="110"/>
      <point x="386" y="81" type="curve"/>
      <point x="289" y="166"/>
      <point x="115" y="197"/>
      <point x="115" y="341" type="curve" smooth="yes"/>
      <point x="115" y="377"/>
      <point x="126" y="417"/>
      <point x="149" y="447" type="curve"/>
    </contour>
  </outline>
</glyph>
<glyph name="copyright" format="1">
  <advance width="877"/>
  <unicode hex="00A9"/>
  <outline>
    <contour>
      <point x="210" y="750"/>
      <point x="44" y="569"/>
      <point x="44" y="348" type="curve" smooth="yes"/>
      <point x="44" y="118"/>
      <point x="201" y="-50"/>
      <point x="438" y="-50" type="curve" smooth="yes"/>
      <point x="659" y="-50"/>
      <point x="835" y="129"/>
      <point x="835" y="348" type="curve" smooth="yes"/>
      <point x="835" y="569"/>
      <point x="672" y="750"/>
      <point x="440" y="750" type="curve" smooth="yes"/>
    </contour>
    <contour>
      <point x="286" y="599"/>
      <point x="202" y="464"/>
      <point x="202" y="346" type="curve" smooth="yes"/>
      <point x="202" y="209"/>
      <point x="306" y="102"/>
      <point x="444" y="102" type="curve" smooth="yes"/>
      <point x="501" y="102"/>
      <point x="588" y="123"/>
      <point x="647" y="204" type="curve"/>
      <point x="617" y="239" type="line"/>
      <point x="580" y="193"/>
      <point x="517" y="165"/>
      <point x="473" y="165" type="curve" smooth="yes"/>
      <point x="368" y="165"/>
      <point x="296" y="247"/>
      <point x="296" y="358" type="curve" smooth="yes"/>
      <point x="296" y="481"/>
      <point x="375" y="545"/>
      <point x="451" y="545" type="curve" smooth="yes"/>
      <point x="520" y="545"/>
      <point x="573" y="513"/>
      <point x="584" y="426" type="curve"/>
      <point x="624" y="426" type="line"/>
      <point x="624" y="594" type="line"/>
      <point x="574" y="594" type="line"/>
      <point x="578" y="558" type="line"/>
      <point x="543" y="583"/>
      <point x="496" y="599"/>
      <point x="447" y="599" type="curve" smooth="yes"/>
    </contour>
    <contour>
      <point x="636" y="701"/>
      <point x="769" y="533"/>
      <point x="769" y="348" type="curve" smooth="yes"/>
      <point x="769" y="164"/>
      <point x="640" y="0"/>
      <point x="441" y="0" type="curve" smooth="yes"/>
      <point x="236" y="0"/>
      <point x="111" y="164"/>
      <point x="111" y="348" type="curve" smooth="yes"/>
      <point x="111" y="533"/>
      <point x="242" y="701"/>
      <point x="438" y="701" type="curve" smooth="yes"/>
    </contour>
  </outline>
</glyph>
<glyph name="twosuperior" format="1">
  <advance width="385"/>
  <unicode hex="00B2"/>
  <outline>
    <contour>
      <point x="108.809" y="722"/>
      <point x="63" y="661.277"/>
      <point x="63" y="620" type="curve"/>
      <point x="63" y="600.931"/>
      <point x="75.6209" y="582"/>
      <point x="96" y="582" type="curve"/>
      <point x="121.003" y="580.859"/>
      <point x="131" y="604.602"/>
      <point x="131" y="617" type="curve"/>
      <point x="131" y="625.75"/>
      <point x="128.078" y="635.707"/>
      <point x="122.845" y="641.956" type="curve"/>
      <point x="128.891" y="659.203"/>
      <point x="149.368" y="674"/>
      <point x="179" y="674" type="curve"/>
      <point x="216.884" y="674"/>
      <point x="237" y="648.637"/>
      <point x="237" y="608" type="curve"/>
      <point x="237" y="580.659"/>
      <point x="229.559" y="541.596"/>
      <point x="174.826" y="496.636" type="curve"/>
      <point x="111.636" y="444.657"/>
      <point x="53.3675" y="389.387"/>
      <point x="56.0919" y="300" type="curve"/>
      <point x="321.751" y="300" type="line"/>
      <point x="326.262" y="406" type="line"/>
      <point x="290.764" y="406" type="line"/>
      <point x="294.197" y="360.249"/>
      <point x="260.05" y="364.947"/>
      <point x="200.088" y="365.999" type="curve"/>
      <point x="123.289" y="367.828" type="line"/>
      <point x="132.985" y="392.731"/>
      <point x="157.11" y="418.308"/>
      <point x="198.014" y="449.213" type="curve"/>
      <point x="300.96" y="523.887"/>
      <point x="317" y="568.798"/>
      <point x="317" y="609" type="curve"/>
      <point x="317" y="686.777"/>
      <point x="255.093" y="722"/>
      <point x="192" y="722" type="curve"/>
    </contour>
  </outline>
</glyph>
<glyph name="threesuperior" format="1">
  <advance width="370"/>
  <unicode hex="00B3"/>
  <outline>
    <contour>
      <point x="101.753" y="722"/>
      <point x="59" y="663.214"/>
      <point x="59" y="625" type="curve"/>
      <point x="59" y="604.931"/>
      <point x="71.6209" y="586"/>
      <point x="92" y="586" type="curve"/>
      <point x="117.003" y="584.859"/>
      <point x="127" y="608.602"/>
      <point x="127" y="621" type="curve"/>
      <point x="127" y="628.949"/>
      <point x="124.031" y="638.883"/>
      <point x="118.719" y="645.106" type="curve"/>
      <point x="123.653" y="661.592"/>
      <point x="140.644" y="676.112"/>
      <point x="169.156" y="677.003" type="curve"/>
      <point x="215.862" y="678.871"/>
      <point x="229" y="644.713"/>
      <point x="229" y="613" type="curve"/>
      <point x="229" y="592.342"/>
      <point x="224.555" y="547"/>
      <point x="151" y="547" type="curve"/>
      <point x="135" y="547" type="line"/>
      <point x="135" y="502.51" type="line"/>
      <point x="151" y="504"/>
      <point x="159" y="504"/>
      <point x="166.929" y="504" type="curve"/>
      <point x="233.252" y="503.053"/>
      <point x="245" y="455.158"/>
      <point x="245" y="423" type="curve"/>
      <point x="245" y="383.912"/>
      <point x="221.472" y="345"/>
      <point x="172" y="345" type="curve"/>
      <point x="144.995" y="345"/>
      <point x="118.772" y="354.693"/>
      <point x="113.414" y="375.064" type="curve"/>
      <point x="117.923" y="381.711"/>
      <point x="121" y="391.623"/>
      <point x="121" y="399" type="curve"/>
      <point x="121" y="415.467"/>
      <point x="110.93" y="438.126"/>
      <point x="83.7918" y="436.995" type="curve"/>
      <point x="62.4883" y="437"/>
      <point x="49" y="414.928"/>
      <point x="49" y="395" type="curve"/>
      <point x="49" y="350.43"/>
      <point x="93.0122" y="301.05"/>
      <point x="171.87" y="299.002" type="curve"/>
      <point x="264.713" y="296.961"/>
      <point x="322" y="353.188"/>
      <point x="322" y="423" type="curve"/>
      <point x="322" y="478.07"/>
      <point x="285.938" y="526.661"/>
      <point x="218" y="534.515" type="curve"/>
      <point x="218" y="525.181" type="line"/>
      <point x="273.082" y="540.572"/>
      <point x="302" y="584.709"/>
      <point x="302" y="619" type="curve"/>
      <point x="302" y="681.126"/>
      <point x="252.521" y="722"/>
      <point x="183" y="722" type="curve"/>
    </contour>
  </outline>
</glyph>
<glyph name="acute" format="1">
  <advance width="252"/>
  <unicode hex="00B4"/>
  <outline>
    <component base="grave" xOffset="272" xScale="-1"/>
    <contour>
      <point x="125" y="500" type="move" name="_top"/>
    </contour>
  </outline>
</glyph>
<glyph name="guillemotright" format="1">
  <advance width="530"/>
  <unicode hex="00BB"/>
  <outline>
    <contour>
      <point x="187.599" y="517.51" type="line"/>
      <point x="385" y="276.579" type="line"/>
      <point x="385" y="279.331" type="line"/>
      <point x="185.763" y="23.4587" type="line"/>
      <point x="224.035" y="-14.8129" type="line"/>
      <point x="503" y="270.261" type="line"/>
      <point x="503" y="279.778" type="line"/>
      <point x="227.05" y="555.728" type="line"/>
    </contour>
    <contour>
      <point x="49.7378" y="435.907" type="line"/>
      <point x="171" y="268.79" type="line"/>
      <point x="171" y="271.249" type="line"/>
      <point x="47.6894" y="105.136" type="line"/>
      <point x="87.1196" y="69.4029" type="line"/>
      <point x="290" y="268.185" type="line"/>
      <point x="290" y="276.835" type="line"/>
      <point x="89.1029" y="471.582" type="line"/>
    </contour>
  </outline>
</glyph>
<glyph name="oe" format="1">
  <advance width="883"/>
  <unicode hex="0153"/>
  <outline>
    <contour>
      <point x="563" y="516"/>
      <point x="498" y="470"/>
      <point x="460" y="410" type="curve"/>
      <point x="459" y="410" type="line"/>
      <point x="417" y="478"/>
      <point x="357" y="516"/>
      <point x="277" y="516" type="curve" smooth="yes"/>
      <point x="135" y="516"/>
      <point x="41" y="396"/>
      <point x="41" y="238" type="curve" smooth="yes"/>
      <point x="41" y="90"/>
      <point x="137" y="-16"/>
      <point x="277" y="-16" type="curve" smooth="yes"/>
      <point x="353" y="-16"/>
      <point x="413" y="24"/>
      <point x="452" y="86" type="curve"/>
      <point x="453" y="86" type="line"/>
      <point x="490" y="19"/>
      <point x="560" y="-16"/>
      <point x="638" y="-16" type="curve" smooth="yes"/>
      <point x="706" y="-16"/>
      <point x="789" y="15"/>
      <point x="844" y="98" type="curve"/>
      <point x="819" y="118" type="line"/>
      <point x="786" y="71"/>
      <point x="724" y="35"/>
      <point x="662" y="35" type="curve" smooth="yes"/>
      <point x="549" y="35"/>
      <point x="507" y="135"/>
      <point x="507" y="288" type="curve"/>
      <point x="833" y="294" type="line"/>
      <point x="833" y="443"/>
      <point x="754" y="516"/>
      <point x="643" y="516" type="curve" smooth="yes"/>
    </contour>
    <contour>
      <point x="371" y="478"/>
      <point x="409" y="373"/>
      <point x="414" y="248" type="curve"/>
      <point x="414" y="143"/>
      <point x="394" y="24"/>
      <point x="284" y="24" type="curve" smooth="yes"/>
      <point x="182" y="24"/>
      <point x="143" y="143"/>
      <point x="143" y="267" type="curve" smooth="yes"/>
      <point x="143" y="376"/>
      <point x="178" y="478"/>
      <point x="278" y="478" type="curve" smooth="yes"/>
    </contour>
    <contour>
      <point x="714" y="476"/>
      <point x="737" y="406"/>
      <point x="739" y="330" type="curve"/>
      <point x="510" y="330" type="line"/>
      <point x="524" y="426"/>
      <point x="566" y="479"/>
      <point x="638" y="477" type="curve" smooth="yes"/>
    </contour>
  </outline>
</glyph>
<glyph name="breve" format="1">
  <advance width="363"/>
  <unicode hex="02D8"/>
  <outline>
    <contour>
      <point x="272" y="700"/>
      <point x="229" y="665"/>
      <point x="183" y="665" type="curve" smooth="yes"/>
      <point x="137" y="665"/>
      <point x="94" y="698"/>
      <point x="74" y="735" type="curve"/>
      <point x="45" y="720" type="line"/>
      <point x="70" y="641"/>
      <point x="128" y="604"/>
      <point x="180" y="604" type="curve" smooth="yes"/>
      <point x="242" y="604"/>
      <point x="289" y="645"/>
      <point x="318" y="725" type="curve"/>
      <point x="291" y="737" type="line"/>
    </contour>
    <contour>
      <point x="182" y="500" type="move" name="_top"/>
    </contour>
  </outline>
</glyph>
<glyph name="aadeva" format="1">
  <advance width="937"/>
  <unicode hex="0906"/>
  <outline>
    <component base="adeva"/>
    <component base="uni093E" xOffset="657"/>
    <contour>
      <point x="797" y="570" type="move" name="top"/>
    </contour>
    <contour>
      <point x="589" y="0" type="move" name="bottom"/>
    </contour>
  </outline>
</glyph>
<glyph name="udeva" format="1">
  <advance width="439"/>
  <unicode hex="0909"/>
  <outline>
    <contour>
      <point x="-30" y="570" type="line"/>
      <point x="-2" y="506" type="line"/>
      <point x="469" y="506" type="line"/>
      <point x="441" y="570" type="line"/>
    </contour>
    <contour>
      <point x="63" y="93"/>
      <point x="142" y="8"/>
      <point x="254" y="8" type="curve" smooth="yes"/>
      <point x="353" y="8"/>
      <point x="408" y="74"/>
      <point x="408" y="146" type="curve" smooth="yes"/>
      <point x="408" y="236"/>
      <point x="319" y="339"/>
      <point x="183" y="339" type="curve"/>
      <point x="183" y="313" type="line"/>
      <point x="269" y="313"/>
      <point x="324" y="238"/>
      <point x="324" y="169" type="curve" smooth="yes"/>
      <point x="324" y="110"/>
      <point x="285" y="73"/>
      <point x="227" y="73" type="curve" smooth="yes"/>
      <point x="146" y="73"/>
      <point x="82" y="147"/>
      <point x="39" y="228" type="curve"/>
      <point x="5" y="211" type="line"/>
    </contour>
    <contour>
      <point x="256" y="546" type="line"/>
      <point x="333" y="458"/>
      <point x="340" y="353"/>
      <point x="127" y="337" type="curve"/>
      <point x="145" y="274" type="line"/>
      <point x="202" y="283" type="line" smooth="yes"/>
      <point x="373" y="309"/>
      <point x="405" y="461"/>
      <point x="284" y="560" type="curve"/>
    </contour>
    <contour>
      <point x="269" y="570" type="move" name="top"/>
    </contour>
  </outline>
</glyph>
<glyph name="uudeva" format="1">
  <advance width="580"/>
  <unicode hex="090A"/>
  <outline>
    <contour>
      <point x="-30" y="570" type="line"/>
      <point x="-2" y="506" type="line"/>
      <point x="595" y="506" type="line"/>
      <point x="567" y="570" type="line"/>
    </contour>
    <contour>
      <point x="63" y="93"/>
      <point x="142" y="8"/>
      <point x="254" y="8" type="curve" smooth="yes"/>
      <point x="353" y="8"/>
      <point x="408" y="74"/>
      <point x="408" y="146" type="curve" smooth="yes"/>
      <point x="408" y="236"/>
      <point x="319" y="339"/>
      <point x="183" y="339" type="curve"/>
      <point x="183" y="313" type="line"/>
      <point x="269" y="313"/>
      <point x="324" y="238"/>
      <point x="324" y="169" type="curve" smooth="yes"/>
      <point x="324" y="110"/>
      <point x="285" y="73"/>
      <point x="227" y="73" type="curve" smooth="yes"/>
      <point x="146" y="73"/>
      <point x="82" y="147"/>
      <point x="39" y="228" type="curve"/>
      <point x="5" y="211" type="line"/>
    </contour>
    <contour>
      <point x="256" y="546" type="line"/>
      <point x="333" y="458"/>
      <point x="340" y="373"/>
      <point x="127" y="337" type="curve"/>
      <point x="145" y="274" type="line"/>
      <point x="202" y="283" type="line" smooth="yes"/>
      <point x="373" y="309"/>
      <point x="405" y="461"/>
      <point x="284" y="560" type="curve"/>
    </contour>
    <contour>
      <point x="484" y="367"/>
      <point x="395" y="343"/>
      <point x="326" y="277" type="curve"/>
      <point x="380" y="216" type="line"/>
      <point x="435" y="294"/>
      <point x="497" y="311"/>
      <point x="524" y="291" type="curve" smooth="yes"/>
      <point x="549" y="271"/>
      <point x="541" y="218"/>
      <point x="462" y="153" type="curve"/>
      <point x="516" y="95" type="line"/>
      <point x="606" y="185"/>
      <point x="618" y="283"/>
      <point x="551" y="324" type="curve" smooth="yes"/>
    </contour>
  </outline>
</glyph>
<glyph name="rvocalicdeva" format="1">
  <advance width="777"/>
  <unicode hex="090B"/>
  <outline>
    <contour>
      <point x="82" y="55" type="line"/>
      <point x="140" y="-6" type="line"/>
      <point x="391" y="196" type="line"/>
      <point x="387" y="259" type="line" smooth="yes"/>
    </contour>
    <contour>
      <point x="571" y="196"/>
      <point x="702" y="282"/>
      <point x="702" y="363" type="curve" smooth="yes"/>
      <point x="702" y="403"/>
      <point x="673" y="432"/>
      <point x="631" y="432" type="curve" smooth="yes"/>
      <point x="593" y="432"/>
      <point x="569" y="409"/>
      <point x="569" y="374" type="curve" smooth="yes"/>
      <point x="569" y="354"/>
      <point x="578" y="333"/>
      <point x="604" y="295" type="curve"/>
      <point x="558" y="266"/>
      <point x="498" y="249"/>
      <point x="430" y="249" type="curve"/>
      <point x="430" y="196" type="line"/>
    </contour>
    <contour>
      <point x="606" y="-4" type="line"/>
      <point x="748" y="26"/>
      <point x="774" y="128"/>
      <point x="642" y="307" type="curve"/>
      <point x="612" y="282" type="line"/>
      <point x="694" y="173"/>
      <point x="685" y="93"/>
      <point x="579" y="66" type="curve"/>
    </contour>
    <contour>
      <point x="-30" y="570" type="line"/>
      <point x="-2" y="506" type="line"/>
      <point x="807" y="506" type="line"/>
      <point x="779" y="570" type="line"/>
    </contour>
    <contour>
      <point x="284" y="387"/>
      <point x="192" y="430"/>
      <point x="112" y="430" type="curve" smooth="yes"/>
      <point x="72" y="430"/>
      <point x="34" y="418"/>
      <point x="-2" y="396" type="curve"/>
      <point x="31" y="325" type="line"/>
      <point x="61" y="339"/>
      <point x="96" y="348"/>
      <point x="137" y="348" type="curve" smooth="yes"/>
      <point x="204" y="348"/>
      <point x="285" y="325"/>
      <point x="380" y="266" type="curve"/>
      <point x="404" y="300" type="line"/>
    </contour>
    <component base="stem-deva" xOffset="16"/>
  </outline>
</glyph>
<glyph name="lvocalicdeva" format="1">
  <advance width="685"/>
  <unicode hex="090C"/>
  <note>
    dVocalicL
  </note>
  <outline>
    <contour>
      <point x="538" y="356"/>
      <point x="565" y="290"/>
      <point x="496" y="172" type="curve" smooth="yes"/>
      <point x="452" y="97"/>
      <point x="431" y="24"/>
      <point x="492" y="-32" type="curve" smooth="yes"/>
      <point x="547" y="-83"/>
      <point x="643" y="-85"/>
      <point x="716" y="-2" type="curve"/>
      <point x="671" y="48" type="line"/>
      <point x="609" y="-24"/>
      <point x="557" y="-37"/>
      <point x="531" y="-15" type="curve" smooth="yes"/>
      <point x="505" y="7"/>
      <point x="518" y="53"/>
      <point x="570" y="131" type="curve" smooth="yes"/>
      <point x="646" y="245"/>
      <point x="608" y="408"/>
      <point x="446" y="408" type="curve" smooth="yes"/>
      <point x="356" y="408"/>
      <point x="296" y="337"/>
      <point x="277" y="250" type="curve"/>
      <point x="350" y="224" type="line"/>
      <point x="372" y="320"/>
      <point x="411" y="356"/>
      <point x="461" y="356" type="curve" smooth="yes"/>
    </contour>
    <contour>
      <point x="333" y="346" type="line"/>
      <point x="288" y="389"/>
      <point x="224" y="415"/>
      <point x="167" y="415" type="curve" smooth="yes"/>
      <point x="92" y="415"/>
      <point x="28" y="372"/>
      <point x="28" y="271" type="curve" smooth="yes"/>
      <point x="28" y="156"/>
      <point x="119" y="78"/>
      <point x="238" y="40" type="curve"/>
      <point x="258" y="72" type="line"/>
      <point x="172" y="110"/>
      <point x="115" y="152"/>
      <point x="115" y="237" type="curve" smooth="yes"/>
      <point x="115" y="313"/>
      <point x="156" y="351"/>
      <point x="209" y="351" type="curve" smooth="yes"/>
      <point x="241" y="351"/>
      <point x="278" y="337"/>
      <point x="312" y="308" type="curve"/>
    </contour>
    <contour>
      <point x="-29" y="570" type="line"/>
      <point x="-1" y="506" type="line"/>
      <point x="711" y="506" type="line"/>
      <point x="683" y="570" type="line"/>
    </contour>
    <contour>
      <point x="426" y="506" type="line"/>
      <point x="422" y="479"/>
      <point x="421" y="449"/>
      <point x="421" y="426" type="curve" smooth="yes"/>
      <point x="421" y="370" type="line"/>
      <point x="500" y="366" type="line"/>
      <point x="500" y="506" type="line"/>
    </contour>
    <contour>
      <point x="458" y="570" type="move" name="top"/>
    </contour>
  </outline>
</glyph>
<glyph name="odeva" format="1">
  <advance width="992"/>
  <unicode hex="0913"/>
  <outline>
    <component base="aadeva"/>
    <component base="evowelsigndeva" xOffset="379"/>
    <contour>
      <point x="786" y="570" type="move" name="top"/>
    </contour>
  </outline>
</glyph>
<glyph name="kadeva" format="1">
  <advance width="728"/>
  <unicode hex="0915"/>
  <note>
    dKa
  </note>
  <outline>
    <contour>
      <point x="667" y="125"/>
      <point x="701" y="196"/>
      <point x="701" y="264" type="curve" smooth="yes"/>
      <point x="701" y="374"/>
      <point x="641" y="425"/>
      <point x="571" y="425" type="curve" smooth="yes"/>
      <point x="514" y="425"/>
      <point x="449" y="391"/>
      <point x="405" y="326" type="curve"/>
      <point x="405" y="244" type="line"/>
      <point x="471" y="332"/>
      <point x="540" y="365"/>
      <point x="588" y="365" type="curve" smooth="yes"/>
      <point x="624" y="365"/>
      <point x="648" y="341"/>
      <point x="648" y="290" type="curve" smooth="yes"/>
      <point x="648" y="253"/>
      <point x="617" y="187"/>
      <point x="544" y="149" type="curve"/>
      <point x="599" y="90" type="line"/>
    </contour>
    <contour>
      <point x="325" y="419"/>
      <point x="269" y="443"/>
      <point x="204" y="443" type="curve" smooth="yes"/>
      <point x="119" y="443"/>
      <point x="54" y="401"/>
      <point x="54" y="291" type="curve" smooth="yes"/>
      <point x="54" y="172"/>
      <point x="120" y="115"/>
      <point x="199" y="115" type="curve" smooth="yes"/>
      <point x="270" y="115"/>
      <point x="351" y="160"/>
      <point x="405" y="249" type="curve"/>
      <point x="405" y="342" type="line"/>
      <point x="361" y="246"/>
      <point x="262" y="181"/>
      <point x="190" y="181" type="curve" smooth="yes"/>
      <point x="140" y="181"/>
      <point x="103" y="206"/>
      <point x="103" y="266" type="curve" smooth="yes"/>
      <point x="103" y="340"/>
      <point x="158" y="372"/>
      <point x="230" y="372" type="curve" smooth="yes"/>
      <point x="276" y="372"/>
      <point x="329" y="357"/>
      <point x="379" y="339" type="curve"/>
      <point x="381" y="389" type="line"/>
    </contour>
    <component base="headline-deva"/>
    <component base="stem-deva"/>
    <contour>
      <point x="79" y="0" type="move" name="nukta"/>
    </contour>
    <contour>
      <point x="382" y="0" type="move" name="bottom"/>
    </contour>
    <contour>
      <point x="388" y="570" type="move" name="top"/>
    </contour>
  </outline>
</glyph>
<glyph name="khadeva" format="1">
  <advance width="728"/>
  <unicode hex="0916"/>
  <note>
    dKha
  </note>
  <outline>
    <contour>
      <point x="118" y="513" type="line"/>
      <point x="157" y="420"/>
      <point x="166" y="340"/>
      <point x="145" y="295" type="curve"/>
      <point x="109" y="343"/>
      <point x="30" y="337"/>
      <point x="30" y="259" type="curve" smooth="yes"/>
      <point x="30" y="150"/>
      <point x="118" y="-5"/>
      <point x="329" y="-5" type="curve" smooth="yes"/>
      <point x="403" y="-5"/>
      <point x="484" y="21"/>
      <point x="565" y="79" type="curve"/>
      <point x="565" y="154" type="line"/>
      <point x="481" y="104"/>
      <point x="393" y="75"/>
      <point x="305" y="75" type="curve" smooth="yes"/>
      <point x="214" y="75"/>
      <point x="146" y="97"/>
      <point x="111" y="181" type="curve"/>
      <point x="238" y="188"/>
      <point x="225" y="398"/>
      <point x="177" y="513" type="curve"/>
    </contour>
    <contour>
      <point x="327" y="458"/>
      <point x="273" y="409"/>
      <point x="273" y="332" type="curve" smooth="yes"/>
      <point x="273" y="245"/>
      <point x="355" y="161"/>
      <point x="455" y="161" type="curve" smooth="yes"/>
      <point x="493" y="161"/>
      <point x="528" y="178"/>
      <point x="554" y="192" type="curve"/>
      <point x="554" y="285" type="line"/>
      <point x="516" y="247"/>
      <point x="457" y="221"/>
      <point x="407" y="221" type="curve" smooth="yes"/>
      <point x="357" y="221"/>
      <point x="340" y="258"/>
      <point x="340" y="288" type="curve" smooth="yes"/>
      <point x="340" y="360"/>
      <point x="385" y="391"/>
      <point x="442" y="391" type="curve" smooth="yes"/>
      <point x="478" y="391"/>
      <point x="517" y="379"/>
      <point x="554" y="357" type="curve"/>
      <point x="554" y="407" type="line"/>
      <point x="524" y="424"/>
      <point x="468" y="458"/>
      <point x="408" y="458" type="curve" smooth="yes"/>
    </contour>
    <component base="stem-deva" xOffset="200"/>
    <component base="headline-deva"/>
    <contour>
      <point x="37" y="0" type="move" name="nukta"/>
    </contour>
    <contour>
      <point x="585" y="0" type="move" name="bottom"/>
    </contour>
    <contour>
      <point x="585" y="570" type="move" name="top"/>
    </contour>
  </outline>
</glyph>
<glyph name="ghadeva" format="1">
  <advance width="574"/>
  <unicode hex="0918"/>
  <note>
    dGha
  </note>
  <outline>
    <contour>
      <point x="-30" y="570" type="line"/>
      <point x="-2" y="506" type="line"/>
      <point x="604" y="506" type="line"/>
      <point x="576" y="570" type="line"/>
    </contour>
    <contour>
      <point x="180" y="369"/>
      <point x="100" y="316"/>
      <point x="100" y="230" type="curve" smooth="yes"/>
      <point x="100" y="153"/>
      <point x="165" y="65"/>
      <point x="280" y="71" type="curve" smooth="yes"/>
      <point x="370" y="76"/>
      <point x="441" y="138"/>
      <point x="487" y="203" type="curve"/>
      <point x="427" y="261" type="line"/>
      <point x="382" y="187"/>
      <point x="324" y="138"/>
      <point x="242" y="138" type="curve" smooth="yes"/>
      <point x="180" y="138"/>
      <point x="160" y="166"/>
      <point x="160" y="205" type="curve" smooth="yes"/>
      <point x="160" y="258"/>
      <point x="198" y="295"/>
      <point x="292" y="315" type="curve"/>
      <point x="270" y="387" type="line"/>
    </contour>
    <contour>
      <point x="204" y="564"/>
      <point x="69" y="541"/>
      <point x="69" y="424" type="curve" smooth="yes"/>
      <point x="69" y="369"/>
      <point x="99" y="326"/>
      <point x="160" y="296" type="curve"/>
      <point x="194" y="314" type="line"/>
      <point x="153" y="340"/>
      <point x="134" y="371"/>
      <point x="134" y="400" type="curve" smooth="yes"/>
      <point x="134" y="461"/>
      <point x="179" y="504"/>
      <point x="285" y="506" type="curve"/>
      <point x="284" y="564" type="line"/>
    </contour>
    <component base="stem-deva" xOffset="79"/>
    <contour>
      <point x="116" y="0" type="move" name="nukta"/>
    </contour>
    <contour>
      <point x="468" y="0" type="move" name="bottom"/>
    </contour>
    <contour>
      <point x="468" y="570" type="move" name="top"/>
    </contour>
  </outline>
</glyph>
<glyph name="ngadeva" format="1">
  <advance width="594"/>
  <unicode hex="0919"/>
  <note>
    dNga
  </note>
  <outline>
    <contour>
      <point x="-30" y="570" type="line"/>
      <point x="-2" y="506" type="line"/>
      <point x="624" y="506" type="line"/>
      <point x="596" y="570" type="line"/>
    </contour>
    <contour>
      <point x="465" y="354"/>
      <point x="465" y="329"/>
      <point x="494" y="300" type="curve" smooth="yes"/>
      <point x="523" y="271"/>
      <point x="548" y="271"/>
      <point x="574" y="297" type="curve" smooth="yes"/>
      <point x="599" y="322"/>
      <point x="602" y="346"/>
      <point x="571" y="377" type="curve" smooth="yes"/>
      <point x="542" y="406"/>
      <point x="516" y="405"/>
      <point x="491" y="380" type="curve" smooth="yes"/>
    </contour>
    <contour>
      <point x="341" y="506" type="line"/>
      <point x="337" y="479"/>
      <point x="336" y="469"/>
      <point x="336" y="446" type="curve" smooth="yes"/>
      <point x="336" y="410" type="line"/>
      <point x="415" y="387" type="line"/>
      <point x="415" y="506" type="line"/>
    </contour>
    <contour>
      <point x="32" y="162" type="line"/>
      <point x="86" y="75"/>
      <point x="197" y="-16"/>
      <point x="314" y="-16" type="curve" smooth="yes"/>
      <point x="420" y="-16"/>
      <point x="455" y="76"/>
      <point x="454" y="140" type="curve" smooth="yes"/>
      <point x="453" y="218"/>
      <point x="410" y="295"/>
      <point x="348" y="295" type="curve" smooth="yes"/>
      <point x="294" y="295"/>
      <point x="234" y="264"/>
      <point x="195" y="264" type="curve" smooth="yes"/>
      <point x="171" y="264"/>
      <point x="153" y="292"/>
      <point x="153" y="324" type="curve" smooth="yes"/>
      <point x="153" y="360"/>
      <point x="175" y="380"/>
      <point x="237" y="382" type="curve" smooth="yes"/>
      <point x="415" y="387" type="line"/>
      <point x="369" y="441" type="line"/>
      <point x="208" y="445" type="line" smooth="yes"/>
      <point x="140" y="447"/>
      <point x="92" y="417"/>
      <point x="94" y="349" type="curve" smooth="yes"/>
      <point x="96" y="287"/>
      <point x="137" y="224"/>
      <point x="184" y="204" type="curve" smooth="yes"/>
      <point x="280" y="165"/>
      <point x="405" y="264"/>
      <point x="405" y="171" type="curve" smooth="yes"/>
      <point x="405" y="133"/>
      <point x="370" y="59"/>
      <point x="273" y="60" type="curve" smooth="yes"/>
      <point x="211" y="61"/>
      <point x="133" y="98"/>
      <point x="64" y="184" type="curve"/>
    </contour>
    <contour>
      <point x="35" y="-39" type="move" name="nukta"/>
    </contour>
    <contour>
      <point x="297" y="1" type="move" name="bottom"/>
    </contour>
    <contour>
      <point x="382" y="570" type="move" name="top"/>
    </contour>
  </outline>
</glyph>
<glyph name="cadeva" format="1">
  <advance width="594"/>
  <unicode hex="091A"/>
  <note>
    dCa
  </note>
  <outline>
    <contour>
      <point x="-30" y="570" type="line"/>
      <point x="-2" y="506" type="line"/>
      <point x="624" y="506" type="line"/>
      <point x="596" y="570" type="line"/>
    </contour>
    <contour>
      <point x="204" y="371"/>
      <point x="111" y="303"/>
      <point x="111" y="219" type="curve" smooth="yes"/>
      <point x="111" y="142"/>
      <point x="188" y="82"/>
      <point x="285" y="82" type="curve" smooth="yes"/>
      <point x="345" y="82"/>
      <point x="379" y="105"/>
      <point x="427" y="136" type="curve"/>
      <point x="427" y="266" type="line"/>
      <point x="379" y="168"/>
      <point x="314" y="133"/>
      <point x="256" y="133" type="curve" smooth="yes"/>
      <point x="208" y="133"/>
      <point x="185" y="163"/>
      <point x="185" y="200" type="curve" smooth="yes"/>
      <point x="185" y="260"/>
      <point x="243" y="338"/>
      <point x="371" y="344" type="curve"/>
      <point x="353" y="371" type="line"/>
    </contour>
    <contour>
      <point x="55" y="402" type="line"/>
      <point x="83" y="338" type="line"/>
      <point x="371" y="344" type="line"/>
      <point x="344" y="402" type="line"/>
    </contour>
    <component base="stem-deva" xOffset="70"/>
    <contour>
      <point x="111" y="0" type="move" name="nukta"/>
    </contour>
    <contour>
      <point x="456" y="0" type="move" name="bottom"/>
    </contour>
    <contour>
      <point x="456" y="570" type="move" name="top"/>
    </contour>
  </outline>
</glyph>
<glyph name="chadeva" format="1">
  <advance width="644"/>
  <unicode hex="091B"/>
  <note>
    dCha
  </note>
  <outline>
    <contour>
      <point x="412" y="414"/>
      <point x="363" y="379"/>
      <point x="363" y="314" type="curve" smooth="yes"/>
      <point x="363" y="218"/>
      <point x="464" y="161"/>
      <point x="560" y="134" type="curve"/>
      <point x="575" y="164" type="line"/>
      <point x="483" y="207"/>
      <point x="446" y="256"/>
      <point x="446" y="311" type="curve" smooth="yes"/>
      <point x="446" y="351"/>
      <point x="465" y="369"/>
      <point x="492" y="369" type="curve" smooth="yes"/>
      <point x="530" y="369"/>
      <point x="564" y="333"/>
      <point x="564" y="260" type="curve" smooth="yes"/>
      <point x="564" y="122"/>
      <point x="407" y="36"/>
      <point x="288" y="36" type="curve" smooth="yes"/>
      <point x="215" y="36"/>
      <point x="161" y="65"/>
      <point x="161" y="145" type="curve" smooth="yes"/>
      <point x="161" y="215"/>
      <point x="217" y="246"/>
      <point x="312" y="225" type="curve"/>
      <point x="303" y="283" type="line"/>
      <point x="197" y="314"/>
      <point x="95" y="278"/>
      <point x="95" y="165" type="curve" smooth="yes"/>
      <point x="95" y="76"/>
      <point x="185" y="-26"/>
      <point x="318" y="-26" type="curve" smooth="yes"/>
      <point x="473" y="-26"/>
      <point x="633" y="86"/>
      <point x="633" y="244" type="curve" smooth="yes"/>
      <point x="633" y="349"/>
      <point x="562" y="414"/>
      <point x="475" y="414" type="curve" smooth="yes"/>
    </contour>
    <contour>
      <point x="96" y="426"/>
      <point x="42" y="389"/>
      <point x="42" y="322" type="curve" smooth="yes"/>
      <point x="42" y="271"/>
      <point x="74" y="226"/>
      <point x="158" y="192" type="curve"/>
      <point x="175" y="219" type="line"/>
      <point x="138" y="237"/>
      <point x="108" y="269"/>
      <point x="108" y="310" type="curve" smooth="yes"/>
      <point x="108" y="354"/>
      <point x="144" y="370"/>
      <point x="194" y="368" type="curve" smooth="yes"/>
      <point x="218" y="368"/>
      <point x="242" y="362"/>
      <point x="270" y="353" type="curve"/>
      <point x="251" y="415" type="line"/>
      <point x="224" y="423"/>
      <point x="200" y="426"/>
      <point x="175" y="426" type="curve" smooth="yes"/>
    </contour>
    <contour>
      <point x="-30" y="570" type="line"/>
      <point x="-2" y="506" type="line"/>
      <point x="674" y="506" type="line"/>
      <point x="646" y="570" type="line"/>
    </contour>
    <component base="stem-tiny-deva" xOffset="119"/>
    <contour>
      <point x="43" y="-20" type="move" name="nukta"/>
    </contour>
    <contour>
      <point x="321" y="-12" type="move" name="bottom"/>
    </contour>
    <contour>
      <point x="510" y="570" type="move" name="top"/>
    </contour>
  </outline>
</glyph>
<glyph name="jhadeva" format="1">
  <advance width="736"/>
  <unicode hex="091D"/>
  <note>
    dJha
  </note>
  <outline>
    <contour>
      <point x="200" y="414" type="line" smooth="yes"/>
      <point x="118" y="416"/>
      <point x="70" y="370"/>
      <point x="70" y="300" type="curve" smooth="yes"/>
      <point x="70" y="202"/>
      <point x="161" y="141"/>
      <point x="234" y="153" type="curve" smooth="yes"/>
      <point x="254" y="157"/>
      <point x="274" y="166"/>
      <point x="293" y="172" type="curve" smooth="yes"/>
      <point x="362" y="194"/>
      <point x="380" y="186"/>
      <point x="380" y="134" type="curve" smooth="yes"/>
      <point x="380" y="58"/>
      <point x="310" y="11"/>
      <point x="220" y="11" type="curve" smooth="yes"/>
      <point x="178" y="11"/>
      <point x="142" y="24"/>
      <point x="103" y="59" type="curve"/>
      <point x="73" y="41" type="line"/>
      <point x="121" y="-19"/>
      <point x="198" y="-48"/>
      <point x="271" y="-48" type="curve" smooth="yes"/>
      <point x="361" y="-48"/>
      <point x="443" y="-11"/>
      <point x="443" y="87" type="curve" smooth="yes"/>
      <point x="443" y="163"/>
      <point x="388" y="253"/>
      <point x="314" y="253" type="curve" smooth="yes"/>
      <point x="252" y="253"/>
      <point x="192" y="194"/>
      <point x="153" y="220" type="curve" smooth="yes"/>
      <point x="139" y="229"/>
      <point x="129" y="247"/>
      <point x="129" y="276" type="curve" smooth="yes"/>
      <point x="129" y="319"/>
      <point x="154" y="351"/>
      <point x="221" y="351" type="curve"/>
      <point x="422" y="357" type="line"/>
      <point x="354" y="411" type="line"/>
    </contour>
    <contour>
      <point x="56" y="133"/>
      <point x="28" y="116"/>
      <point x="28" y="74" type="curve" smooth="yes"/>
      <point x="28" y="6"/>
      <point x="93" y="-92"/>
      <point x="157" y="-186" type="curve"/>
      <point x="220" y="-132" type="line"/>
      <point x="168" y="-89"/>
      <point x="139" y="-58"/>
      <point x="108" y="3" type="curve"/>
      <point x="131" y="16"/>
      <point x="148" y="33"/>
      <point x="148" y="68" type="curve" smooth="yes"/>
      <point x="148" y="110"/>
      <point x="118" y="133"/>
      <point x="86" y="133" type="curve" smooth="yes"/>
    </contour>
    <contour>
      <point x="390" y="212" type="line"/>
      <point x="390" y="156" type="line"/>
      <point x="583" y="166" type="line"/>
      <point x="583" y="212" type="line"/>
    </contour>
    <contour>
      <point x="348" y="506" type="line"/>
      <point x="344" y="479"/>
      <point x="343" y="449"/>
      <point x="343" y="426" type="curve" smooth="yes"/>
      <point x="343" y="389" type="line"/>
      <point x="422" y="357" type="line"/>
      <point x="422" y="506" type="line"/>
    </contour>
    <contour>
      <point x="-30" y="570" type="line"/>
      <point x="-2" y="506" type="line"/>
      <point x="349" y="506" type="line"/>
      <point x="422" y="506" type="line"/>
      <point x="766" y="506" type="line"/>
      <point x="738" y="570" type="line"/>
    </contour>
    <component base="stem-deva" xOffset="209"/>
    <contour>
      <point x="32" y="-149" type="move" name="nukta"/>
    </contour>
    <contour>
      <point x="597" y="0" type="move" name="bottom"/>
    </contour>
    <contour>
      <point x="597" y="570" type="move" name="top"/>
    </contour>
  </outline>
</glyph>
<glyph name="tthadeva" format="1">
  <advance width="529"/>
  <unicode hex="0920"/>
  <note>
    dTtha
  </note>
  <outline>
    <contour>
      <point x="346" y="395" type="line"/>
      <point x="254" y="395" type="line" smooth="yes"/>
      <point x="125" y="395"/>
      <point x="56" y="311"/>
      <point x="56" y="220" type="curve" smooth="yes"/>
      <point x="56" y="112"/>
      <point x="148" y="-6"/>
      <point x="292" y="-6" type="curve" smooth="yes"/>
      <point x="390" y="-6"/>
      <point x="509" y="53"/>
      <point x="509" y="180" type="curve" smooth="yes"/>
      <point x="509" y="270"/>
      <point x="478" y="325"/>
      <point x="383" y="379" type="curve"/>
    </contour>
    <contour>
      <point x="181" y="56"/>
      <point x="128" y="101"/>
      <point x="128" y="187" type="curve" smooth="yes"/>
      <point x="128" y="254"/>
      <point x="173" y="315"/>
      <point x="262" y="322" type="curve" smooth="yes"/>
      <point x="395" y="332" type="line"/>
      <point x="317" y="346" type="line"/>
      <point x="389" y="318"/>
      <point x="436" y="286"/>
      <point x="436" y="216" type="curve" smooth="yes"/>
      <point x="436" y="119"/>
      <point x="358" y="56"/>
      <point x="257" y="56" type="curve" smooth="yes"/>
    </contour>
    <contour>
      <point x="559" y="506" type="line"/>
      <point x="531" y="570" type="line"/>
      <point x="-30" y="570" type="line"/>
      <point x="-2" y="506" type="line"/>
    </contour>
    <contour>
      <point x="341" y="506" type="line"/>
      <point x="337" y="479"/>
      <point x="336" y="469"/>
      <point x="336" y="446" type="curve" smooth="yes"/>
      <point x="336" y="370" type="line"/>
      <point x="415" y="331" type="line"/>
      <point x="415" y="506" type="line"/>
    </contour>
    <contour>
      <point x="-3" y="29" type="move" name="nukta"/>
    </contour>
    <contour>
      <point x="293" y="8" type="move" name="bottom"/>
    </contour>
    <contour>
      <point x="377" y="570" type="move" name="top"/>
    </contour>
  </outline>
</glyph>
<glyph name="ddadeva" format="1">
  <advance width="509"/>
  <unicode hex="0921"/>
  <note>
    dDda
  </note>
  <outline>
    <contour>
      <point x="32" y="193" type="line"/>
      <point x="86" y="80"/>
      <point x="167" y="-15"/>
      <point x="300" y="-15" type="curve" smooth="yes"/>
      <point x="420" y="-15"/>
      <point x="455" y="63"/>
      <point x="454" y="141" type="curve" smooth="yes"/>
      <point x="453" y="228"/>
      <point x="380" y="289"/>
      <point x="328" y="289" type="curve" smooth="yes"/>
      <point x="274" y="289"/>
      <point x="234" y="260"/>
      <point x="196" y="260" type="curve" smooth="yes"/>
      <point x="173" y="260"/>
      <point x="153" y="278"/>
      <point x="153" y="306" type="curve" smooth="yes"/>
      <point x="153" y="359"/>
      <point x="175" y="379"/>
      <point x="227" y="381" type="curve" smooth="yes"/>
      <point x="415" y="387" type="line"/>
      <point x="415" y="445" type="line"/>
      <point x="198" y="445" type="line" smooth="yes"/>
      <point x="138" y="445"/>
      <point x="92" y="410"/>
      <point x="94" y="349" type="curve" smooth="yes"/>
      <point x="97" y="259"/>
      <point x="166" y="193"/>
      <point x="218" y="193" type="curve" smooth="yes"/>
      <point x="264" y="193"/>
      <point x="317" y="221"/>
      <point x="358" y="220" type="curve" smooth="yes"/>
      <point x="389" y="220"/>
      <point x="408" y="193"/>
      <point x="408" y="156" type="curve" smooth="yes"/>
      <point x="408" y="111"/>
      <point x="368" y="61"/>
      <point x="273" y="61" type="curve" smooth="yes"/>
      <point x="201" y="61"/>
      <point x="133" y="90"/>
      <point x="64" y="215" type="curve"/>
    </contour>
    <contour>
      <point x="539" y="506" type="line"/>
      <point x="511" y="570" type="line"/>
      <point x="-30" y="570" type="line"/>
      <point x="-2" y="506" type="line"/>
    </contour>
    <contour>
      <point x="341" y="506" type="line"/>
      <point x="337" y="479"/>
      <point x="336" y="469"/>
      <point x="336" y="446" type="curve" smooth="yes"/>
      <point x="336" y="420" type="line"/>
      <point x="415" y="387" type="line"/>
      <point x="415" y="506" type="line"/>
    </contour>
    <contour>
      <point x="-13" y="24" type="move" name="nukta"/>
    </contour>
    <contour>
      <point x="300" y="0" type="move" name="bottom"/>
    </contour>
    <contour>
      <point x="377" y="570" type="move" name="top"/>
    </contour>
  </outline>
</glyph>
<glyph name="nnadeva" format="1">
  <advance width="622"/>
  <unicode hex="0923"/>
  <note>
    dNna
  </note>
  <outline>
    <contour>
      <point x="289" y="526" type="line"/>
      <point x="289" y="282" type="line" smooth="yes"/>
      <point x="289" y="188"/>
      <point x="247" y="170"/>
      <point x="207" y="169" type="curve" smooth="yes"/>
      <point x="162" y="168"/>
      <point x="128" y="194"/>
      <point x="128" y="263" type="curve" smooth="yes"/>
      <point x="128" y="526" type="line"/>
      <point x="49" y="526" type="line"/>
      <point x="49" y="355" type="line" smooth="yes"/>
      <point x="49" y="209"/>
      <point x="130" y="106"/>
      <point x="240" y="106" type="curve" smooth="yes"/>
      <point x="317" y="106"/>
      <point x="368" y="159"/>
      <point x="368" y="272" type="curve" smooth="yes"/>
      <point x="368" y="526" type="line"/>
    </contour>
    <contour>
      <point x="652" y="506" type="line"/>
      <point x="624" y="570" type="line"/>
      <point x="-30" y="570" type="line"/>
      <point x="-2" y="506" type="line"/>
    </contour>
    <component base="stem-deva" xOffset="101"/>
    <contour>
      <point x="197" y="0" type="move" name="nukta"/>
    </contour>
    <contour>
      <point x="490" y="0" type="move" name="bottom"/>
    </contour>
    <contour>
      <point x="490" y="570" type="move" name="top"/>
    </contour>
  </outline>
</glyph>
<glyph name="tadeva" format="1">
  <advance width="547"/>
  <unicode hex="0924"/>
  <note>
    dTa
  </note>
  <outline>
    <contour>
      <point x="427" y="333" type="line"/>
      <point x="400" y="397" type="line"/>
      <point x="220" y="397" type="line" smooth="yes"/>
      <point x="122" y="397"/>
      <point x="59" y="359"/>
      <point x="59" y="263" type="curve" smooth="yes"/>
      <point x="59" y="177"/>
      <point x="110" y="82"/>
      <point x="235" y="-7" type="curve"/>
      <point x="262" y="18" type="line"/>
      <point x="184" y="79"/>
      <point x="140" y="167"/>
      <point x="140" y="237" type="curve" smooth="yes"/>
      <point x="140" y="294"/>
      <point x="168" y="333"/>
      <point x="231" y="333" type="curve" smooth="yes"/>
    </contour>
    <contour>
      <point x="577" y="506" type="line"/>
      <point x="549" y="570" type="line"/>
      <point x="-30" y="570" type="line"/>
      <point x="-2" y="506" type="line"/>
    </contour>
    <component base="stem-deva" xOffset="26"/>
    <contour>
      <point x="12" y="0" type="move" name="nukta"/>
    </contour>
    <contour>
      <point x="410" y="0" type="move" name="bottom"/>
    </contour>
    <contour>
      <point x="410" y="580" type="move" name="top"/>
    </contour>
  </outline>
</glyph>
<glyph name="dadeva" format="1">
  <advance width="540"/>
  <unicode hex="0926"/>
  <note>
    dDa
  </note>
  <outline>
    <contour>
      <point x="465" y="154"/>
      <point x="435" y="176"/>
      <point x="403" y="176" type="curve" smooth="yes"/>
      <point x="366" y="176"/>
      <point x="321" y="138"/>
      <point x="360" y="66" type="curve" smooth="yes"/>
      <point x="397" y="-2"/>
      <point x="444" y="-72"/>
      <point x="474" y="-143" type="curve"/>
      <point x="537" y="-89" type="line"/>
      <point x="422" y="38" type="line"/>
      <point x="444" y="53"/>
      <point x="465" y="76"/>
      <point x="465" y="111" type="curve" smooth="yes"/>
    </contour>
    <contour>
      <point x="338" y="393" type="line"/>
      <point x="261" y="396" type="line" smooth="yes"/>
      <point x="149" y="400"/>
      <point x="69" y="340"/>
      <point x="69" y="234" type="curve" smooth="yes"/>
      <point x="69" y="130"/>
      <point x="154" y="14"/>
      <point x="302" y="14" type="curve" smooth="yes"/>
      <point x="348" y="14"/>
      <point x="387" y="26"/>
      <point x="427" y="53" type="curve"/>
      <point x="384" y="124" type="line"/>
      <point x="338" y="87"/>
      <point x="300" y="76"/>
      <point x="262" y="76" type="curve" smooth="yes"/>
      <point x="181" y="77"/>
      <point x="130" y="126"/>
      <point x="130" y="206" type="curve" smooth="yes"/>
      <point x="130" y="289"/>
      <point x="184" y="320"/>
      <point x="265" y="323" type="curve" smooth="yes"/>
      <point x="416" y="329" type="line"/>
    </contour>
    <contour>
      <point x="560" y="506" type="line"/>
      <point x="532" y="570" type="line"/>
      <point x="-30" y="570" type="line"/>
      <point x="-1" y="506" type="line"/>
    </contour>
    <contour>
      <point x="342" y="506" type="line"/>
      <point x="338" y="479"/>
      <point x="337" y="449"/>
      <point x="337" y="426" type="curve" smooth="yes"/>
      <point x="337" y="370" type="line"/>
      <point x="416" y="329" type="line"/>
      <point x="416" y="506" type="line"/>
    </contour>
    <contour>
      <point x="48" y="0" type="move" name="nukta"/>
    </contour>
    <contour>
      <point x="331" y="-35" type="move" name="bottom"/>
    </contour>
    <contour>
      <point x="375" y="570" type="move" name="top"/>
    </contour>
  </outline>
</glyph>
<glyph name="nadeva" format="1">
  <advance width="524"/>
  <unicode hex="0928"/>
  <note>
    dNa
  </note>
  <outline>
    <contour>
      <point x="364" y="346" type="line"/>
      <point x="111" y="346" type="line"/>
      <point x="112" y="282" type="line"/>
      <point x="364" y="289" type="line"/>
    </contour>
    <contour>
      <point x="554" y="506" type="line"/>
      <point x="526" y="570" type="line"/>
      <point x="-30" y="570" type="line"/>
      <point x="-2" y="506" type="line"/>
    </contour>
    <component base="deva_knot" xOffset="1" yOffset="23"/>
    <component base="stem-deva"/>
    <contour>
      <point x="117" y="0" type="move" name="nukta"/>
    </contour>
    <contour>
      <point x="384" y="0" type="move" name="bottom"/>
    </contour>
    <contour>
      <point x="384" y="570" type="move" name="top"/>
    </contour>
  </outline>
</glyph>
<glyph name="bhadeva" format="1">
  <advance width="635"/>
  <unicode hex="092D"/>
  <note>
    dBha
  </note>
  <outline>
    <contour>
      <point x="665" y="506" type="line"/>
      <point x="637" y="570" type="line"/>
      <point x="348" y="570" type="line"/>
      <point x="376" y="506" type="line"/>
    </contour>
    <contour>
      <point x="285" y="156"/>
      <point x="289" y="177"/>
      <point x="291" y="215" type="curve" smooth="yes"/>
      <point x="294" y="268" type="line"/>
      <point x="260" y="304" type="line"/>
      <point x="189" y="304" type="line" smooth="yes"/>
      <point x="158" y="304"/>
      <point x="145" y="291"/>
      <point x="145" y="268" type="curve" smooth="yes"/>
      <point x="145" y="226"/>
      <point x="219" y="156"/>
      <point x="263" y="156" type="curve" smooth="yes"/>
    </contour>
    <contour>
      <point x="498" y="304" type="line"/>
      <point x="296" y="304" type="line"/>
      <point x="307" y="510"/>
      <point x="249" y="592"/>
      <point x="149" y="592" type="curve" smooth="yes"/>
      <point x="98" y="592"/>
      <point x="65" y="560"/>
      <point x="65" y="511" type="curve" smooth="yes"/>
      <point x="65" y="432"/>
      <point x="153" y="377"/>
      <point x="242" y="370" type="curve"/>
      <point x="246" y="413" type="line" smooth="yes"/>
      <point x="178" y="424"/>
      <point x="138" y="462"/>
      <point x="138" y="504" type="curve"/>
      <point x="138" y="531"/>
      <point x="149" y="547"/>
      <point x="175" y="547" type="curve" smooth="yes"/>
      <point x="242" y="547"/>
      <point x="223" y="406"/>
      <point x="212" y="240" type="curve"/>
      <point x="498" y="246" type="line"/>
    </contour>
    <component base="stem-deva" xOffset="134"/>
    <contour>
      <point x="227" y="0" type="move" name="nukta"/>
    </contour>
    <contour>
      <point x="520" y="0" type="move" name="bottom"/>
    </contour>
    <contour>
      <point x="520" y="570" type="move" name="top"/>
    </contour>
  </outline>
</glyph>
<glyph name="uni0932" format="1">
  <advance width="687"/>
  <unicode hex="0932"/>
  <note>
    dLa
  </note>
  <outline>
    <contour>
      <point x="343" y="308"/>
      <point x="389" y="359"/>
      <point x="443" y="359" type="curve" smooth="yes"/>
      <point x="470" y="359"/>
      <point x="499" y="347"/>
      <point x="528" y="323" type="curve"/>
      <point x="543" y="349" type="line"/>
      <point x="505" y="396"/>
      <point x="462" y="419"/>
      <point x="414" y="419" type="curve" smooth="yes"/>
      <point x="326" y="419"/>
      <point x="278" y="343"/>
      <point x="243" y="227" type="curve"/>
      <point x="313" y="198" type="line"/>
    </contour>
    <contour>
      <point x="276" y="384"/>
      <point x="224" y="419"/>
      <point x="154" y="419" type="curve" smooth="yes"/>
      <point x="62" y="419"/>
      <point x="19" y="362"/>
      <point x="19" y="276" type="curve" smooth="yes"/>
      <point x="19" y="166"/>
      <point x="142" y="43"/>
      <point x="242" y="-7" type="curve"/>
      <point x="263" y="31" type="line"/>
      <point x="186" y="86"/>
      <point x="104" y="168"/>
      <point x="104" y="264" type="curve" smooth="yes"/>
      <point x="104" y="323"/>
      <point x="125" y="359"/>
      <point x="185" y="359" type="curve" smooth="yes"/>
      <point x="224" y="359"/>
      <point x="262" y="344"/>
      <point x="300" y="318" type="curve"/>
      <point x="326" y="342" type="line"/>
    </contour>
    <contour>
      <point x="-30" y="570" type="line"/>
      <point x="-2" y="506" type="line"/>
      <point x="717" y="506" type="line"/>
      <point x="689" y="570" type="line"/>
    </contour>
    <component base="stem-deva" xOffset="158"/>
    <contour>
      <point x="17" y="0" type="move" name="nukta"/>
    </contour>
    <contour>
      <point x="547" y="0" type="move" name="bottom"/>
    </contour>
    <contour>
      <point x="547" y="570" type="move" name="top"/>
    </contour>
  </outline>
</glyph>
<glyph name="ssadeva" format="1">
  <advance width="521"/>
  <unicode hex="0937"/>
  <note>
    dSsa
  </note>
  <outline>
    <contour>
      <point x="135" y="511" type="line"/>
      <point x="389" y="190" type="line"/>
      <point x="422" y="217" type="line" smooth="yes"/>
      <point x="170" y="541" type="line"/>
    </contour>
    <component base="padeva"/>
    <contour>
      <point x="105" y="68" type="move" name="nukta"/>
    </contour>
    <contour>
      <point x="454" y="0" type="move" name="bottom"/>
    </contour>
    <contour>
      <point x="454" y="570" type="move" name="top"/>
    </contour>
  </outline>
</glyph>
<glyph name="sadeva" format="1">
  <advance width="627"/>
  <unicode hex="0938"/>
  <note>
    dSa
  </note>
  <outline>
    <contour>
      <point x="478" y="286" type="line"/>
      <point x="391" y="237"/>
      <point x="258" y="204"/>
      <point x="179" y="269" type="curve"/>
      <point x="144" y="233" type="line"/>
      <point x="218" y="149"/>
      <point x="357" y="147"/>
      <point x="478" y="191" type="curve"/>
    </contour>
    <contour>
      <point x="-30" y="570" type="line"/>
      <point x="-2" y="506" type="line"/>
      <point x="657" y="506" type="line"/>
      <point x="629" y="570" type="line"/>
    </contour>
    <contour>
      <point x="351" y="44" type="line"/>
      <point x="229" y="68"/>
      <point x="167" y="107"/>
      <point x="105" y="179" type="curve"/>
      <point x="238" y="204"/>
      <point x="293" y="333"/>
      <point x="223" y="511" type="curve"/>
      <point x="162" y="511" type="line"/>
      <point x="195" y="416"/>
      <point x="213" y="321"/>
      <point x="139" y="280" type="curve"/>
      <point x="126" y="307"/>
      <point x="104" y="321"/>
      <point x="74" y="321" type="curve" smooth="yes"/>
      <point x="38" y="321"/>
      <point x="12" y="294"/>
      <point x="12" y="254" type="curve" smooth="yes"/>
      <point x="12" y="133"/>
      <point x="146" y="22"/>
      <point x="320" y="-49" type="curve"/>
    </contour>
    <component base="stem-deva" xOffset="106"/>
    <contour>
      <point x="6" y="0" type="move" name="nukta"/>
    </contour>
    <contour>
      <point x="493" y="0" type="move" name="bottom"/>
    </contour>
    <contour>
      <point x="493" y="570" type="move" name="top"/>
    </contour>
  </outline>
</glyph>
<glyph name="uni093E" format="1">
  <advance width="280"/>
  <unicode hex="093E"/>
  <outline>
    <contour>
      <point x="-30" y="570" type="line"/>
      <point x="-2" y="506" type="line"/>
      <point x="310" y="506" type="line"/>
      <point x="282" y="570" type="line"/>
    </contour>
    <component base="stem-deva" xOffset="-248"/>
    <contour>
      <point x="140" y="569" type="move" name="top"/>
    </contour>
    <contour>
      <point x="140" y="0" type="move" name="bottom"/>
    </contour>
  </outline>
</glyph>
<glyph name="uni094E" format="1">
  <advance width="289"/>
  <unicode hex="094E"/>
  <outline>
    <contour>
      <point x="117" y="570" type="line"/>
      <point x="188" y="506" type="line"/>
      <point x="319" y="506" type="line"/>
      <point x="291" y="570" type="line"/>
    </contour>
    <contour>
      <point x="114" y="570" type="line"/>
      <point x="110" y="543"/>
      <point x="109" y="513"/>
      <point x="109" y="490" type="curve" smooth="yes"/>
      <point x="109" y="-20" type="line"/>
      <point x="188" y="-54" type="line"/>
      <point x="188" y="570" type="line"/>
    </contour>
  </outline>
</glyph>
<glyph name="awVowel-deva" format="1">
  <advance width="370"/>
  <unicode hex="094F"/>
  <outline>
    <contour>
      <point x="195" y="519" type="line"/>
      <point x="193" y="686"/>
      <point x="98" y="701"/>
      <point x="9" y="678" type="curve" smooth="yes"/>
      <point x="-59" y="660"/>
      <point x="-90" y="661"/>
      <point x="-136" y="732" type="curve"/>
      <point x="-160" y="715" type="line"/>
      <point x="-115" y="625"/>
      <point x="-66" y="600"/>
      <point x="16" y="620" type="curve" smooth="yes"/>
      <point x="106" y="642"/>
      <point x="152" y="627"/>
      <point x="176" y="513" type="curve"/>
    </contour>
    <contour>
      <point x="212" y="549" type="line"/>
      <point x="282" y="745"/>
      <point x="196" y="799"/>
      <point x="78" y="786" type="curve" smooth="yes"/>
      <point x="-9" y="776"/>
      <point x="-57" y="777"/>
      <point x="-91" y="855" type="curve"/>
      <point x="-120" y="841" type="line"/>
      <point x="-86" y="737"/>
      <point x="-22" y="715"/>
      <point x="84" y="725" type="curve" smooth="yes"/>
      <point x="174" y="734"/>
      <point x="204" y="670"/>
      <point x="185" y="562" type="curve"/>
    </contour>
    <component base="uni093E"/>
  </outline>
</glyph>
<glyph name="omdeva" format="1">
  <advance width="942"/>
  <unicode hex="0950"/>
  <outline>
    <contour>
      <point x="122" y="468" type="line"/>
      <point x="166" y="499"/>
      <point x="215" y="520"/>
      <point x="264" y="520" type="curve" smooth="yes"/>
      <point x="307" y="520"/>
      <point x="347" y="504"/>
      <point x="347" y="451" type="curve" smooth="yes"/>
      <point x="347" y="380"/>
      <point x="282" y="363"/>
      <point x="215" y="351" type="curve" smooth="yes"/>
      <point x="147" y="339" type="line"/>
      <point x="164" y="276" type="line"/>
      <point x="216" y="283" type="line" smooth="yes"/>
      <point x="302" y="295"/>
      <point x="387" y="347"/>
      <point x="387" y="440" type="curve" smooth="yes"/>
      <point x="387" y="533"/>
      <point x="321" y="589"/>
      <point x="239" y="589" type="curve" smooth="yes"/>
      <point x="191" y="589"/>
      <point x="133" y="570"/>
      <point x="86" y="537" type="curve"/>
    </contour>
    <contour>
      <point x="73" y="93"/>
      <point x="152" y="8"/>
      <point x="264" y="8" type="curve" smooth="yes"/>
      <point x="363" y="8"/>
      <point x="418" y="74"/>
      <point x="418" y="146" type="curve" smooth="yes"/>
      <point x="418" y="236"/>
      <point x="329" y="339"/>
      <point x="193" y="339" type="curve"/>
      <point x="193" y="313" type="line"/>
      <point x="279" y="313"/>
      <point x="334" y="238"/>
      <point x="334" y="169" type="curve" smooth="yes"/>
      <point x="334" y="110"/>
      <point x="295" y="73"/>
      <point x="237" y="73" type="curve" smooth="yes"/>
      <point x="156" y="73"/>
      <point x="92" y="147"/>
      <point x="49" y="228" type="curve"/>
      <point x="15" y="211" type="line"/>
    </contour>
    <contour>
      <point x="627" y="395"/>
      <point x="586" y="358"/>
      <point x="527" y="303" type="curve" smooth="yes"/>
      <point x="478" y="257"/>
      <point x="428" y="234"/>
      <point x="340" y="290" type="curve"/>
      <point x="372" y="228" type="line"/>
      <point x="447" y="187"/>
      <point x="499" y="187"/>
      <point x="561" y="253" type="curve" smooth="yes"/>
      <point x="613" y="309"/>
      <point x="659" y="332"/>
      <point x="713" y="332" type="curve" smooth="yes"/>
      <point x="786" y="332"/>
      <point x="838" y="287"/>
      <point x="836" y="221" type="curve" smooth="yes"/>
      <point x="835" y="115"/>
      <point x="771" y="54"/>
      <point x="703" y="54" type="curve" smooth="yes"/>
      <point x="655" y="54"/>
      <point x="605" y="84"/>
      <point x="573" y="148" type="curve"/>
      <point x="522" y="108" type="line"/>
      <point x="580" y="23"/>
      <point x="645" y="-6"/>
      <point x="721" y="-6" type="curve" smooth="yes"/>
      <point x="802" y="-6"/>
      <point x="906" y="53"/>
      <point x="902" y="181" type="curve" smooth="yes"/>
      <point x="898" y="297"/>
      <point x="809" y="395"/>
      <point x="696" y="395" type="curve" smooth="yes"/>
    </contour>
    <component base="candrabindudeva" xOffset="465" yOffset="-191"/>
  </outline>
</glyph>
<glyph name="udattadeva" format="1">
  <advance width="250"/>
  <unicode hex="0951"/>
  <note>
    dUdatta
  </note>
  <outline>
    <contour>
      <point x="146" y="901" type="line"/>
      <point x="91" y="901" type="line"/>
      <point x="91" y="606" type="line"/>
      <point x="146" y="606" type="line"/>
    </contour>
    <contour>
      <point x="116" y="464" type="move" name="_top"/>
    </contour>
  </outline>
</glyph>
<glyph name="anudattadeva" format="1">
  <advance width="0"/>
  <unicode hex="0952"/>
  <note>
    dAnudatta
  </note>
  <outline>
    <contour>
      <point x="-341" y="-123" type="line"/>
      <point x="-341" y="-177" type="line"/>
      <point x="-66" y="-177" type="line"/>
      <point x="-66" y="-123" type="line"/>
    </contour>
  </outline>
</glyph>
<glyph name="llvocalicdeva" format="1">
  <advance width="707"/>
  <unicode hex="0961"/>
  <note>
    dVocalicLl
  </note>
  <outline>
    <contour>
      <point x="557" y="-32" type="line"/>
      <point x="516" y="-70"/>
      <point x="520" y="-124"/>
      <point x="552" y="-161" type="curve" smooth="yes"/>
      <point x="593" y="-209"/>
      <point x="678" y="-227"/>
      <point x="767" y="-143" type="curve"/>
      <point x="716" y="-86" type="line"/>
      <point x="667" y="-152"/>
      <point x="604" y="-162"/>
      <point x="584" y="-138" type="curve" smooth="yes"/>
      <point x="567" y="-117"/>
      <point x="569" y="-78"/>
      <point x="610" y="-53" type="curve"/>
    </contour>
    <contour>
      <point x="329" y="336" type="line"/>
      <point x="208" y="441"/>
      <point x="28" y="430"/>
      <point x="28" y="271" type="curve" smooth="yes"/>
      <point x="28" y="156"/>
      <point x="119" y="78"/>
      <point x="238" y="40" type="curve"/>
      <point x="258" y="72" type="line"/>
      <point x="172" y="110"/>
      <point x="115" y="152"/>
      <point x="115" y="237" type="curve" smooth="yes"/>
      <point x="115" y="311"/>
      <point x="159" y="344"/>
      <point x="211" y="344" type="curve" smooth="yes"/>
      <point x="243" y="344"/>
      <point x="277" y="332"/>
      <point x="312" y="308" type="curve"/>
    </contour>
    <contour>
      <point x="538" y="356"/>
      <point x="565" y="290"/>
      <point x="496" y="172" type="curve" smooth="yes"/>
      <point x="452" y="97"/>
      <point x="431" y="24"/>
      <point x="492" y="-32" type="curve" smooth="yes"/>
      <point x="547" y="-83"/>
      <point x="643" y="-85"/>
      <point x="716" y="-2" type="curve"/>
      <point x="671" y="48" type="line"/>
      <point x="609" y="-24"/>
      <point x="557" y="-37"/>
      <point x="531" y="-15" type="curve" smooth="yes"/>
      <point x="505" y="7"/>
      <point x="518" y="53"/>
      <point x="570" y="131" type="curve" smooth="yes"/>
      <point x="646" y="245"/>
      <point x="608" y="408"/>
      <point x="446" y="408" type="curve" smooth="yes"/>
      <point x="356" y="408"/>
      <point x="296" y="337"/>
      <point x="277" y="250" type="curve"/>
      <point x="350" y="224" type="line"/>
      <point x="372" y="320"/>
      <point x="411" y="356"/>
      <point x="461" y="356" type="curve" smooth="yes"/>
    </contour>
    <contour>
      <point x="-30" y="570" type="line"/>
      <point x="-2" y="506" type="line"/>
      <point x="710" y="506" type="line"/>
      <point x="682" y="570" type="line"/>
    </contour>
    <contour>
      <point x="425" y="506" type="line"/>
      <point x="421" y="479"/>
      <point x="420" y="449"/>
      <point x="420" y="426" type="curve" smooth="yes"/>
      <point x="420" y="370" type="line"/>
      <point x="499" y="366" type="line"/>
      <point x="499" y="506" type="line"/>
    </contour>
    <contour>
      <point x="459" y="570" type="move" name="top"/>
    </contour>
    <contour>
      <point x="-23" y="0" type="move" name="bottom"/>
    </contour>
  </outline>
</glyph>
<glyph name="zerodeva" format="1">
  <advance width="491"/>
  <unicode hex="0966"/>
  <outline>
    <contour>
      <point x="341" y="163"/>
      <point x="421" y="243"/>
      <point x="421" y="339" type="curve"/>
      <point x="421" y="434"/>
      <point x="341" y="514"/>
      <point x="246" y="514" type="curve"/>
      <point x="150" y="514"/>
      <point x="70" y="434"/>
      <point x="70" y="339" type="curve"/>
      <point x="70" y="243"/>
      <point x="150" y="163"/>
      <point x="246" y="163" type="curve"/>
    </contour>
    <contour>
      <point x="246" y="200"/>
      <point x="179" y="231"/>
      <point x="150" y="294" type="curve" smooth="yes"/>
      <point x="121" y="356"/>
      <point x="140" y="428"/>
      <point x="193" y="452" type="curve" smooth="yes"/>
      <point x="245" y="477"/>
      <point x="312" y="446"/>
      <point x="341" y="384" type="curve" smooth="yes"/>
      <point x="370" y="321"/>
      <point x="351" y="249"/>
      <point x="299" y="225" type="curve" smooth="yes"/>
    </contour>
  </outline>
</glyph>
<glyph name="sixdeva" format="1">
  <advance width="465"/>
  <unicode hex="096C"/>
  <note>
    dSix
  </note>
  <outline>
    <contour>
      <point x="167" y="394" type="line"/>
      <point x="122" y="407"/>
      <point x="100" y="445"/>
      <point x="100" y="478" type="curve" smooth="yes"/>
      <point x="100" y="527"/>
      <point x="144" y="580"/>
      <point x="220" y="580" type="curve" smooth="yes"/>
      <point x="249" y="580"/>
      <point x="279" y="574"/>
      <point x="305" y="563" type="curve"/>
      <point x="312" y="611" type="line"/>
      <point x="281" y="631"/>
      <point x="240" y="641"/>
      <point x="199" y="641" type="curve" smooth="yes"/>
      <point x="92" y="641"/>
      <point x="30" y="574"/>
      <point x="30" y="503" type="curve" smooth="yes"/>
      <point x="30" y="455"/>
      <point x="60" y="395"/>
      <point x="127" y="365" type="curve"/>
    </contour>
    <contour>
      <point x="56" y="367"/>
      <point x="56" y="261" type="curve" smooth="yes"/>
      <point x="56" y="162"/>
      <point x="162" y="43"/>
      <point x="340" y="105" type="curve"/>
      <point x="318" y="189" type="line"/>
      <point x="230" y="114"/>
      <point x="122" y="130"/>
      <point x="122" y="230" type="curve" smooth="yes"/>
      <point x="122" y="305"/>
      <point x="183" y="352"/>
      <point x="318" y="365" type="curve"/>
      <point x="296" y="428" type="line"/>
      <point x="174" y="428"/>
    </contour>
    <contour>
      <point x="394" y="224"/>
      <point x="369" y="246"/>
      <point x="336" y="246" type="curve" smooth="yes"/>
      <point x="303" y="246"/>
      <point x="276" y="223"/>
      <point x="276" y="182" type="curve" smooth="yes"/>
      <point x="276" y="122"/>
      <point x="315" y="37"/>
      <point x="377" y="-34" type="curve"/>
      <point x="439" y="9" type="line"/>
      <point x="403" y="37"/>
      <point x="375" y="72"/>
      <point x="353" y="116" type="curve"/>
      <point x="374" y="130"/>
      <point x="394" y="152"/>
      <point x="394" y="185" type="curve" smooth="yes"/>
    </contour>
  </outline>
</glyph>
<glyph name="eightdeva" format="1">
  <advance width="463"/>
  <unicode hex="096E"/>
  <note>
    dEight
  </note>
  <outline>
    <contour>
      <point x="-20" y="195"/>
      <point x="79" y="75" type="curve" smooth="yes"/>
      <point x="163" y="-28"/>
      <point x="333" y="-28"/>
      <point x="423" y="98" type="curve"/>
      <point x="375" y="170" type="line"/>
      <point x="316" y="67"/>
      <point x="166" y="31"/>
      <point x="115" y="110" type="curve" smooth="yes"/>
      <point x="59" y="195"/>
      <point x="161" y="360"/>
      <point x="393" y="506" type="curve"/>
      <point x="348" y="592" type="line"/>
      <point x="55" y="381"/>
    </contour>
  </outline>
</glyph>
<glyph name="ninedeva" format="1">
  <advance width="426"/>
  <unicode hex="096F"/>
  <note>
    dNine
  </note>
  <outline>
    <contour>
      <point x="15" y="647"/>
      <point x="-23" y="472"/>
      <point x="111" y="339" type="curve" smooth="yes"/>
      <point x="262" y="189"/>
      <point x="298" y="160"/>
      <point x="298" y="123" type="curve" smooth="yes"/>
      <point x="298" y="91"/>
      <point x="272" y="64"/>
      <point x="231" y="23" type="curve"/>
      <point x="300" y="-35" type="line"/>
      <point x="355" y="18"/>
      <point x="386" y="52"/>
      <point x="386" y="91" type="curve" smooth="yes"/>
      <point x="386" y="138"/>
      <point x="339" y="182"/>
      <point x="146" y="383" type="curve" smooth="yes"/>
      <point x="73" y="460"/>
      <point x="91" y="591"/>
      <point x="212" y="584" type="curve" smooth="yes"/>
      <point x="270" y="580"/>
      <point x="306" y="547"/>
      <point x="306" y="490" type="curve" smooth="yes"/>
      <point x="306" y="401"/>
      <point x="207" y="372"/>
      <point x="118" y="393" type="curve"/>
      <point x="154" y="347" type="line"/>
      <point x="265" y="297"/>
      <point x="384" y="356"/>
      <point x="384" y="459" type="curve" smooth="yes"/>
      <point x="384" y="548"/>
      <point x="293" y="649"/>
      <point x="174" y="648" type="curve" smooth="yes"/>
    </contour>
  </outline>
</glyph>
<glyph name="uni0975" format="1">
  <advance width="937"/>
  <unicode hex="0975"/>
  <outline>
    <contour>
      <point x="809" y="519" type="line"/>
      <point x="807" y="686"/>
      <point x="712" y="701"/>
      <point x="623" y="678" type="curve" smooth="yes"/>
      <point x="555" y="660"/>
      <point x="524" y="661"/>
      <point x="478" y="732" type="curve"/>
      <point x="454" y="715" type="line"/>
      <point x="499" y="625"/>
      <point x="548" y="600"/>
      <point x="630" y="620" type="curve" smooth="yes"/>
      <point x="720" y="642"/>
      <point x="766" y="627"/>
      <point x="790" y="513" type="curve"/>
    </contour>
    <contour>
      <point x="826" y="549" type="line"/>
      <point x="896" y="745"/>
      <point x="810" y="799"/>
      <point x="692" y="786" type="curve" smooth="yes"/>
      <point x="605" y="776"/>
      <point x="557" y="777"/>
      <point x="523" y="855" type="curve"/>
      <point x="494" y="841" type="line"/>
      <point x="528" y="737"/>
      <point x="592" y="715"/>
      <point x="698" y="725" type="curve" smooth="yes"/>
      <point x="788" y="734"/>
      <point x="818" y="670"/>
      <point x="799" y="562" type="curve"/>
    </contour>
    <component base="aadeva"/>
    <contour>
      <point x="871" y="569" type="move" name="top"/>
    </contour>
  </outline>
</glyph>
<glyph name="uni097A" format="1">
  <advance width="527"/>
  <unicode hex="097A"/>
  <outline>
    <contour>
      <point x="175" y="511" type="line"/>
      <point x="429" y="170" type="line"/>
      <point x="462" y="197" type="line" smooth="yes"/>
      <point x="210" y="541" type="line"/>
    </contour>
    <component base="uni092F"/>
  </outline>
</glyph>
<glyph name="uni097F" format="1">
  <advance width="555"/>
  <unicode hex="097F"/>
  <note>
    dBba
  </note>
  <outline>
    <contour>
      <point x="454" y="-64" type="line"/>
      <point x="454" y="-10" type="line"/>
      <point x="31" y="0" type="line"/>
      <point x="59" y="-64" type="line"/>
    </contour>
    <contour>
      <point x="136" y="376" type="line"/>
      <point x="111" y="338" type="line"/>
      <point x="388" y="137" type="line"/>
      <point x="412" y="172" type="line"/>
    </contour>
    <component base="vadeva"/>
  </outline>
</glyph>
<glyph name="endash" format="1">
  <advance width="590"/>
  <unicode hex="2013"/>
  <outline>
    <contour>
      <point x="61" y="361" type="line"/>
      <point x="61" y="278.956" type="line"/>
      <point x="526" y="283.044" type="line"/>
      <point x="526" y="361" type="line"/>
    </contour>
  </outline>
</glyph>
<glyph name="guilsinglright" format="1">
  <advance width="383"/>
  <unicode hex="203A"/>
  <outline>
    <contour>
      <point x="40.65" y="517.428" type="line"/>
      <point x="238" y="277.572" type="line"/>
      <point x="238" y="280.331" type="line"/>
      <point x="38.8192" y="24.5307" type="line"/>
      <point x="76.9894" y="-14.8709" type="line"/>
      <point x="356" y="271.268" type="line"/>
      <point x="356" y="280.778" type="line"/>
      <point x="80" y="556.778" type="line"/>
    </contour>
  </outline>
</glyph>
<glyph name="fraction" format="1">
  <advance width="476"/>
  <unicode hex="2044"/>
  <outline>
    <contour>
      <point x="-25.5129" y="8.25676" type="line"/>
      <point x="21.2071" y="-23.7096" type="line"/>
      <point x="500.515" y="686.639" type="line"/>
      <point x="447.79" y="723.786" type="line"/>
    </contour>
  </outline>
</glyph>
<glyph name="trademark" format="1">
  <advance width="1068"/>
  <unicode hex="2122"/>
  <outline>
    <contour>
      <point x="865" y="700" type="line"/>
      <point x="830" y="611"/>
      <point x="797" y="534"/>
      <point x="764" y="452" type="curve" smooth="yes"/>
      <point x="756" y="432"/>
      <point x="744" y="401"/>
      <point x="733" y="378" type="curve"/>
      <point x="732" y="378" type="line"/>
      <point x="715" y="416"/>
      <point x="700" y="454"/>
      <point x="687" y="486" type="curve" smooth="yes"/>
      <point x="598" y="700" type="line"/>
      <point x="469" y="700" type="line"/>
      <point x="469" y="660" type="line"/>
      <point x="512" y="663" type="line"/>
      <point x="511" y="656"/>
      <point x="511" y="646"/>
      <point x="500" y="403" type="curve" smooth="yes"/>
      <point x="498" y="362"/>
      <point x="490" y="334"/>
      <point x="450" y="333" type="curve"/>
      <point x="450" y="305" type="line"/>
      <point x="591" y="305" type="line"/>
      <point x="591" y="339" type="line"/>
      <point x="542" y="336" type="line"/>
      <point x="545" y="347"/>
      <point x="546" y="361"/>
      <point x="547" y="378" type="curve" smooth="yes"/>
      <point x="555" y="596" type="line" smooth="yes"/>
      <point x="556" y="607"/>
      <point x="556" y="620"/>
      <point x="556" y="631" type="curve"/>
      <point x="557" y="631" type="line"/>
      <point x="566" y="604"/>
      <point x="576" y="578"/>
      <point x="586" y="554" type="curve" smooth="yes"/>
      <point x="617" y="481"/>
      <point x="664" y="374"/>
      <point x="698" y="299" type="curve"/>
      <point x="745" y="299" type="line"/>
      <point x="872" y="610" type="line"/>
      <point x="873" y="610" type="line"/>
      <point x="886" y="405" type="line" smooth="yes"/>
      <point x="889" y="365"/>
      <point x="881" y="336"/>
      <point x="846" y="332" type="curve"/>
      <point x="840" y="332" type="line"/>
      <point x="840" y="304" type="line"/>
      <point x="1005" y="304" type="line"/>
      <point x="1005" y="339" type="line"/>
      <point x="956" y="337" type="line"/>
      <point x="957" y="350"/>
      <point x="956" y="371"/>
      <point x="955" y="386" type="curve" smooth="yes"/>
      <point x="940" y="596" type="line" smooth="yes"/>
      <point x="938" y="638"/>
      <point x="943" y="666"/>
      <point x="982" y="667" type="curve"/>
      <point x="982" y="700" type="line"/>
    </contour>
    <contour>
      <point x="66" y="700" type="line"/>
      <point x="63" y="568" type="line"/>
      <point x="93" y="568" type="line"/>
      <point x="93" y="628"/>
      <point x="108" y="661"/>
      <point x="148" y="662" type="curve" smooth="yes"/>
      <point x="212" y="662" type="line"/>
      <point x="212" y="393" type="line" smooth="yes"/>
      <point x="212" y="357"/>
      <point x="204" y="331"/>
      <point x="166" y="331" type="curve"/>
      <point x="166" y="303" type="line"/>
      <point x="329" y="303" type="line"/>
      <point x="329" y="339" type="line"/>
      <point x="283" y="337" type="line"/>
      <point x="284" y="348"/>
      <point x="284" y="363"/>
      <point x="284" y="378" type="curve" smooth="yes"/>
      <point x="284" y="663" type="line"/>
      <point x="328" y="663" type="line" smooth="yes"/>
      <point x="386" y="664"/>
      <point x="401" y="633"/>
      <point x="403" y="568" type="curve"/>
      <point x="433" y="568" type="line"/>
      <point x="429" y="700" type="line"/>
    </contour>
  </outline>
</glyph>
<glyph name="notequal" format="1">
  <advance width="559"/>
  <unicode hex="2260"/>
  <outline>
    <contour>
      <point x="335" y="428" type="line"/>
      <point x="56" y="429" type="line"/>
      <point x="56" y="367" type="line"/>
      <point x="295" y="368" type="line"/>
      <point x="210" y="240" type="line"/>
      <point x="56" y="241" type="line"/>
      <point x="56" y="179" type="line"/>
      <point x="170" y="180" type="line"/>
      <point x="98" y="72" type="line"/>
      <point x="142" y="40" type="line"/>
      <point x="236" y="180" type="line"/>
      <point x="501" y="181" type="line"/>
      <point x="501" y="239" type="line"/>
      <point x="276" y="240" type="line"/>
      <point x="362" y="368" type="line"/>
      <point x="501" y="369" type="line"/>
      <point x="501" y="427" type="line"/>
      <point x="401" y="428" type="line"/>
      <point x="463" y="520" type="line"/>
      <point x="417" y="552" type="line"/>
    </contour>
  </outline>
</glyph>
<glyph name="Tilde" format="1">
  <advance width="476"/>
  <outline>
    <contour>
      <point x="116" y="909"/>
      <point x="68" y="865"/>
      <point x="45" y="807" type="curve"/>
      <point x="79" y="788" type="line"/>
      <point x="104" y="825"/>
      <point x="124" y="848"/>
      <point x="153" y="848" type="curve" smooth="yes"/>
      <point x="200" y="848"/>
      <point x="235" y="777"/>
      <point x="312" y="777" type="curve" smooth="yes"/>
      <point x="356" y="777"/>
      <point x="403" y="807"/>
      <point x="431" y="889" type="curve"/>
      <point x="399" y="905" type="line"/>
      <point x="379" y="870"/>
      <point x="354" y="840"/>
      <point x="318" y="840" type="curve" smooth="yes"/>
      <point x="264" y="840"/>
      <point x="237" y="912"/>
      <point x="158" y="910" type="curve" smooth="yes"/>
    </contour>
  </outline>
</glyph>
<glyph name="uni092C094D" format="1">
  <advance width="429"/>
  <outline>
    <contour>
      <point x="106" y="360" type="line"/>
      <point x="80" y="324" type="line"/>
      <point x="386" y="136" type="line"/>
      <point x="411" y="172" type="line"/>
    </contour>
    <contour>
      <point x="-30" y="570" type="line"/>
      <point x="-2" y="506" type="line"/>
      <point x="358" y="506" type="line"/>
      <point x="330" y="570" type="line"/>
    </contour>
    <contour>
      <point x="248" y="409"/>
      <point x="194" y="409" type="curve" smooth="yes"/>
      <point x="111" y="409"/>
      <point x="44" y="363"/>
      <point x="44" y="262" type="curve" smooth="yes"/>
      <point x="44" y="155"/>
      <point x="121" y="75"/>
      <point x="232" y="75" type="curve" smooth="yes"/>
      <point x="298" y="75"/>
      <point x="364" y="96"/>
      <point x="424" y="145" type="curve"/>
      <point x="401" y="226" type="line"/>
      <point x="359" y="171"/>
      <point x="275" y="142"/>
      <point x="198" y="142" type="curve" smooth="yes"/>
      <point x="145" y="142"/>
      <point x="95" y="168"/>
      <point x="95" y="234" type="curve" smooth="yes"/>
      <point x="95" y="293"/>
      <point x="130" y="338"/>
      <point x="208" y="338" type="curve" smooth="yes"/>
      <point x="241" y="338"/>
      <point x="290" y="332"/>
      <point x="343" y="315" type="curve"/>
      <point x="360" y="356" type="line"/>
      <point x="307" y="391"/>
    </contour>
  </outline>
</glyph>
<glyph name="uni092C094D0932.loclMAR" format="1">
  <advance width="645"/>
  <note>
    dBLa.MAR
  </note>
  <outline>
    <contour>
      <point x="340" y="54"/>
      <point x="284" y="94"/>
      <point x="208" y="94" type="curve" smooth="yes"/>
      <point x="110" y="94"/>
      <point x="79" y="25"/>
      <point x="79" y="-33" type="curve" smooth="yes"/>
      <point x="79" y="-130"/>
      <point x="168" y="-229"/>
      <point x="275" y="-282" type="curve"/>
      <point x="296" y="-244" type="line"/>
      <point x="218" y="-190"/>
      <point x="164" y="-118"/>
      <point x="164" y="-42" type="curve" smooth="yes"/>
      <point x="164" y="14"/>
      <point x="193" y="34"/>
      <point x="239" y="34" type="curve" smooth="yes"/>
      <point x="282" y="34"/>
      <point x="326" y="15"/>
      <point x="369" y="-17" type="curve"/>
      <point x="395" y="7" type="line"/>
    </contour>
    <contour>
      <point x="675" y="-99"/>
      <point x="612" y="84"/>
      <point x="477" y="84" type="curve" smooth="yes"/>
      <point x="393" y="84"/>
      <point x="319" y="34"/>
      <point x="286" y="-68" type="curve"/>
      <point x="356" y="-97" type="line"/>
      <point x="390" y="-3"/>
      <point x="446" y="30"/>
      <point x="497" y="30" type="curve" smooth="yes"/>
      <point x="569" y="30"/>
      <point x="579" y="-74"/>
      <point x="448" y="-178" type="curve"/>
      <point x="500" y="-241" type="line"/>
    </contour>
    <contour>
      <point x="151" y="430" type="line"/>
      <point x="125" y="394" type="line"/>
      <point x="431" y="206" type="line"/>
      <point x="456" y="242" type="line"/>
    </contour>
    <contour>
      <point x="15" y="570" type="line"/>
      <point x="43" y="506" type="line"/>
      <point x="420" y="506" type="line"/>
      <point x="420" y="50" type="line"/>
      <point x="499" y="50" type="line"/>
      <point x="499" y="506" type="line"/>
      <point x="630" y="506" type="line"/>
      <point x="602" y="570" type="line"/>
    </contour>
    <contour>
      <point x="144" y="473"/>
      <point x="79" y="422"/>
      <point x="79" y="322" type="curve" smooth="yes"/>
      <point x="79" y="215"/>
      <point x="156" y="135"/>
      <point x="267" y="135" type="curve" smooth="yes"/>
      <point x="323" y="135"/>
      <point x="375" y="152"/>
      <point x="446" y="203" type="curve"/>
      <point x="446" y="286" type="line"/>
      <point x="394" y="231"/>
      <point x="310" y="202"/>
      <point x="233" y="202" type="curve" smooth="yes"/>
      <point x="180" y="202"/>
      <point x="130" y="228"/>
      <point x="130" y="294" type="curve" smooth="yes"/>
      <point x="130" y="353"/>
      <point x="165" y="398"/>
      <point x="243" y="398" type="curve" smooth="yes"/>
      <point x="295" y="398"/>
      <point x="371" y="377"/>
      <point x="454" y="319" type="curve"/>
      <point x="456" y="377" type="line"/>
      <point x="361" y="453"/>
      <point x="313" y="473"/>
      <point x="240" y="473" type="curve" smooth="yes"/>
    </contour>
    <contour>
      <point x="456" y="570" type="move" name="top"/>
    </contour>
    <contour>
      <point x="501" y="-220" type="move" name="bottom"/>
    </contour>
  </outline>
</glyph>
<glyph name="uni092D094D" format="1">
  <advance width="379"/>
  <outline>
    <contour>
      <point x="451" y="264" type="line"/>
      <point x="276" y="264" type="line"/>
      <point x="278" y="452"/>
      <point x="234" y="592"/>
      <point x="124" y="592" type="curve" smooth="yes"/>
      <point x="67" y="592"/>
      <point x="30" y="560"/>
      <point x="30" y="511" type="curve" smooth="yes"/>
      <point x="30" y="414"/>
      <point x="123" y="350"/>
      <point x="217" y="340" type="curve"/>
      <point x="221" y="373" type="line"/>
      <point x="147" y="388"/>
      <point x="103" y="435"/>
      <point x="103" y="497" type="curve" smooth="yes"/>
      <point x="103" y="525"/>
      <point x="114" y="545"/>
      <point x="136" y="545" type="curve" smooth="yes"/>
      <point x="203" y="545"/>
      <point x="198" y="345"/>
      <point x="187" y="200" type="curve"/>
      <point x="479" y="208" type="line"/>
    </contour>
    <contour>
      <point x="456" y="506" type="line"/>
      <point x="428" y="570" type="line"/>
      <point x="313" y="570" type="line"/>
      <point x="341" y="506" type="line"/>
    </contour>
    <component base="deva_knot" xOffset="83" yOffset="-59"/>
  </outline>
</glyph>
<glyph name="uni091A094D" format="1">
  <advance width="401"/>
  <outline>
    <contour>
      <point x="131" y="341"/>
      <point x="102" y="293"/>
      <point x="102" y="237" type="curve" smooth="yes"/>
      <point x="102" y="142"/>
      <point x="181" y="72"/>
      <point x="285" y="72" type="curve" smooth="yes"/>
      <point x="326" y="72"/>
      <point x="393" y="81"/>
      <point x="481" y="170" type="curve"/>
      <point x="422" y="243" type="line"/>
      <point x="371" y="150"/>
      <point x="306" y="117"/>
      <point x="258" y="117" type="curve" smooth="yes"/>
      <point x="215" y="117"/>
      <point x="184" y="145"/>
      <point x="184" y="202" type="curve" smooth="yes"/>
      <point x="184" y="264"/>
      <point x="231" y="338"/>
      <point x="334" y="344" type="curve"/>
      <point x="194" y="371" type="line"/>
    </contour>
    <contour>
      <point x="-30" y="402" type="line"/>
      <point x="-2" y="338" type="line"/>
      <point x="361" y="344" type="line"/>
      <point x="334" y="402" type="line"/>
    </contour>
    <contour>
      <point x="-30" y="570" type="line"/>
      <point x="-2" y="506" type="line"/>
      <point x="404" y="506" type="line"/>
      <point x="376" y="570" type="line"/>
    </contour>
  </outline>
</glyph>
<glyph name="uni091A094D_cadeva" format="1">
  <advance width="1034"/>
  <note>
    dCCa
  </note>
  <outline>
    <contour>
      <point x="15" y="570" type="line"/>
      <point x="43" y="506" type="line"/>
      <point x="813" y="506" type="line"/>
      <point x="813" y="0" type="line"/>
      <point x="892" y="0" type="line"/>
      <point x="892" y="506" type="line"/>
      <point x="1019" y="506" type="line"/>
      <point x="991" y="570" type="line"/>
    </contour>
    <contour>
      <point x="824" y="249" type="line"/>
      <point x="529" y="-6" type="line"/>
      <point x="587" y="-67" type="line"/>
      <point x="824" y="164" type="line"/>
    </contour>
    <contour>
      <point x="420" y="402" type="line"/>
      <point x="448" y="338" type="line"/>
      <point x="736" y="338" type="line"/>
      <point x="709" y="402" type="line"/>
    </contour>
    <contour>
      <point x="229" y="361"/>
      <point x="136" y="293"/>
      <point x="136" y="209" type="curve"/>
      <point x="136" y="132"/>
      <point x="193" y="82"/>
      <point x="290" y="82" type="curve" smooth="yes"/>
      <point x="360" y="82"/>
      <point x="404" y="105"/>
      <point x="492" y="175" type="curve"/>
      <point x="496" y="281" type="line"/>
      <point x="376" y="121"/>
      <point x="215" y="78"/>
      <point x="215" y="189" type="curve" smooth="yes"/>
      <point x="215" y="259"/>
      <point x="261" y="316"/>
      <point x="395" y="338" type="curve"/>
      <point x="378" y="371" type="line"/>
    </contour>
    <contour>
      <point x="80" y="402" type="line"/>
      <point x="108" y="338" type="line"/>
      <point x="396" y="338" type="line"/>
      <point x="369" y="402" type="line"/>
    </contour>
    <contour>
      <point x="563" y="361"/>
      <point x="470" y="293"/>
      <point x="470" y="209" type="curve"/>
      <point x="470" y="132"/>
      <point x="527" y="82"/>
      <point x="624" y="82" type="curve" smooth="yes"/>
      <point x="694" y="82"/>
      <point x="738" y="105"/>
      <point x="826" y="175" type="curve"/>
      <point x="830" y="282" type="line"/>
      <point x="710" y="122"/>
      <point x="549" y="78"/>
      <point x="549" y="189" type="curve" smooth="yes"/>
      <point x="549" y="259"/>
      <point x="602" y="320"/>
      <point x="736" y="338" type="curve"/>
      <point x="712" y="371" type="line"/>
    </contour>
    <contour>
      <point x="855" y="570" type="move" name="top"/>
    </contour>
    <contour>
      <point x="855" y="0" type="move" name="bottom"/>
    </contour>
  </outline>
</glyph>
<glyph name="uni091A094D_radeva" format="1">
  <advance width="684"/>
  <note>
    dCRa
  </note>
  <outline>
    <contour>
      <point x="491" y="249" type="line"/>
      <point x="196" y="-6" type="line"/>
      <point x="254" y="-67" type="line"/>
      <point x="491" y="154" type="line"/>
    </contour>
    <component base="cadeva"/>
  </outline>
</glyph>
<glyph name="uni091B094D0932.loclMAR" format="1">
  <advance width="734"/>
  <note>
    dChLa.MAR
  </note>
  <outline>
    <contour>
      <point x="351" y="44"/>
      <point x="295" y="84"/>
      <point x="219" y="84" type="curve" smooth="yes"/>
      <point x="121" y="84"/>
      <point x="90" y="15"/>
      <point x="90" y="-43" type="curve" smooth="yes"/>
      <point x="90" y="-140"/>
      <point x="179" y="-239"/>
      <point x="286" y="-292" type="curve"/>
      <point x="307" y="-254" type="line"/>
      <point x="229" y="-200"/>
      <point x="175" y="-128"/>
      <point x="175" y="-52" type="curve" smooth="yes"/>
      <point x="175" y="4"/>
      <point x="204" y="24"/>
      <point x="250" y="24" type="curve" smooth="yes"/>
      <point x="293" y="24"/>
      <point x="337" y="5"/>
      <point x="380" y="-27" type="curve"/>
      <point x="406" y="-3" type="line"/>
    </contour>
    <contour>
      <point x="686" y="-109"/>
      <point x="623" y="64"/>
      <point x="488" y="64" type="curve" smooth="yes"/>
      <point x="404" y="64"/>
      <point x="330" y="24"/>
      <point x="297" y="-78" type="curve"/>
      <point x="367" y="-107" type="line"/>
      <point x="401" y="-13"/>
      <point x="457" y="20"/>
      <point x="508" y="20" type="curve" smooth="yes"/>
      <point x="580" y="20"/>
      <point x="590" y="-84"/>
      <point x="459" y="-188" type="curve"/>
      <point x="511" y="-251" type="line"/>
    </contour>
    <contour>
      <point x="15" y="570" type="line"/>
      <point x="43" y="506" type="line"/>
      <point x="513" y="506" type="line"/>
      <point x="513" y="430" type="line"/>
      <point x="592" y="430" type="line"/>
      <point x="592" y="506" type="line"/>
      <point x="719" y="506" type="line"/>
      <point x="691" y="570" type="line"/>
    </contour>
    <contour>
      <point x="457" y="464"/>
      <point x="408" y="429"/>
      <point x="408" y="369" type="curve" smooth="yes"/>
      <point x="408" y="293"/>
      <point x="485" y="244"/>
      <point x="581" y="224" type="curve"/>
      <point x="597" y="256" type="line"/>
      <point x="505" y="288"/>
      <point x="491" y="322"/>
      <point x="491" y="358" type="curve" smooth="yes"/>
      <point x="491" y="401"/>
      <point x="510" y="419"/>
      <point x="537" y="419" type="curve" smooth="yes"/>
      <point x="570" y="419"/>
      <point x="599" y="393"/>
      <point x="599" y="337" type="curve" smooth="yes"/>
      <point x="599" y="209"/>
      <point x="450" y="173"/>
      <point x="341" y="173" type="curve" smooth="yes"/>
      <point x="251" y="173"/>
      <point x="216" y="206"/>
      <point x="216" y="254" type="curve" smooth="yes"/>
      <point x="216" y="295"/>
      <point x="242" y="329"/>
      <point x="327" y="335" type="curve"/>
      <point x="318" y="393" type="line"/>
      <point x="212" y="394"/>
      <point x="140" y="353"/>
      <point x="140" y="282" type="curve" smooth="yes"/>
      <point x="140" y="190"/>
      <point x="257" y="111"/>
      <point x="413" y="113" type="curve" smooth="yes"/>
      <point x="543" y="115"/>
      <point x="674" y="202"/>
      <point x="674" y="317" type="curve" smooth="yes"/>
      <point x="674" y="404"/>
      <point x="602" y="464"/>
      <point x="520" y="464" type="curve" smooth="yes"/>
    </contour>
    <contour>
      <point x="159" y="554"/>
      <point x="87" y="527"/>
      <point x="87" y="452" type="curve" smooth="yes"/>
      <point x="87" y="399"/>
      <point x="122" y="364"/>
      <point x="213" y="330" type="curve"/>
      <point x="220" y="367" type="line"/>
      <point x="184" y="381"/>
      <point x="158" y="406"/>
      <point x="158" y="441" type="curve" smooth="yes"/>
      <point x="158" y="490"/>
      <point x="209" y="506"/>
      <point x="259" y="506" type="curve"/>
      <point x="238" y="554" type="line"/>
    </contour>
    <contour>
      <point x="463" y="37" type="line"/>
      <point x="542" y="37" type="line"/>
      <point x="542" y="177" type="line"/>
      <point x="463" y="177" type="line"/>
    </contour>
    <contour>
      <point x="585" y="570" type="move" name="top"/>
    </contour>
  </outline>
</glyph>
<glyph name="uni091B094D_nadeva" format="1">
  <advance width="734"/>
  <note>
    dChNa
  </note>
  <outline>
    <contour>
      <point x="430" y="116" type="line"/>
      <point x="430" y="-255" type="line"/>
      <point x="509" y="-255" type="line"/>
      <point x="509" y="136" type="line"/>
    </contour>
    <contour>
      <point x="15" y="570" type="line"/>
      <point x="43" y="506" type="line"/>
      <point x="523" y="506" type="line"/>
      <point x="523" y="440" type="line"/>
      <point x="602" y="410" type="line"/>
      <point x="602" y="506" type="line"/>
      <point x="719" y="506" type="line"/>
      <point x="691" y="570" type="line"/>
    </contour>
    <contour>
      <point x="461" y="457"/>
      <point x="416" y="427"/>
      <point x="416" y="370" type="curve" smooth="yes"/>
      <point x="416" y="287"/>
      <point x="508" y="237"/>
      <point x="595" y="214" type="curve"/>
      <point x="609" y="248" type="line"/>
      <point x="525" y="285"/>
      <point x="492" y="320"/>
      <point x="492" y="368" type="curve" smooth="yes"/>
      <point x="492" y="402"/>
      <point x="509" y="418"/>
      <point x="533" y="418" type="curve" smooth="yes"/>
      <point x="568" y="418"/>
      <point x="599" y="387"/>
      <point x="599" y="323" type="curve" smooth="yes"/>
      <point x="599" y="202"/>
      <point x="431" y="139"/>
      <point x="340" y="139" type="curve" smooth="yes"/>
      <point x="295" y="139"/>
      <point x="252" y="155"/>
      <point x="252" y="214" type="curve" smooth="yes"/>
      <point x="252" y="275"/>
      <point x="301" y="299"/>
      <point x="370" y="284" type="curve"/>
      <point x="362" y="343" type="line"/>
      <point x="265" y="370"/>
      <point x="179" y="323"/>
      <point x="179" y="239" type="curve" smooth="yes"/>
      <point x="179" y="139"/>
      <point x="280" y="89"/>
      <point x="384" y="89" type="curve" smooth="yes"/>
      <point x="522" y="89"/>
      <point x="671" y="163"/>
      <point x="671" y="301" type="curve" smooth="yes"/>
      <point x="671" y="392"/>
      <point x="597" y="457"/>
      <point x="518" y="457" type="curve" smooth="yes"/>
    </contour>
    <contour>
      <point x="173" y="468"/>
      <point x="124" y="435"/>
      <point x="124" y="385" type="curve" smooth="yes"/>
      <point x="124" y="340"/>
      <point x="163" y="276"/>
      <point x="248" y="273" type="curve"/>
      <point x="260" y="298" type="line"/>
      <point x="212" y="309"/>
      <point x="192" y="337"/>
      <point x="192" y="367" type="curve" smooth="yes"/>
      <point x="192" y="401"/>
      <point x="217" y="419"/>
      <point x="263" y="417" type="curve" smooth="yes"/>
      <point x="284" y="417"/>
      <point x="306" y="412"/>
      <point x="332" y="404" type="curve"/>
      <point x="314" y="458" type="line"/>
      <point x="290" y="465"/>
      <point x="268" y="468"/>
      <point x="245" y="468" type="curve" smooth="yes"/>
    </contour>
    <contour>
      <point x="487" y="-20" type="line"/>
      <point x="209" y="-20" type="line"/>
      <point x="182" y="-20"/>
      <point x="172" y="-28"/>
      <point x="172" y="-45" type="curve" smooth="yes"/>
      <point x="172" y="-89"/>
      <point x="256" y="-157"/>
      <point x="288" y="-157" type="curve" smooth="yes"/>
      <point x="308" y="-157"/>
      <point x="314" y="-142"/>
      <point x="314" y="-112" type="curve" smooth="yes"/>
      <point x="314" y="-84" type="line"/>
      <point x="487" y="-84" type="line"/>
    </contour>
    <contour>
      <point x="561" y="570" type="move" name="top"/>
    </contour>
    <contour>
      <point x="474" y="-275" type="move" name="bottom"/>
    </contour>
  </outline>
</glyph>
<glyph name="uni0926094D092D094D092F" format="1">
  <advance width="1179"/>
  <note>
    dDBhYa
  </note>
  <outline>
    <contour>
      <point x="473" y="445" type="line" smooth="yes"/>
      <point x="499" y="373" type="line" smooth="yes"/>
      <point x="711" y="373" type="line"/>
      <point x="775" y="373"/>
      <point x="796" y="362"/>
      <point x="803" y="337" type="curve"/>
      <point x="810" y="303"/>
      <point x="796" y="267"/>
      <point x="682" y="232" type="curve" smooth="yes"/>
      <point x="736" y="56"/>
      <point x="875" y="15"/>
      <point x="972" y="99" type="curve" smooth="yes"/>
      <point x="972" y="0" type="line" smooth="yes"/>
      <point x="1051" y="0" type="line" smooth="yes"/>
      <point x="1051" y="506" type="line" smooth="yes"/>
      <point x="1164" y="506" type="line" smooth="yes"/>
      <point x="1136" y="570" type="line" smooth="yes"/>
      <point x="625" y="570" type="line" smooth="yes"/>
      <point x="653" y="506" type="line" smooth="yes"/>
      <point x="972" y="506" type="line" smooth="yes"/>
      <point x="972" y="192" type="line" smooth="yes"/>
      <point x="902" y="117"/>
      <point x="790" y="88"/>
      <point x="750" y="185" type="curve" smooth="yes"/>
      <point x="859" y="225"/>
      <point x="880" y="292"/>
      <point x="854" y="369" type="curve"/>
      <point x="834" y="415"/>
      <point x="791" y="445"/>
      <point x="719" y="445" type="curve"/>
    </contour>
    <component base="uni0926094D_bhadeva"/>
    <contour>
      <point x="1008" y="570" type="move" name="top"/>
    </contour>
    <contour>
      <point x="1008" y="0" type="move" name="bottom"/>
    </contour>
  </outline>
</glyph>
<glyph name="uni0926094D0917094D_radeva" format="1">
  <advance width="604"/>
  <note>
    dDGRa
  </note>
  <outline>
    <contour>
      <point x="315" y="-164" type="line"/>
      <point x="348" y="-211" type="line"/>
      <point x="497" y="-70" type="line"/>
      <point x="470" y="-32" type="line"/>
    </contour>
    <component base="uni0926094D_gadeva"/>
  </outline>
</glyph>
<glyph name="uni0926094D_gadeva_uuvowelsignd" format="1">
  <advance width="599"/>
  <outline>
    <contour>
      <point x="509" y="134"/>
      <point x="479" y="156"/>
      <point x="447" y="156" type="curve" smooth="yes"/>
      <point x="407" y="156"/>
      <point x="361" y="125"/>
      <point x="387" y="46" type="curve"/>
      <point x="447" y="-51" type="line"/>
      <point x="523" y="-46" type="line"/>
      <point x="466" y="18" type="line"/>
      <point x="488" y="33"/>
      <point x="509" y="56"/>
      <point x="509" y="91" type="curve" smooth="yes"/>
    </contour>
    <contour>
      <point x="428" y="104" type="line"/>
      <point x="382" y="67"/>
      <point x="344" y="56"/>
      <point x="306" y="56" type="curve" smooth="yes"/>
      <point x="225" y="56"/>
      <point x="174" y="105"/>
      <point x="174" y="187" type="curve" smooth="yes"/>
      <point x="174" y="273"/>
      <point x="228" y="323"/>
      <point x="309" y="323" type="curve" smooth="yes"/>
      <point x="460" y="323" type="line"/>
      <point x="460" y="506" type="line"/>
      <point x="604" y="506" type="line"/>
      <point x="576" y="570" type="line"/>
      <point x="15" y="570" type="line"/>
      <point x="43" y="506" type="line"/>
      <point x="381" y="506" type="line"/>
      <point x="381" y="396" type="line"/>
      <point x="310" y="396" type="line" smooth="yes"/>
      <point x="198" y="396"/>
      <point x="113" y="337"/>
      <point x="113" y="224" type="curve" smooth="yes"/>
      <point x="113" y="110"/>
      <point x="198" y="-6"/>
      <point x="346" y="-6" type="curve" smooth="yes"/>
      <point x="392" y="-6"/>
      <point x="431" y="6"/>
      <point x="471" y="33" type="curve"/>
    </contour>
    <contour>
      <point x="215" y="59" type="line"/>
      <point x="222" y="-42" type="line"/>
      <point x="154" y="-34"/>
      <point x="125" y="-50"/>
      <point x="123" y="-85" type="curve" smooth="yes"/>
      <point x="122" y="-130"/>
      <point x="177" y="-167"/>
      <point x="223" y="-174" type="curve" smooth="yes"/>
      <point x="285" y="-181"/>
      <point x="283" y="-70"/>
      <point x="271" y="31" type="curve"/>
    </contour>
    <contour>
      <point x="464" y="-215"/>
      <point x="400" y="-215"/>
      <point x="385" y="-173" type="curve" smooth="yes"/>
      <point x="369" y="-129"/>
      <point x="418" y="-87"/>
      <point x="491" y="-87" type="curve" smooth="yes"/>
      <point x="538" y="-87"/>
      <point x="594" y="-119"/>
      <point x="626" y="-162" type="curve"/>
      <point x="662" y="-142" type="line"/>
      <point x="623" y="-77"/>
      <point x="561" y="-19"/>
      <point x="478" y="-19" type="curve" smooth="yes"/>
      <point x="355" y="-19"/>
      <point x="313" y="-113"/>
      <point x="342" y="-188" type="curve" smooth="yes"/>
      <point x="371" y="-277"/>
      <point x="492" y="-293"/>
      <point x="583" y="-233" type="curve"/>
      <point x="538" y="-167" type="line"/>
    </contour>
    <contour>
      <point x="369" y="580" type="move" name="top"/>
    </contour>
  </outline>
</glyph>
<glyph name="uni0926094D0918094D092F" format="1">
  <advance width="1179"/>
  <outline>
    <contour>
      <point x="473" y="445" type="line"/>
      <point x="499" y="373" type="line"/>
      <point x="711" y="373" type="line" smooth="yes"/>
      <point x="775" y="373"/>
      <point x="796" y="366"/>
      <point x="805" y="341" type="curve" smooth="yes"/>
      <point x="816" y="311"/>
      <point x="793" y="278"/>
      <point x="652" y="232" type="curve"/>
      <point x="712" y="56"/>
      <point x="866" y="15"/>
      <point x="972" y="99" type="curve"/>
      <point x="972" y="0" type="line"/>
      <point x="1051" y="0" type="line"/>
      <point x="1051" y="506" type="line"/>
      <point x="1164" y="506" type="line"/>
      <point x="1136" y="570" type="line"/>
      <point x="625" y="570" type="line"/>
      <point x="653" y="506" type="line"/>
      <point x="972" y="506" type="line"/>
      <point x="972" y="192" type="line"/>
      <point x="893" y="117"/>
      <point x="766" y="88"/>
      <point x="720" y="185" type="curve"/>
      <point x="859" y="236"/>
      <point x="888" y="293"/>
      <point x="854" y="370" type="curve" smooth="yes"/>
      <point x="834" y="416"/>
      <point x="791" y="445"/>
      <point x="719" y="445" type="curve" smooth="yes"/>
    </contour>
    <component base="uni0926094D_ghadeva"/>
    <contour>
      <point x="1015" y="570" type="move" name="top"/>
    </contour>
    <contour>
      <point x="1015" y="0" type="move" name="bottom"/>
    </contour>
  </outline>
</glyph>
<glyph name="uni0926094D_radeva" format="1">
  <advance width="604"/>
  <note>
    dDRa
  </note>
  <outline>
    <contour>
      <point x="108" y="-94" type="line"/>
      <point x="172" y="-153" type="line"/>
      <point x="442" y="39" type="line"/>
      <point x="393" y="74" type="line"/>
    </contour>
    <component base="dadeva"/>
    <contour>
      <point x="388" y="-71" type="move" name="bottom"/>
    </contour>
  </outline>
</glyph>
<glyph name="uni0926094D_radeva_uvowelsignde" format="1">
  <advance width="624"/>
  <outline>
    <contour>
      <point x="108" y="-94" type="line"/>
      <point x="172" y="-153" type="line"/>
      <point x="442" y="39" type="line"/>
      <point x="393" y="74" type="line"/>
    </contour>
    <contour>
      <point x="509" y="154"/>
      <point x="479" y="176"/>
      <point x="447" y="176" type="curve" smooth="yes"/>
      <point x="410" y="176"/>
      <point x="378" y="145"/>
      <point x="404" y="66" type="curve" smooth="yes"/>
      <point x="417" y="19"/>
      <point x="429" y="-8"/>
      <point x="464" y="-65" type="curve"/>
      <point x="525" y="-33" type="line"/>
      <point x="496" y="-7"/>
      <point x="486" y="4"/>
      <point x="466" y="38" type="curve"/>
      <point x="488" y="53"/>
      <point x="509" y="76"/>
      <point x="509" y="111" type="curve" smooth="yes"/>
    </contour>
    <contour>
      <point x="428" y="124" type="line"/>
      <point x="382" y="87"/>
      <point x="344" y="76"/>
      <point x="306" y="76" type="curve" smooth="yes"/>
      <point x="225" y="77"/>
      <point x="174" y="126"/>
      <point x="174" y="206" type="curve" smooth="yes"/>
      <point x="174" y="289"/>
      <point x="228" y="323"/>
      <point x="309" y="323" type="curve" smooth="yes"/>
      <point x="460" y="323" type="line"/>
      <point x="460" y="506" type="line"/>
      <point x="604" y="506" type="line"/>
      <point x="576" y="570" type="line"/>
      <point x="15" y="570" type="line"/>
      <point x="43" y="506" type="line"/>
      <point x="381" y="506" type="line"/>
      <point x="381" y="396" type="line"/>
      <point x="310" y="396" type="line" smooth="yes"/>
      <point x="198" y="396"/>
      <point x="113" y="340"/>
      <point x="113" y="234" type="curve" smooth="yes"/>
      <point x="113" y="130"/>
      <point x="198" y="14"/>
      <point x="346" y="14" type="curve" smooth="yes"/>
      <point x="392" y="14"/>
      <point x="431" y="26"/>
      <point x="471" y="53" type="curve"/>
    </contour>
    <contour>
      <point x="489" y="-79"/>
      <point x="546" y="-76"/>
      <point x="561" y="-118" type="curve" smooth="yes"/>
      <point x="577" y="-162"/>
      <point x="528" y="-204"/>
      <point x="455" y="-204" type="curve" smooth="yes"/>
      <point x="408" y="-204"/>
      <point x="352" y="-172"/>
      <point x="320" y="-129" type="curve"/>
      <point x="284" y="-149" type="line"/>
      <point x="323" y="-214"/>
      <point x="385" y="-272"/>
      <point x="468" y="-272" type="curve" smooth="yes"/>
      <point x="560" y="-272"/>
      <point x="611" y="-223"/>
      <point x="611" y="-147" type="curve" smooth="yes"/>
      <point x="611" y="-20"/>
      <point x="479" y="5"/>
      <point x="384" y="-54" type="curve"/>
      <point x="425" y="-117" type="line"/>
    </contour>
    <contour>
      <point x="92" y="0" type="move" name="nukta"/>
    </contour>
    <contour>
      <point x="375" y="-35" type="move" name="bottom"/>
    </contour>
    <contour>
      <point x="419" y="570" type="move" name="top"/>
    </contour>
  </outline>
</glyph>
<glyph name="uni0926094D_vadeva" format="1">
  <advance width="634"/>
  <note>
    dDVa
  </note>
  <outline>
    <contour>
      <point x="537" y="241"/>
      <point x="502" y="267"/>
      <point x="470" y="267" type="curve" smooth="yes"/>
      <point x="430" y="267"/>
      <point x="375" y="232"/>
      <point x="401" y="153" type="curve" smooth="yes"/>
      <point x="424" y="73"/>
      <point x="523" y="-37"/>
      <point x="581" y="-126" type="curve"/>
      <point x="644" y="-72" type="line"/>
      <point x="489" y="125" type="line"/>
      <point x="511" y="140"/>
      <point x="537" y="163"/>
      <point x="537" y="199" type="curve" smooth="yes"/>
    </contour>
    <contour>
      <point x="460" y="445" type="line"/>
      <point x="312" y="445" type="line" smooth="yes"/>
      <point x="200" y="445"/>
      <point x="109" y="390"/>
      <point x="109" y="289" type="curve" smooth="yes"/>
      <point x="109" y="188"/>
      <point x="199" y="81"/>
      <point x="345" y="81" type="curve" smooth="yes"/>
      <point x="397" y="81"/>
      <point x="439" y="94"/>
      <point x="486" y="124" type="curve"/>
      <point x="440" y="189" type="line"/>
      <point x="396" y="155"/>
      <point x="357" y="136"/>
      <point x="307" y="136" type="curve" smooth="yes"/>
      <point x="237" y="136"/>
      <point x="182" y="187"/>
      <point x="182" y="251" type="curve" smooth="yes"/>
      <point x="182" y="318"/>
      <point x="230" y="373"/>
      <point x="311" y="373" type="curve" smooth="yes"/>
      <point x="460" y="373" type="line"/>
    </contour>
    <contour>
      <point x="460" y="373" type="line"/>
      <point x="460" y="506" type="line"/>
      <point x="604" y="506" type="line"/>
      <point x="576" y="570" type="line"/>
      <point x="15" y="570" type="line"/>
      <point x="43" y="506" type="line"/>
      <point x="381" y="506" type="line"/>
      <point x="381" y="396" type="line"/>
    </contour>
    <contour>
      <point x="445" y="93" type="line"/>
      <point x="406" y="-4"/>
      <point x="346" y="-75"/>
      <point x="256" y="-75" type="curve" smooth="yes"/>
      <point x="210" y="-75"/>
      <point x="185" y="-46"/>
      <point x="185" y="-11" type="curve" smooth="yes"/>
      <point x="185" y="31"/>
      <point x="220" y="81"/>
      <point x="296" y="98" type="curve"/>
      <point x="195" y="152" type="line"/>
      <point x="142" y="109"/>
      <point x="118" y="74"/>
      <point x="118" y="18" type="curve" smooth="yes"/>
      <point x="118" y="-60"/>
      <point x="174" y="-127"/>
      <point x="285" y="-127" type="curve" smooth="yes"/>
      <point x="368" y="-127"/>
      <point x="435" y="-66"/>
      <point x="499" y="16" type="curve"/>
    </contour>
    <contour>
      <point x="419" y="570" type="move" name="top"/>
    </contour>
    <contour>
      <point x="481" y="-84" type="move" name="bottom"/>
    </contour>
  </outline>
</glyph>
<glyph name="uni0926094D092F" format="1">
  <advance width="689"/>
  <note>
    dDYa
  </note>
  <outline>
    <contour>
      <point x="646" y="570" type="line"/>
      <point x="15" y="570" type="line"/>
      <point x="43" y="506" type="line"/>
      <point x="301" y="506" type="line"/>
      <point x="301" y="455" type="line"/>
      <point x="194" y="455" type="line" smooth="yes"/>
      <point x="60" y="455"/>
      <point x="29" y="352"/>
      <point x="79" y="284" type="curve" smooth="yes"/>
      <point x="96" y="262"/>
      <point x="121" y="245"/>
      <point x="151" y="238" type="curve"/>
      <point x="121" y="217"/>
      <point x="102" y="176"/>
      <point x="102" y="136" type="curve" smooth="yes"/>
      <point x="102" y="52"/>
      <point x="183" y="-17"/>
      <point x="293" y="-17" type="curve" smooth="yes"/>
      <point x="365" y="-17"/>
      <point x="420" y="5"/>
      <point x="469" y="48" type="curve"/>
      <point x="469" y="0" type="line"/>
      <point x="548" y="0" type="line"/>
      <point x="548" y="506" type="line"/>
      <point x="674" y="506" type="line"/>
    </contour>
    <contour>
      <point x="469" y="132" type="line"/>
      <point x="423" y="81"/>
      <point x="333" y="50"/>
      <point x="262" y="50" type="curve" smooth="yes"/>
      <point x="208" y="50"/>
      <point x="165" y="69"/>
      <point x="165" y="111" type="curve" smooth="yes"/>
      <point x="165" y="155"/>
      <point x="204" y="206"/>
      <point x="320" y="213" type="curve"/>
      <point x="304" y="289" type="line"/>
      <point x="211" y="267"/>
      <point x="162" y="257"/>
      <point x="144" y="303" type="curve" smooth="yes"/>
      <point x="130" y="339"/>
      <point x="145" y="391"/>
      <point x="216" y="391" type="curve" smooth="yes"/>
      <point x="380" y="391" type="line"/>
      <point x="380" y="506" type="line"/>
      <point x="469" y="506" type="line"/>
    </contour>
    <contour>
      <point x="513" y="570" type="move" name="top"/>
    </contour>
    <contour>
      <point x="513" y="0" type="move" name="bottom"/>
    </contour>
  </outline>
</glyph>
<glyph name="dadeva_uvowelsigndeva" format="1">
  <advance width="619"/>
  <note>
    dDMatraU
  </note>
  <outline>
    <contour>
      <point x="401" y="120" type="line"/>
      <point x="416" y="-19" type="line"/>
      <point x="493" y="-50" type="line"/>
      <point x="452" y="130" type="line"/>
    </contour>
    <contour>
      <point x="415" y="81"/>
      <point x="536" y="117"/>
      <point x="536" y="199" type="curve" smooth="yes"/>
      <point x="536" y="241"/>
      <point x="501" y="267"/>
      <point x="469" y="267" type="curve" smooth="yes"/>
      <point x="430" y="267"/>
      <point x="378" y="234"/>
      <point x="398" y="161" type="curve"/>
      <point x="369" y="145"/>
      <point x="340" y="136"/>
      <point x="306" y="136" type="curve" smooth="yes"/>
      <point x="236" y="136"/>
      <point x="181" y="187"/>
      <point x="181" y="251" type="curve" smooth="yes"/>
      <point x="181" y="318"/>
      <point x="229" y="373"/>
      <point x="310" y="373" type="curve" smooth="yes"/>
      <point x="459" y="373" type="line"/>
      <point x="460" y="506" type="line"/>
      <point x="604" y="506" type="line"/>
      <point x="576" y="570" type="line"/>
      <point x="15" y="570" type="line"/>
      <point x="43" y="506" type="line"/>
      <point x="381" y="506" type="line"/>
      <point x="381" y="445" type="line"/>
      <point x="311" y="445" type="line" smooth="yes"/>
      <point x="199" y="445"/>
      <point x="108" y="390"/>
      <point x="108" y="289" type="curve" smooth="yes"/>
      <point x="108" y="188"/>
      <point x="198" y="81"/>
      <point x="344" y="81" type="curve" smooth="yes"/>
    </contour>
    <component base="uvowelsigndeva" xOffset="289"/>
    <contour>
      <point x="420" y="570" type="move" name="top"/>
    </contour>
  </outline>
</glyph>
<glyph name="uni0921094D0921094D092F" format="1">
  <advance width="1079"/>
  <note>
    dDdDdYa
  </note>
  <outline>
    <contour>
      <point x="373" y="473" type="line"/>
      <point x="399" y="412" type="line"/>
      <point x="611" y="412" type="line" smooth="yes"/>
      <point x="675" y="412"/>
      <point x="696" y="400"/>
      <point x="703" y="375" type="curve" smooth="yes"/>
      <point x="713" y="341"/>
      <point x="693" y="278"/>
      <point x="552" y="232" type="curve"/>
      <point x="612" y="56"/>
      <point x="766" y="15"/>
      <point x="872" y="99" type="curve"/>
      <point x="872" y="0" type="line"/>
      <point x="951" y="0" type="line"/>
      <point x="951" y="506" type="line"/>
      <point x="1064" y="506" type="line"/>
      <point x="1036" y="570" type="line"/>
      <point x="525" y="570" type="line"/>
      <point x="553" y="506" type="line"/>
      <point x="872" y="506" type="line"/>
      <point x="872" y="192" type="line"/>
      <point x="793" y="117"/>
      <point x="666" y="88"/>
      <point x="620" y="185" type="curve"/>
      <point x="759" y="236"/>
      <point x="788" y="320"/>
      <point x="754" y="397" type="curve" smooth="yes"/>
      <point x="734" y="443"/>
      <point x="691" y="473"/>
      <point x="619" y="473" type="curve" smooth="yes"/>
    </contour>
    <component base="uni0921094D_ddadeva"/>
    <contour>
      <point x="915" y="570" type="move" name="top"/>
    </contour>
    <contour>
      <point x="915" y="0" type="move" name="bottom"/>
    </contour>
  </outline>
</glyph>
<glyph name="uni0921094D_ddhadeva" format="1">
  <advance width="594"/>
  <note>
    dDdDdha
  </note>
  <outline>
    <contour>
      <point x="375" y="159" type="line"/>
      <point x="375" y="71" type="line"/>
      <point x="296" y="71" type="line" smooth="yes"/>
      <point x="188" y="71"/>
      <point x="123" y="23"/>
      <point x="123" y="-60" type="curve" smooth="yes"/>
      <point x="123" y="-153"/>
      <point x="207" y="-289"/>
      <point x="367" y="-287" type="curve" smooth="yes"/>
      <point x="458" y="-287"/>
      <point x="515" y="-243"/>
      <point x="515" y="-182" type="curve" smooth="yes"/>
      <point x="515" y="-118"/>
      <point x="453" y="-48"/>
      <point x="371" y="-49" type="curve" smooth="yes"/>
      <point x="311" y="-50"/>
      <point x="276" y="-86"/>
      <point x="276" y="-131" type="curve" smooth="yes"/>
      <point x="276" y="-170"/>
      <point x="302" y="-217"/>
      <point x="356" y="-258" type="curve"/>
      <point x="399" y="-257" type="line"/>
      <point x="359" y="-224"/>
      <point x="342" y="-188"/>
      <point x="342" y="-156" type="curve" smooth="yes"/>
      <point x="342" y="-121"/>
      <point x="361" y="-94"/>
      <point x="403" y="-95" type="curve" smooth="yes"/>
      <point x="443" y="-96"/>
      <point x="464" y="-121"/>
      <point x="464" y="-153" type="curve" smooth="yes"/>
      <point x="464" y="-202"/>
      <point x="407" y="-232"/>
      <point x="345" y="-232" type="curve" smooth="yes"/>
      <point x="273" y="-232"/>
      <point x="193" y="-207"/>
      <point x="193" y="-114" type="curve" smooth="yes"/>
      <point x="193" y="-56"/>
      <point x="225" y="7"/>
      <point x="304" y="7" type="curve" smooth="yes"/>
      <point x="454" y="7" type="line"/>
      <point x="454" y="159" type="line"/>
    </contour>
    <contour>
      <point x="253" y="473" type="line" smooth="yes"/>
      <point x="172" y="473"/>
      <point x="133" y="434"/>
      <point x="135" y="383" type="curve" smooth="yes"/>
      <point x="138" y="310"/>
      <point x="230" y="266"/>
      <point x="283" y="266" type="curve" smooth="yes"/>
      <point x="329" y="266"/>
      <point x="368" y="295"/>
      <point x="409" y="294" type="curve" smooth="yes"/>
      <point x="439" y="294"/>
      <point x="449" y="280"/>
      <point x="449" y="254" type="curve" smooth="yes"/>
      <point x="449" y="224"/>
      <point x="410" y="178"/>
      <point x="318" y="178" type="curve" smooth="yes"/>
      <point x="246" y="178"/>
      <point x="168" y="200"/>
      <point x="100" y="297" type="curve"/>
      <point x="70" y="276" type="line"/>
      <point x="125" y="185"/>
      <point x="208" y="107"/>
      <point x="345" y="107" type="curve"/>
      <point x="467" y="107"/>
      <point x="504" y="171"/>
      <point x="503" y="233" type="curve" smooth="yes"/>
      <point x="502" y="304"/>
      <point x="426" y="353"/>
      <point x="363" y="353" type="curve" smooth="yes"/>
      <point x="298" y="353"/>
      <point x="275" y="321"/>
      <point x="228" y="321" type="curve" smooth="yes"/>
      <point x="207" y="321"/>
      <point x="194" y="333"/>
      <point x="194" y="356" type="curve" smooth="yes"/>
      <point x="194" y="390"/>
      <point x="222" y="412"/>
      <point x="272" y="412" type="curve" smooth="yes"/>
      <point x="460" y="412" type="line"/>
      <point x="395" y="473" type="line"/>
    </contour>
    <contour>
      <point x="15" y="570" type="line"/>
      <point x="43" y="506" type="line"/>
      <point x="381" y="506" type="line"/>
      <point x="381" y="412" type="line"/>
      <point x="460" y="412" type="line"/>
      <point x="460" y="506" type="line"/>
      <point x="579" y="506" type="line"/>
      <point x="551" y="570" type="line"/>
    </contour>
    <contour>
      <point x="424" y="570" type="move" name="top"/>
    </contour>
    <contour>
      <point x="417" y="-274" type="move" name="bottom"/>
    </contour>
  </outline>
</glyph>
